<svg xmlns="http://www.w3.org/2000/svg" width="1164" height="538" font-family="system-ui, -apple-system, sans-serif">
<defs><marker id="arrow-solid" markerWidth="10" markerHeight="8" refX="9" refY="4" orient="auto" markerUnits="userSpaceOnUse"><polygon points="0 0, 10 4, 0 8" fill="#0B6E6E"/></marker><marker id="arrow-dashed" markerWidth="10" markerHeight="8" refX="9" refY="4" orient="auto" markerUnits="userSpaceOnUse"><polygon points="0 0, 10 4, 0 8" fill="#94A3B8"/></marker></defs>
<rect width="1164" height="538" fill="#F8FAFC"/>
<g class="title-block"><rect x="50" y="30" width="1064" height="52" rx="6" fill="#FFFFFF" stroke="#CBD5E1" stroke-width="1"/><text x="66" y="54" font-size="16" fill="#0F172A" font-family="system-ui, -apple-system, sans-serif" font-weight="700">Generated Blueprint — 能力地图</text><text x="66" y="72" font-size="11" fill="#64748B" font-family="'JetBrains Mono', 'SF Mono', monospace">Industry: common</text></g>
<text x="50" y="102" font-size="13" fill="#0B6E6E" font-weight="700" font-family="system-ui, -apple-system, sans-serif">核心层 (17)</text>
<rect x="50" y="116" width="200" height="80" rx="6" fill="#E8F5F5" stroke="#0B6E6E" stroke-width="1.5"/><text x="62" y="136" font-size="12" fill="#0B6E6E" font-weight="600">AI智能推荐</text>
<rect x="266" y="116" width="200" height="80" rx="6" fill="#E8F5F5" stroke="#0B6E6E" stroke-width="1.5"/><text x="278" y="136" font-size="12" fill="#0B6E6E" font-weight="600">智能搜索</text>
<rect x="482" y="116" width="200" height="80" rx="6" fill="#E8F5F5" stroke="#0B6E6E" stroke-width="1.5"/><text x="494" y="136" font-size="12" fill="#0B6E6E" font-weight="600">自动标签</text>
<rect x="698" y="116" width="200" height="80" rx="6" fill="#E8F5F5" stroke="#0B6E6E" stroke-width="1.5"/><text x="710" y="136" font-size="12" fill="#0B6E6E" font-weight="600">内容生成</text>
<rect x="914" y="116" width="200" height="80" rx="6" fill="#E8F5F5" stroke="#0B6E6E" stroke-width="1.5"/><text x="926" y="136" font-size="12" fill="#0B6E6E" font-weight="600">知识库</text>
<rect x="50" y="212" width="200" height="80" rx="6" fill="#E8F5F5" stroke="#0B6E6E" stroke-width="1.5"/><text x="62" y="232" font-size="12" fill="#0B6E6E" font-weight="600">智能客服</text>
<rect x="266" y="212" width="200" height="80" rx="6" fill="#E8F5F5" stroke="#0B6E6E" stroke-width="1.5"/><text x="278" y="232" font-size="12" fill="#0B6E6E" font-weight="600">情感分析</text>
<rect x="482" y="212" width="200" height="80" rx="6" fill="#E8F5F5" stroke="#0B6E6E" stroke-width="1.5"/><text x="494" y="232" font-size="12" fill="#0B6E6E" font-weight="600">自动回复</text>
<rect x="698" y="212" width="200" height="80" rx="6" fill="#E8F5F5" stroke="#0B6E6E" stroke-width="1.5"/><text x="710" y="232" font-size="12" fill="#0B6E6E" font-weight="600">反馈管理</text>
<rect x="914" y="212" width="200" height="80" rx="6" fill="#E8F5F5" stroke="#0B6E6E" stroke-width="1.5"/><text x="926" y="232" font-size="12" fill="#0B6E6E" font-weight="600">数据分析</text>
<rect x="50" y="308" width="200" height="80" rx="6" fill="#E8F5F5" stroke="#0B6E6E" stroke-width="1.5"/><text x="62" y="328" font-size="12" fill="#0B6E6E" font-weight="600">库存管理</text>
<rect x="266" y="308" width="200" height="80" rx="6" fill="#E8F5F5" stroke="#0B6E6E" stroke-width="1.5"/><text x="278" y="328" font-size="12" fill="#0B6E6E" font-weight="600">供应链优化</text>
<rect x="482" y="308" width="200" height="80" rx="6" fill="#E8F5F5" stroke="#0B6E6E" stroke-width="1.5"/><text x="494" y="328" font-size="12" fill="#0B6E6E" font-weight="600">财务分析</text>
<rect x="698" y="308" width="200" height="80" rx="6" fill="#E8F5F5" stroke="#0B6E6E" stroke-width="1.5"/><text x="710" y="328" font-size="12" fill="#0B6E6E" font-weight="600">伙伴管理</text>
<rect x="914" y="308" width="200" height="80" rx="6" fill="#E8F5F5" stroke="#0B6E6E" stroke-width="1.5"/><text x="926" y="328" font-size="12" fill="#0B6E6E" font-weight="600">渠道管理</text>
<rect x="50" y="404" width="200" height="80" rx="6" fill="#E8F5F5" stroke="#0B6E6E" stroke-width="1.5"/><text x="62" y="424" font-size="12" fill="#0B6E6E" font-weight="600">联合营销</text>
<rect x="266" y="404" width="200" height="80" rx="6" fill="#E8F5F5" stroke="#0B6E6E" stroke-width="1.5"/><text x="278" y="424" font-size="12" fill="#0B6E6E" font-weight="600">数据共享</text>
</svg>