<?xml version="1.0" encoding="UTF-8" standalone="no"?>
<!DOCTYPE svg PUBLIC "-//W3C//DTD SVG 1.1//EN"
 "http://www.w3.org/Graphics/SVG/1.1/DTD/svg11.dtd">
<!-- Generated by graphviz version 9.0.0 (20230911.1827)
 -->
<!-- Title: ServiceDependencies Pages: 1 -->
<svg width="734pt" height="524pt"
 viewBox="0.00 0.00 733.92 524.41" xmlns="http://www.w3.org/2000/svg" xmlns:xlink="http://www.w3.org/1999/xlink">
<g id="graph0" class="graph" transform="scale(1 1) rotate(0) translate(4 520.41)">
<title>ServiceDependencies</title>
<polygon fill="#fafafa" stroke="none" points="-4,4 -4,-520.41 729.92,-520.41 729.92,4 -4,4"/>
<g id="clust1" class="cluster">
<title>cluster_gateway</title>
<path fill="#fafafa" stroke="#999999" stroke-dasharray="5,2" d="M20,-370.16C20,-370.16 108.3,-370.16 108.3,-370.16 114.3,-370.16 120.3,-376.16 120.3,-382.16 120.3,-382.16 120.3,-442.16 120.3,-442.16 120.3,-448.16 114.3,-454.16 108.3,-454.16 108.3,-454.16 20,-454.16 20,-454.16 14,-454.16 8,-448.16 8,-442.16 8,-442.16 8,-382.16 8,-382.16 8,-376.16 14,-370.16 20,-370.16"/>
<text text-anchor="middle" x="64.15" y="-438.76" font-family="Helvetica,sans-Serif" font-size="12.00">Gateway Layer</text>
</g>
<g id="clust2" class="cluster">
<title>cluster_services</title>
<path fill="#fafafa" stroke="#999999" stroke-dasharray="5,2" d="M174.8,-216.16C174.8,-216.16 483.9,-216.16 483.9,-216.16 489.9,-216.16 495.9,-222.16 495.9,-228.16 495.9,-228.16 495.9,-477.16 495.9,-477.16 495.9,-483.16 489.9,-489.16 483.9,-489.16 483.9,-489.16 174.8,-489.16 174.8,-489.16 168.8,-489.16 162.8,-483.16 162.8,-477.16 162.8,-477.16 162.8,-228.16 162.8,-228.16 162.8,-222.16 168.8,-216.16 174.8,-216.16"/>
<text text-anchor="middle" x="329.35" y="-473.76" font-family="Helvetica,sans-Serif" font-size="12.00">Service Layer</text>
</g>
<g id="clust3" class="cluster">
<title>cluster_infra</title>
<path fill="#fafafa" stroke="#999999" stroke-dasharray="5,2" d="M560.9,-73.16C560.9,-73.16 705.92,-73.16 705.92,-73.16 711.92,-73.16 717.92,-79.16 717.92,-85.16 717.92,-85.16 717.92,-349.16 717.92,-349.16 717.92,-355.16 711.92,-361.16 705.92,-361.16 705.92,-361.16 560.9,-361.16 560.9,-361.16 554.9,-361.16 548.9,-355.16 548.9,-349.16 548.9,-349.16 548.9,-85.16 548.9,-85.16 548.9,-79.16 554.9,-73.16 560.9,-73.16"/>
<text text-anchor="middle" x="633.41" y="-345.76" font-family="Helvetica,sans-Serif" font-size="12.00">Infrastructure</text>
</g>
<!-- api&#45;gateway -->
<g id="node1" class="node">
<title>api&#45;gateway</title>
<path fill="#dbeafe" stroke="black" d="M100.3,-423.74C100.3,-423.74 28,-423.74 28,-423.74 22,-423.74 16,-417.74 16,-411.74 16,-411.74 16,-390.59 16,-390.59 16,-384.59 22,-378.59 28,-378.59 28,-378.59 100.3,-378.59 100.3,-378.59 106.3,-378.59 112.3,-384.59 112.3,-390.59 112.3,-390.59 112.3,-411.74 112.3,-411.74 112.3,-417.74 106.3,-423.74 100.3,-423.74"/>
<text text-anchor="middle" x="64.15" y="-406.09" font-family="Helvetica,sans-Serif" font-size="11.00">api&#45;gateway</text>
<text text-anchor="middle" x="64.15" y="-392.59" font-family="Helvetica,sans-Serif" font-size="11.00">网关</text>
</g>
<!-- auth&#45;service -->
<g id="node2" class="node">
<title>auth&#45;service</title>
<path fill="#dcfce7" stroke="black" d="M274.22,-269.74C274.22,-269.74 201.17,-269.74 201.17,-269.74 195.17,-269.74 189.17,-263.74 189.17,-257.74 189.17,-257.74 189.17,-236.59 189.17,-236.59 189.17,-230.59 195.17,-224.59 201.17,-224.59 201.17,-224.59 274.22,-224.59 274.22,-224.59 280.22,-224.59 286.22,-230.59 286.22,-236.59 286.22,-236.59 286.22,-257.74 286.22,-257.74 286.22,-263.74 280.22,-269.74 274.22,-269.74"/>
<text text-anchor="middle" x="237.7" y="-252.09" font-family="Helvetica,sans-Serif" font-size="11.00">auth&#45;service</text>
<text text-anchor="middle" x="237.7" y="-238.59" font-family="Helvetica,sans-Serif" font-size="11.00">认证服务</text>
</g>
<!-- api&#45;gateway&#45;&gt;auth&#45;service -->
<g id="edge1" class="edge">
<title>api&#45;gateway&#45;&gt;auth&#45;service</title>
<path fill="none" stroke="#666666" d="M78.3,-378.33C94.92,-351.21 125.86,-306.16 162.8,-278.16 167.72,-274.44 173.16,-271.07 178.78,-268.05"/>
<polygon fill="#666666" stroke="#666666" points="180.26,-271.22 187.68,-263.66 177.16,-264.94 180.26,-271.22"/>
<text text-anchor="middle" x="141.55" y="-308.86" font-family="Helvetica,sans-Serif" font-size="9.00">HTTP</text>
</g>
<!-- user&#45;service -->
<g id="node3" class="node">
<title>user&#45;service</title>
<path fill="#dcfce7" stroke="black" d="M273.47,-332.74C273.47,-332.74 201.92,-332.74 201.92,-332.74 195.92,-332.74 189.92,-326.74 189.92,-320.74 189.92,-320.74 189.92,-299.59 189.92,-299.59 189.92,-293.59 195.92,-287.59 201.92,-287.59 201.92,-287.59 273.47,-287.59 273.47,-287.59 279.47,-287.59 285.47,-293.59 285.47,-299.59 285.47,-299.59 285.47,-320.74 285.47,-320.74 285.47,-326.74 279.47,-332.74 273.47,-332.74"/>
<text text-anchor="middle" x="237.7" y="-315.09" font-family="Helvetica,sans-Serif" font-size="11.00">user&#45;service</text>
<text text-anchor="middle" x="237.7" y="-301.59" font-family="Helvetica,sans-Serif" font-size="11.00">用户服务</text>
</g>
<!-- api&#45;gateway&#45;&gt;user&#45;service -->
<g id="edge2" class="edge">
<title>api&#45;gateway&#45;&gt;user&#45;service</title>
<path fill="none" stroke="#666666" d="M99.65,-378.17C118.01,-366.39 141.2,-352.25 162.8,-341.16 168.14,-338.43 173.78,-335.73 179.46,-333.14"/>
<polygon fill="#666666" stroke="#666666" points="180.58,-336.47 188.3,-329.22 177.74,-330.07 180.58,-336.47"/>
<text text-anchor="middle" x="141.55" y="-359.86" font-family="Helvetica,sans-Serif" font-size="9.00">HTTP</text>
</g>
<!-- order&#45;service -->
<g id="node4" class="node">
<title>order&#45;service</title>
<path fill="#dcfce7" stroke="black" d="M276.1,-458.74C276.1,-458.74 199.3,-458.74 199.3,-458.74 193.3,-458.74 187.3,-452.74 187.3,-446.74 187.3,-446.74 187.3,-425.59 187.3,-425.59 187.3,-419.59 193.3,-413.59 199.3,-413.59 199.3,-413.59 276.1,-413.59 276.1,-413.59 282.1,-413.59 288.1,-419.59 288.1,-425.59 288.1,-425.59 288.1,-446.74 288.1,-446.74 288.1,-452.74 282.1,-458.74 276.1,-458.74"/>
<text text-anchor="middle" x="237.7" y="-441.09" font-family="Helvetica,sans-Serif" font-size="11.00">order&#45;service</text>
<text text-anchor="middle" x="237.7" y="-427.59" font-family="Helvetica,sans-Serif" font-size="11.00">订单服务</text>
</g>
<!-- api&#45;gateway&#45;&gt;order&#45;service -->
<g id="edge3" class="edge">
<title>api&#45;gateway&#45;&gt;order&#45;service</title>
<path fill="none" stroke="#666666" d="M112.48,-410.82C131.98,-414.8 154.82,-419.46 175.56,-423.69"/>
<polygon fill="#666666" stroke="#666666" points="174.85,-427.12 185.34,-425.69 176.25,-420.26 174.85,-427.12"/>
<text text-anchor="middle" x="141.55" y="-420.86" font-family="Helvetica,sans-Serif" font-size="9.00">HTTP</text>
</g>
<!-- inventory&#45;service -->
<g id="node5" class="node">
<title>inventory&#45;service</title>
<path fill="#dcfce7" stroke="black" d="M475.9,-395.74C475.9,-395.74 375.85,-395.74 375.85,-395.74 369.85,-395.74 363.85,-389.74 363.85,-383.74 363.85,-383.74 363.85,-362.59 363.85,-362.59 363.85,-356.59 369.85,-350.59 375.85,-350.59 375.85,-350.59 475.9,-350.59 475.9,-350.59 481.9,-350.59 487.9,-356.59 487.9,-362.59 487.9,-362.59 487.9,-383.74 487.9,-383.74 487.9,-389.74 481.9,-395.74 475.9,-395.74"/>
<text text-anchor="middle" x="425.87" y="-378.09" font-family="Helvetica,sans-Serif" font-size="11.00">inventory&#45;service</text>
<text text-anchor="middle" x="425.87" y="-364.59" font-family="Helvetica,sans-Serif" font-size="11.00">库存服务</text>
</g>
<!-- api&#45;gateway&#45;&gt;inventory&#45;service -->
<g id="edge4" class="edge">
<title>api&#45;gateway&#45;&gt;inventory&#45;service</title>
<path fill="none" stroke="#666666" d="M89.41,-424.05C107.92,-439.85 134.91,-459.52 162.8,-468.16 222.99,-486.83 242.78,-480.4 304.6,-468.16 324.05,-464.31 332.01,-465.36 345.85,-451.16 361.47,-435.15 348.88,-420.78 363.85,-404.16 364.01,-403.98 364.18,-403.8 364.35,-403.62"/>
<polygon fill="#666666" stroke="#666666" points="366.44,-406.45 371.49,-397.14 361.73,-401.27 366.44,-406.45"/>
<text text-anchor="middle" x="237.7" y="-481.86" font-family="Helvetica,sans-Serif" font-size="9.00">HTTP</text>
</g>
<!-- payment&#45;service -->
<g id="node6" class="node">
<title>payment&#45;service</title>
<path fill="#dcfce7" stroke="black" d="M474.4,-458.74C474.4,-458.74 377.35,-458.74 377.35,-458.74 371.35,-458.74 365.35,-452.74 365.35,-446.74 365.35,-446.74 365.35,-425.59 365.35,-425.59 365.35,-419.59 371.35,-413.59 377.35,-413.59 377.35,-413.59 474.4,-413.59 474.4,-413.59 480.4,-413.59 486.4,-419.59 486.4,-425.59 486.4,-425.59 486.4,-446.74 486.4,-446.74 486.4,-452.74 480.4,-458.74 474.4,-458.74"/>
<text text-anchor="middle" x="425.87" y="-441.09" font-family="Helvetica,sans-Serif" font-size="11.00">payment&#45;service</text>
<text text-anchor="middle" x="425.87" y="-427.59" font-family="Helvetica,sans-Serif" font-size="11.00">支付服务</text>
</g>
<!-- api&#45;gateway&#45;&gt;payment&#45;service -->
<g id="edge5" class="edge">
<title>api&#45;gateway&#45;&gt;payment&#45;service</title>
<path fill="none" stroke="#666666" d="M79.35,-423.92C95.89,-447.76 125.75,-483.24 162.8,-494.16 223.25,-511.99 243.16,-508.2 304.6,-494.16 330.26,-488.3 356.81,-476.23 378.42,-464.62"/>
<polygon fill="#666666" stroke="#666666" points="379.91,-467.79 386.97,-459.89 376.52,-461.67 379.91,-467.79"/>
<text text-anchor="middle" x="237.7" y="-507.86" font-family="Helvetica,sans-Serif" font-size="9.00">HTTP</text>
</g>
<!-- notification&#45;service -->
<g id="node7" class="node">
<title>notification&#45;service</title>
<path fill="#dcfce7" stroke="black" d="M292.6,-395.74C292.6,-395.74 182.8,-395.74 182.8,-395.74 176.8,-395.74 170.8,-389.74 170.8,-383.74 170.8,-383.74 170.8,-362.59 170.8,-362.59 170.8,-356.59 176.8,-350.59 182.8,-350.59 182.8,-350.59 292.6,-350.59 292.6,-350.59 298.6,-350.59 304.6,-356.59 304.6,-362.59 304.6,-362.59 304.6,-383.74 304.6,-383.74 304.6,-389.74 298.6,-395.74 292.6,-395.74"/>
<text text-anchor="middle" x="237.7" y="-378.09" font-family="Helvetica,sans-Serif" font-size="11.00">notification&#45;service</text>
<text text-anchor="middle" x="237.7" y="-364.59" font-family="Helvetica,sans-Serif" font-size="11.00">通知服务</text>
</g>
<!-- api&#45;gateway&#45;&gt;notification&#45;service -->
<g id="edge6" class="edge">
<title>api&#45;gateway&#45;&gt;notification&#45;service</title>
<path fill="none" stroke="#666666" d="M112.79,-391.99C118.68,-390.92 124.63,-389.87 130.3,-388.91 139.63,-387.35 149.44,-385.78 159.16,-384.28"/>
<polygon fill="#666666" stroke="#666666" points="159.66,-387.75 169.02,-382.78 158.6,-380.83 159.66,-387.75"/>
<text text-anchor="middle" x="141.55" y="-390.86" font-family="Helvetica,sans-Serif" font-size="9.00">HTTP</text>
</g>
<!-- mysql -->
<g id="node8" class="node">
<title>mysql</title>
<path fill="#fef9c3" stroke="black" d="M664.31,-217.56C664.31,-220.68 650.46,-223.21 633.41,-223.21 616.36,-223.21 602.51,-220.68 602.51,-217.56 602.51,-217.56 602.51,-166.77 602.51,-166.77 602.51,-163.65 616.36,-161.12 633.41,-161.12 650.46,-161.12 664.31,-163.65 664.31,-166.77 664.31,-166.77 664.31,-217.56 664.31,-217.56"/>
<path fill="none" stroke="black" d="M664.31,-217.56C664.31,-214.45 650.46,-211.92 633.41,-211.92 616.36,-211.92 602.51,-214.45 602.51,-217.56"/>
<text text-anchor="middle" x="633.41" y="-197.09" font-family="Helvetica,sans-Serif" font-size="11.00">mysql</text>
<text text-anchor="middle" x="633.41" y="-183.59" font-family="Helvetica,sans-Serif" font-size="11.00">存储</text>
</g>
<!-- auth&#45;service&#45;&gt;mysql -->
<g id="edge9" class="edge">
<title>auth&#45;service&#45;&gt;mysql</title>
<path fill="none" stroke="#666666" d="M245.36,-224.4C259.26,-181.57 295.87,-89.98 363.85,-52.91 415.38,-24.82 444.61,-24.39 495.9,-52.91 527.56,-70.52 523.51,-89.37 538.9,-122.16 544.87,-134.89 539.6,-141.63 548.9,-152.16 560.11,-164.87 576.25,-173.9 591.36,-180.12"/>
<polygon fill="#666666" stroke="#666666" points="590.08,-183.38 600.67,-183.63 592.55,-176.83 590.08,-183.38"/>
<text text-anchor="middle" x="425.87" y="-54.86" font-family="Helvetica,sans-Serif" font-size="9.00">R/W</text>
</g>
<!-- redis -->
<g id="node9" class="node">
<title>redis</title>
<path fill="#fef9c3" stroke="black" d="M661.31,-137.56C661.31,-140.68 648.81,-143.21 633.41,-143.21 618.02,-143.21 605.51,-140.68 605.51,-137.56 605.51,-137.56 605.51,-86.77 605.51,-86.77 605.51,-83.65 618.02,-81.12 633.41,-81.12 648.81,-81.12 661.31,-83.65 661.31,-86.77 661.31,-86.77 661.31,-137.56 661.31,-137.56"/>
<path fill="none" stroke="black" d="M661.31,-137.56C661.31,-134.45 648.81,-131.92 633.41,-131.92 618.02,-131.92 605.51,-134.45 605.51,-137.56"/>
<text text-anchor="middle" x="633.41" y="-117.09" font-family="Helvetica,sans-Serif" font-size="11.00">redis</text>
<text text-anchor="middle" x="633.41" y="-103.59" font-family="Helvetica,sans-Serif" font-size="11.00">缓存</text>
</g>
<!-- auth&#45;service&#45;&gt;redis -->
<g id="edge15" class="edge">
<title>auth&#45;service&#45;&gt;redis</title>
<path fill="none" stroke="#666666" d="M242.06,-224.1C250.92,-173.19 280.33,-52.79 363.85,-15.91 417.54,7.79 439.96,1.82 495.9,-15.91 534.39,-28.12 571.4,-55.53 597.15,-77.99"/>
<polygon fill="#666666" stroke="#666666" points="594.52,-80.33 604.31,-84.38 599.18,-75.11 594.52,-80.33"/>
<text text-anchor="middle" x="425.87" y="-17.86" font-family="Helvetica,sans-Serif" font-size="9.00">session</text>
</g>
<!-- user&#45;service&#45;&gt;mysql -->
<g id="edge10" class="edge">
<title>user&#45;service&#45;&gt;mysql</title>
<path fill="none" stroke="#666666" d="M285.77,-295.12C292.98,-290.97 299.66,-285.73 304.6,-279.16 335.16,-238.51 291.98,-206.77 322.6,-166.16 334.78,-150.01 344.1,-151.3 363.85,-146.91 421.15,-134.2 437.96,-137.56 495.9,-146.91 529.05,-152.27 565.04,-164.48 591.74,-174.87"/>
<polygon fill="#666666" stroke="#666666" points="590.22,-178.04 600.81,-178.48 592.81,-171.53 590.22,-178.04"/>
<text text-anchor="middle" x="425.87" y="-148.86" font-family="Helvetica,sans-Serif" font-size="9.00">R/W</text>
</g>
<!-- user&#45;service&#45;&gt;redis -->
<g id="edge16" class="edge">
<title>user&#45;service&#45;&gt;redis</title>
<path fill="none" stroke="#666666" d="M285.9,-295.21C293.1,-291.05 299.74,-285.79 304.6,-279.16 339.88,-231.06 289.11,-195.53 322.6,-146.16 334.41,-128.75 343.61,-128.66 363.85,-122.91 443.14,-100.4 540.87,-103.84 593.85,-108.13"/>
<polygon fill="#666666" stroke="#666666" points="593.3,-111.6 603.56,-108.98 593.91,-104.63 593.3,-111.6"/>
<text text-anchor="middle" x="425.87" y="-124.86" font-family="Helvetica,sans-Serif" font-size="9.00">cache</text>
</g>
<!-- order&#45;service&#45;&gt;inventory&#45;service -->
<g id="edge7" class="edge">
<title>order&#45;service&#45;&gt;inventory&#45;service</title>
<path fill="none" stroke="#666666" stroke-dasharray="5,2" d="M288.59,-419.28C308.31,-412.61 331.35,-404.81 352.82,-397.55"/>
<polygon fill="#666666" stroke="#666666" points="353.76,-400.93 362.11,-394.41 351.51,-394.3 353.76,-400.93"/>
<text text-anchor="middle" x="334.22" y="-408.86" font-family="Helvetica,sans-Serif" font-size="9.00">gRPC</text>
</g>
<!-- order&#45;service&#45;&gt;payment&#45;service -->
<g id="edge8" class="edge">
<title>order&#45;service&#45;&gt;payment&#45;service</title>
<path fill="none" stroke="#666666" d="M288.59,-436.16C308.5,-436.16 331.78,-436.16 353.42,-436.16"/>
<polygon fill="#666666" stroke="#666666" points="353.39,-439.66 363.39,-436.16 353.39,-432.66 353.39,-439.66"/>
<text text-anchor="middle" x="334.22" y="-438.86" font-family="Helvetica,sans-Serif" font-size="9.00">gRPC</text>
</g>
<!-- order&#45;service&#45;&gt;mysql -->
<g id="edge11" class="edge">
<title>order&#45;service&#45;&gt;mysql</title>
<path fill="none" stroke="#666666" d="M288.53,-418.71C294.55,-414.97 300.14,-410.5 304.6,-405.16 324.39,-381.52 307.49,-365.04 322.6,-338.16 335.62,-315.01 341.36,-309.05 363.85,-294.91 416.08,-262.09 452.87,-296.37 495.9,-252.16 506.89,-240.88 494.31,-228.83 505.9,-218.16 528.64,-197.24 563.56,-191.31 590.96,-190.3"/>
<polygon fill="#666666" stroke="#666666" points="590.72,-193.8 600.67,-190.15 590.62,-186.8 590.72,-193.8"/>
<text text-anchor="middle" x="425.87" y="-296.86" font-family="Helvetica,sans-Serif" font-size="9.00">R/W</text>
</g>
<!-- mq -->
<g id="node10" class="node">
<title>mq</title>
<path fill="#fce7f3" stroke="black" d="M697.92,-331.31C697.92,-331.31 600.21,-331.31 600.21,-331.31 594.21,-331.31 586.25,-325.65 584.28,-319.98 584.28,-319.98 560.83,-252.35 560.83,-252.35 558.87,-246.68 562.9,-241.01 568.9,-241.01 568.9,-241.01 666.61,-241.01 666.61,-241.01 672.61,-241.01 680.58,-246.68 682.55,-252.35 682.55,-252.35 705.99,-319.98 705.99,-319.98 707.96,-325.65 703.92,-331.31 697.92,-331.31"/>
<text text-anchor="middle" x="633.41" y="-291.09" font-family="Helvetica,sans-Serif" font-size="11.00">mq</text>
<text text-anchor="middle" x="633.41" y="-277.59" font-family="Helvetica,sans-Serif" font-size="11.00">消息队列</text>
</g>
<!-- order&#45;service&#45;&gt;mq -->
<g id="edge18" class="edge">
<title>order&#45;service&#45;&gt;mq</title>
<path fill="none" stroke="#666666" d="M288.43,-415.89C294.12,-412.68 299.65,-409.1 304.6,-405.16 337.92,-378.67 325.56,-348.5 363.85,-329.91 416.65,-304.29 442.88,-304.75 495.9,-329.91 502.25,-332.93 499.55,-339.15 505.9,-342.16 519.15,-348.45 524.76,-346.07 538.9,-342.16 551.17,-338.77 563.45,-333.29 574.89,-327.06"/>
<polygon fill="#666666" stroke="#666666" points="576.47,-330.19 583.39,-322.18 572.98,-324.12 576.47,-330.19"/>
<text text-anchor="middle" x="425.87" y="-331.86" font-family="Helvetica,sans-Serif" font-size="9.00">publish</text>
</g>
<!-- inventory&#45;service&#45;&gt;mysql -->
<g id="edge12" class="edge">
<title>inventory&#45;service&#45;&gt;mysql</title>
<path fill="none" stroke="#666666" d="M480.89,-350.25C486.52,-346.19 491.71,-341.52 495.9,-336.16 507,-321.99 495.61,-311.69 505.9,-296.91 516.08,-282.3 528.83,-288.86 538.9,-274.16 549.74,-258.33 536.85,-247.1 548.9,-232.16 559.81,-218.65 576.39,-209.41 591.91,-203.26"/>
<polygon fill="#666666" stroke="#666666" points="592.76,-206.67 600.98,-199.98 590.38,-200.09 592.76,-206.67"/>
<text text-anchor="middle" x="522.4" y="-298.86" font-family="Helvetica,sans-Serif" font-size="9.00">R/W</text>
</g>
<!-- inventory&#45;service&#45;&gt;redis -->
<g id="edge17" class="edge">
<title>inventory&#45;service&#45;&gt;redis</title>
<path fill="none" stroke="#666666" d="M482.17,-350.21C487.44,-346.19 492.19,-341.53 495.9,-336.16 515.1,-308.42 497.41,-293.57 505.9,-260.91 518.98,-210.61 513.46,-190.18 548.9,-152.16 561.19,-138.98 578.74,-129.67 594.57,-123.37"/>
<polygon fill="#666666" stroke="#666666" points="595.58,-126.73 603.76,-120 593.17,-120.16 595.58,-126.73"/>
<text text-anchor="middle" x="522.4" y="-262.86" font-family="Helvetica,sans-Serif" font-size="9.00">cache</text>
</g>
<!-- payment&#45;service&#45;&gt;mysql -->
<g id="edge13" class="edge">
<title>payment&#45;service&#45;&gt;mysql</title>
<path fill="none" stroke="#666666" d="M486.82,-413.97C490.16,-411.34 493.24,-408.42 495.9,-405.16 508.66,-389.56 498.22,-379.56 505.9,-360.91 516.43,-335.34 529.55,-334.19 538.9,-308.16 550.42,-276.1 528.9,-259.74 548.9,-232.16 559.18,-218 575.82,-208.64 591.55,-202.57"/>
<polygon fill="#666666" stroke="#666666" points="592.48,-205.96 600.78,-199.37 590.18,-199.34 592.48,-205.96"/>
<text text-anchor="middle" x="522.4" y="-362.86" font-family="Helvetica,sans-Serif" font-size="9.00">R/W</text>
</g>
<!-- payment&#45;service&#45;&gt;mq -->
<g id="edge19" class="edge">
<title>payment&#45;service&#45;&gt;mq</title>
<path fill="none" stroke="#666666" d="M481.82,-413.09C486.67,-410.58 491.43,-407.92 495.9,-405.16 525.82,-386.71 555.65,-361.67 579.76,-339.33"/>
<polygon fill="#666666" stroke="#666666" points="582.04,-341.98 586.93,-332.59 577.25,-336.88 582.04,-341.98"/>
<text text-anchor="middle" x="522.4" y="-399.86" font-family="Helvetica,sans-Serif" font-size="9.00">publish</text>
</g>
<!-- notification&#45;service&#45;&gt;mysql -->
<g id="edge14" class="edge">
<title>notification&#45;service&#45;&gt;mysql</title>
<path fill="none" stroke="#666666" stroke-dasharray="1,5" d="M296.64,-350.33C299.57,-347.87 302.26,-345.15 304.6,-342.16 329.98,-309.68 303.83,-287.87 322.6,-251.16 334.84,-227.23 339.74,-218.81 363.85,-206.91 437.19,-170.72 535.89,-177.15 590.92,-184.82"/>
<polygon fill="#666666" stroke="#666666" points="590.39,-188.28 600.8,-186.29 591.42,-181.35 590.39,-188.28"/>
<text text-anchor="middle" x="425.87" y="-208.86" font-family="Helvetica,sans-Serif" font-size="9.00">R/W</text>
</g>
<!-- mq&#45;&gt;notification&#45;service -->
<g id="edge20" class="edge">
<title>mq&#45;&gt;notification&#45;service</title>
<path fill="none" stroke="#666666" d="M559.41,-249.6C502.8,-226.76 424.1,-207.46 363.85,-240.91 333.53,-257.76 339.71,-276.99 322.6,-307.16 313.97,-322.38 317.19,-330.02 304.6,-342.16 304.32,-342.44 304.03,-342.71 303.75,-342.97"/>
<polygon fill="#666666" stroke="#666666" points="301.56,-340.24 295.94,-349.23 305.94,-345.7 301.56,-340.24"/>
<text text-anchor="middle" x="425.87" y="-242.86" font-family="Helvetica,sans-Serif" font-size="9.00">consume</text>
</g>
</g>
</svg>
