<!--
  IFQ Design Skills · Hand-drawn SVG Icon Pack
  ---------------------------------------------
  24 icons with hand-sketched, slightly wobbly stroke character.
  Stylistic rules:
    - stroke: currentColor; stroke-width: 1.8; stroke-linecap: round; stroke-linejoin: round;
    - fill: none; on all construction paths
    - slight jitter in path coordinates to feel hand-drawn
    - 24×24 viewBox; designed to read at 16–48px
  Usage (sprite):
    <svg class="ifq-icon"><use href="assets/ifq-brand/icons/hand-drawn-icons.svg#i-spark"/></svg>
  Tailwind/CSS friendly:
    .ifq-icon { width:1em; height:1em; stroke:currentColor; fill:none; }
-->
<svg xmlns="http://www.w3.org/2000/svg" style="display:none" aria-hidden="true">
  <defs>
    <style>
      symbol { overflow: visible; }
      symbol path, symbol circle, symbol rect, symbol line, symbol polyline, symbol polygon {
        fill: none;
        stroke: currentColor;
        stroke-width: 1.8;
        stroke-linecap: round;
        stroke-linejoin: round;
      }
    </style>
  </defs>

  <!-- 1. spark · IFQ signature sparkle -->
  <symbol id="i-spark" viewBox="0 0 24 24">
    <path d="M12 3.2 L13.6 9.8 L20.2 11.6 L13.4 13.3 L12.1 20.4 L10.5 13.4 L3.7 12.1 L10.5 10.3 Z"/>
    <path d="M18.5 4.8 L19.1 6.4 L20.7 6.9 L19.1 7.5 L18.5 9 L17.9 7.5 L16.4 6.9 L17.9 6.4 Z"/>
  </symbol>

  <!-- 2. brush · painterly pen nib -->
  <symbol id="i-brush" viewBox="0 0 24 24">
    <path d="M4.2 19.6 C 5 17 7 15.6 9.8 15.2 C 10.6 17.8 9.6 20 7 20.6 C 5.4 20.9 4.4 20.4 4.2 19.6 Z"/>
    <path d="M10 14.7 L18.6 6.2 C 19.2 5.6 20.1 5.6 20.7 6.1 C 21.2 6.7 21.2 7.6 20.6 8.2 L12 16.7"/>
  </symbol>

  <!-- 3. pencil -->
  <symbol id="i-pencil" viewBox="0 0 24 24">
    <path d="M3.4 20.7 L4.5 16.5 L15.8 5.1 C 16.4 4.6 17.3 4.6 17.9 5.2 L19.1 6.4 C 19.7 7 19.7 7.9 19.1 8.5 L7.8 19.8 L3.4 20.7 Z"/>
    <path d="M14.3 6.6 L17.6 9.9"/>
  </symbol>

  <!-- 4. frame · device frame -->
  <symbol id="i-frame" viewBox="0 0 24 24">
    <rect x="6" y="3.3" width="12" height="17.4" rx="2.4"/>
    <line x1="10" y1="18.4" x2="14" y2="18.4"/>
    <path d="M10.5 5 C 11 5.6 13 5.6 13.5 5"/>
  </symbol>

  <!-- 5. layers -->
  <symbol id="i-layers" viewBox="0 0 24 24">
    <path d="M3.8 8 L12 4 L20.2 8 L12 12 Z"/>
    <path d="M3.8 12.2 L12 16.2 L20.2 12.2"/>
    <path d="M3.8 16.2 L12 20.2 L20.2 16.2"/>
  </symbol>

  <!-- 6. play / motion -->
  <symbol id="i-play" viewBox="0 0 24 24">
    <circle cx="12" cy="12" r="9"/>
    <path d="M10.2 8.2 L16 12 L10.2 15.8 Z"/>
  </symbol>

  <!-- 7. record -->
  <symbol id="i-record" viewBox="0 0 24 24">
    <circle cx="12" cy="12" r="9"/>
    <circle cx="12" cy="12" r="3.6"/>
  </symbol>

  <!-- 8. film · motion design -->
  <symbol id="i-film" viewBox="0 0 24 24">
    <rect x="3.4" y="5" width="17.2" height="14" rx="1.4"/>
    <line x1="7.2" y1="5" x2="7.2" y2="19"/>
    <line x1="16.8" y1="5" x2="16.8" y2="19"/>
    <line x1="3.6" y1="9" x2="7" y2="9"/>
    <line x1="17" y1="9" x2="20.4" y2="9"/>
    <line x1="3.6" y1="15" x2="7" y2="15"/>
    <line x1="17" y1="15" x2="20.4" y2="15"/>
  </symbol>

  <!-- 9. slides / deck -->
  <symbol id="i-deck" viewBox="0 0 24 24">
    <rect x="3.4" y="5.2" width="17.2" height="11.2" rx="1.4"/>
    <line x1="8" y1="20" x2="16" y2="20"/>
    <line x1="12" y1="16.4" x2="12" y2="20"/>
  </symbol>

  <!-- 10. grid · canvas / variants -->
  <symbol id="i-grid" viewBox="0 0 24 24">
    <rect x="3.6" y="3.6" width="7" height="7" rx="1"/>
    <rect x="13.4" y="3.6" width="7" height="7" rx="1"/>
    <rect x="3.6" y="13.4" width="7" height="7" rx="1"/>
    <rect x="13.4" y="13.4" width="7" height="7" rx="1"/>
  </symbol>

  <!-- 11. palette -->
  <symbol id="i-palette" viewBox="0 0 24 24">
    <path d="M12 3.2 C 7 3.2 3.2 7 3.2 12 C 3.2 16.6 7 20.2 11.4 20.2 C 12.8 20.2 13.2 19 12.6 18 C 12 17 12.6 15.8 14 15.8 L16 15.8 C 18.8 15.8 20.8 13.6 20.8 10.8 C 20.8 6.6 16.8 3.2 12 3.2 Z"/>
    <circle cx="7.6" cy="10.4" r="1"/>
    <circle cx="11.6" cy="7" r="1"/>
    <circle cx="15.6" cy="8.4" r="1"/>
    <circle cx="17.6" cy="12.2" r="1"/>
  </symbol>

  <!-- 12. eyedropper -->
  <symbol id="i-eyedropper" viewBox="0 0 24 24">
    <path d="M15 4.4 C 15.8 3.6 17.2 3.6 18 4.4 L19.6 6 C 20.4 6.8 20.4 8.2 19.6 9 L16.6 12 L12 7.4 Z"/>
    <path d="M12 7.4 L4.8 14.6 L4 19 L8.4 18.2 L16.6 12"/>
  </symbol>

  <!-- 13. type / A -->
  <symbol id="i-type" viewBox="0 0 24 24">
    <path d="M5 20 L12 4.2 L19 20"/>
    <line x1="7.8" y1="14.6" x2="16.2" y2="14.6"/>
  </symbol>

  <!-- 14. typography serif -->
  <symbol id="i-serif" viewBox="0 0 24 24">
    <path d="M6 5 L18 5"/>
    <path d="M12 5 L12 20"/>
    <path d="M9 20 L15 20"/>
  </symbol>

  <!-- 15. cursor -->
  <symbol id="i-cursor" viewBox="0 0 24 24">
    <path d="M5.2 4.6 L13.4 20.2 L15.4 13.6 L21.2 11.2 Z"/>
  </symbol>

  <!-- 16. hand / drag -->
  <symbol id="i-hand" viewBox="0 0 24 24">
    <path d="M8.2 14 L8.2 6.4 C 8.2 5.5 8.9 4.8 9.8 4.8 C 10.7 4.8 11.4 5.5 11.4 6.4 L11.4 11.6"/>
    <path d="M11.4 11 L11.4 5.4 C 11.4 4.5 12.1 3.8 13 3.8 C 13.9 3.8 14.6 4.5 14.6 5.4 L14.6 12"/>
    <path d="M14.6 11.8 L14.6 6.8 C 14.6 5.9 15.3 5.2 16.2 5.2 C 17.1 5.2 17.8 5.9 17.8 6.8 L17.8 15 C 17.8 17.8 15.6 20.4 12.2 20.4 C 9.4 20.4 7 18.6 6 16 L4.8 13 C 4.5 12.1 5.1 11.2 6 11.2 C 6.5 11.2 7 11.5 7.2 12 L8.2 14"/>
  </symbol>

  <!-- 17. sparkles · AI -->
  <symbol id="i-sparkles" viewBox="0 0 24 24">
    <path d="M10 4 L11.4 8.4 L15.8 9.8 L11.4 11.2 L10 15.6 L8.6 11.2 L4.2 9.8 L8.6 8.4 Z"/>
    <path d="M17 13 L17.8 15.2 L20 16 L17.8 16.8 L17 19 L16.2 16.8 L14 16 L16.2 15.2 Z"/>
  </symbol>

  <!-- 18. radar · review -->
  <symbol id="i-radar" viewBox="0 0 24 24">
    <polygon points="12,3.4 19.8,8.4 17,18 7,18 4.2,8.4"/>
    <polygon points="12,7.8 16.2,10.8 14.6,16 9.4,16 7.8,10.8"/>
    <line x1="12" y1="3.4" x2="12" y2="18"/>
    <line x1="4.2" y1="8.4" x2="19.8" y2="8.4"/>
  </symbol>

  <!-- 19. compass · design advisor -->
  <symbol id="i-compass" viewBox="0 0 24 24">
    <circle cx="12" cy="12" r="8.8"/>
    <path d="M15 9 L10.8 13.2 L9 15 L13.2 10.8 Z"/>
  </symbol>

  <!-- 20. lightbulb / idea -->
  <symbol id="i-idea" viewBox="0 0 24 24">
    <path d="M9 17 L15 17"/>
    <path d="M10 19.8 L14 19.8"/>
    <path d="M8.4 13.6 C 6.8 12.4 5.8 10.6 5.8 8.6 C 5.8 5.2 8.6 2.4 12 2.4 C 15.4 2.4 18.2 5.2 18.2 8.6 C 18.2 10.6 17.2 12.4 15.6 13.6 L15.6 17 L8.4 17 Z"/>
  </symbol>

  <!-- 21. rocket · launch -->
  <symbol id="i-rocket" viewBox="0 0 24 24">
    <path d="M12 2.8 C 15.4 5.8 17 9.2 17 13 L17 17 L7 17 L7 13 C 7 9.2 8.6 5.8 12 2.8 Z"/>
    <circle cx="12" cy="10.6" r="1.6"/>
    <path d="M7 17 L4 20 L7 19.4 Z"/>
    <path d="M17 17 L20 20 L17 19.4 Z"/>
  </symbol>

  <!-- 22. sparkle check -->
  <symbol id="i-check" viewBox="0 0 24 24">
    <path d="M4.4 12.6 L9.4 17.6 L19.6 7.4"/>
  </symbol>

  <!-- 23. link / chain -->
  <symbol id="i-link" viewBox="0 0 24 24">
    <path d="M10.2 13.8 C 9 12.6 9 10.6 10.2 9.4 L13.4 6.2 C 14.6 5 16.6 5 17.8 6.2 C 19 7.4 19 9.4 17.8 10.6 L16 12.4"/>
    <path d="M13.8 10.2 C 15 11.4 15 13.4 13.8 14.6 L10.6 17.8 C 9.4 19 7.4 19 6.2 17.8 C 5 16.6 5 14.6 6.2 13.4 L8 11.6"/>
  </symbol>

  <!-- 24. hand-drawn arrow · next-step -->
  <symbol id="i-arrow" viewBox="0 0 24 24">
    <path d="M3.6 12.2 C 7.4 11.8 15.4 11.6 20.2 12"/>
    <path d="M15.8 7.2 L20.4 12 L15.4 16.6"/>
  </symbol>

</svg>
