<svg xmlns="http://www.w3.org/2000/svg" viewBox="0 0 64 64" width="64" height="64">
  <defs>
    <linearGradient id="icoHatGold" x1="0%" y1="0%" x2="100%" y2="100%">
      <stop offset="0%" stop-color="#D4A843"/>
      <stop offset="50%" stop-color="#F0D080"/>
      <stop offset="100%" stop-color="#D4A843"/>
    </linearGradient>
    <linearGradient id="icoBody" x1="0%" y1="0%" x2="0%" y2="100%">
      <stop offset="0%" stop-color="#0F2040"/>
      <stop offset="100%" stop-color="#0A1628"/>
    </linearGradient>
  </defs>

  <!-- Small tentacle hints at bottom -->
  <path d="M18 42 Q14 50 12 56 Q11 59 13 57 Q15 54 17 48 Q18 45 19 43" fill="#0A1628" opacity="0.7"/>
  <path d="M22 44 Q19 52 17 58 Q16 61 18 59 Q20 55 22 50 Q23 46 23 44" fill="#0D1D35" opacity="0.8"/>
  <path d="M27 45 Q25 53 24 58 Q23 61 25 59 Q27 55 28 50 Q28 47 28 45" fill="#0F2040"/>

  <path d="M46 42 Q50 50 52 56 Q53 59 51 57 Q49 54 47 48 Q46 45 45 43" fill="#0A1628" opacity="0.7"/>
  <path d="M42 44 Q45 52 47 58 Q48 61 46 59 Q44 55 42 50 Q41 46 41 44" fill="#0D1D35" opacity="0.8"/>
  <path d="M37 45 Q39 53 40 58 Q41 61 39 59 Q37 55 36 50 Q36 47 36 45" fill="#0F2040"/>

  <!-- Two short center tentacles -->
  <path d="M30 46 Q29 52 29 57 Q29 60 31 58 Q32 54 31 49 Q31 47 30 46" fill="#0F2040"/>
  <path d="M34 46 Q35 52 35 57 Q35 60 33 58 Q32 54 33 49 Q33 47 34 46" fill="#0F2040"/>

  <!-- Octopus Head -->
  <ellipse cx="32" cy="34" rx="16" ry="14" fill="url(#icoBody)"/>

  <!-- Head highlight -->
  <ellipse cx="29" cy="30" rx="8" ry="6" fill="#0F2240" opacity="0.4"/>

  <!-- Eyes -->
  <ellipse cx="26" cy="36" rx="3.5" ry="4" fill="#071020"/>
  <ellipse cx="38" cy="36" rx="3.5" ry="4" fill="#071020"/>
  <ellipse cx="26" cy="36" rx="2.5" ry="3" fill="#00BCD4"/>
  <ellipse cx="38" cy="36" rx="2.5" ry="3" fill="#00BCD4"/>
  <!-- Pupils -->
  <ellipse cx="27" cy="35.5" rx="1.2" ry="1.8" fill="#0A1628"/>
  <ellipse cx="39" cy="35.5" rx="1.2" ry="1.8" fill="#0A1628"/>
  <!-- Eye shine -->
  <circle cx="25" cy="34.5" r="0.8" fill="white" opacity="0.7"/>
  <circle cx="37" cy="34.5" r="0.8" fill="white" opacity="0.7"/>

  <!-- Tricorn Hat -->
  <path d="M14 28 Q18 32 32 31 Q46 32 50 28 Q48 26 32 27 Q16 26 14 28Z" fill="#0A1628" stroke="#D4A843" stroke-width="0.5"/>

  <!-- Hat crown -->
  <path d="M19 28 Q20 18 32 15 Q44 18 45 28 Q39 26 32 26 Q25 26 19 28Z" fill="#0A1628"/>

  <!-- Hat folds -->
  <path d="M14 28 Q12 22 18 18 Q20 19 19 28Z" fill="#0D1D35"/>
  <path d="M50 28 Q52 22 46 18 Q44 19 45 28Z" fill="#0D1D35"/>

  <!-- Gold trim -->
  <path d="M14 28 Q18 31 32 30 Q46 31 50 28" fill="none" stroke="url(#icoHatGold)" stroke-width="1.2"/>
  <path d="M19 27 Q20 19 32 16 Q44 19 45 27" fill="none" stroke="url(#icoHatGold)" stroke-width="0.8"/>

  <!-- Hat cockade -->
  <circle cx="32" cy="20" r="2.2" fill="#D4A843"/>
  <circle cx="32" cy="20" r="1.3" fill="#0A1628"/>
  <circle cx="32" cy="20" r="0.6" fill="#D4A843"/>

  <!-- Feather plume -->
  <path d="M32 18 Q33.5 14 35 11 Q35.5 9.5 34.5 10.5 Q33.5 12 32 16" fill="#D4A843" opacity="0.9"/>
  <path d="M32 18 Q31 15 32 12 Q32.3 10.5 31 11.5 Q30.2 13 31 17" fill="#F0D080" opacity="0.7"/>
</svg>