<svg viewBox="-6 -22 132 142" fill="none" xmlns="http://www.w3.org/2000/svg">
  <!-- Body -->
  <path d="M60 10 C30 10 15 35 15 55 C15 75 30 95 45 100 L45 110 L55 110 L55 100 C55 100 60 102 65 100 L65 110 L75 110 L75 100 C90 95 105 75 105 55 C105 35 90 10 60 10Z" fill="url(#fg)"/>
  <!-- Left Claw -->
  <g transform-origin="22 52">
    <path d="M22 48 C14 42 4 42 2 48 C0 52 6 54 14 52 Z" fill="url(#fg)"/>
    <path d="M22 56 C14 62 4 62 2 56 C0 52 6 50 14 52 Z" fill="url(#fg)"/>
    <path d="M15 49 Q20 52 15 55 L22 56 L22 48 Z" fill="url(#fg)"/>
  </g>
  <!-- Right Claw -->
  <g transform-origin="98 52">
    <path d="M98 48 C106 42 116 42 118 48 C120 52 114 54 106 52 Z" fill="url(#fg)"/>
    <path d="M98 56 C106 62 116 62 118 56 C120 52 114 50 106 52 Z" fill="url(#fg)"/>
    <path d="M105 49 Q100 52 105 55 L98 56 L98 48 Z" fill="url(#fg)"/>
  </g>
  <!-- Antenna -->
  <path d="M46 12 Q30 -14 16 -10" stroke="#e0475a" stroke-width="2.5" stroke-linecap="round"/>
  <path d="M74 12 Q94 -20 112 -16" stroke="#e0475a" stroke-width="2.5" stroke-linecap="round"/>
  <!-- Graduation cap -->
  <g transform="rotate(-8, 60, 10)">
    <path d="M33 20 Q33 2 60 -2 Q87 2 87 20 Z" fill="#1a2235"/>
    <path d="M33 17 L33 21 Q33 23 60 24 Q87 23 87 21 L87 17 Q87 19 60 20 Q33 19 33 17 Z" fill="#141c2e"/>
    <polygon points="60,-12 112,1 60,10 8,1" fill="#131a2b"/>
    <polygon points="8,1 60,10 112,1 112,3.5 60,12.5 8,3.5" fill="#0b1018"/>
    <circle cx="60" cy="-2" r="3.5" fill="#d4a04a"/>
    <!-- Tassel -->
    <path d="M60 -2 Q82 -10 96 12 Q100 24 97 36" stroke="#d4a04a" stroke-width="2" fill="none" stroke-linecap="round"/>
    <rect x="94" y="36" width="6" height="12" rx="1.5" fill="#d4a04a"/>
  </g>
  <!-- Eyes -->
  <circle cx="45" cy="35" r="6" fill="#050810"/>
  <circle cx="75" cy="35" r="6" fill="#050810"/>
  <circle cx="46" cy="34" r="2.5" fill="#2dd4b8"/>
  <circle cx="76" cy="34" r="2.5" fill="#2dd4b8"/>
  <defs>
    <linearGradient id="fg" x1="0%" y1="0%" x2="100%" y2="100%">
      <stop offset="0%" stop-color="#e0475a"/>
      <stop offset="100%" stop-color="#991b1b"/>
    </linearGradient>
  </defs>
</svg>
