<svg xmlns="http://www.w3.org/2000/svg" width="32" height="32" viewBox="0 0 32 32">
  <rect width="32" height="32" rx="6" fill="#3B99FC"/>
  <path d="M9.5 12.5C12.8 9.2 18.2 9.2 21.5 12.5L22 13L24.5 10.5C19.8 5.8 12.2 5.8 7.5 10.5L10 13L9.5 12.5Z" fill="#fff"/>
  <path d="M24.5 13L22 15.5C22 15.5 22.5 16 22.5 16.5C22.5 17 22 17.5 22 17.5L24.5 20C26.5 18 26.5 15 24.5 13Z" fill="#fff"/>
  <path d="M7.5 13L10 15.5C10 15.5 9.5 16 9.5 16.5C9.5 17 10 17.5 10 17.5L7.5 20C5.5 18 5.5 15 7.5 13Z" fill="#fff"/>
  <path d="M10 20.5L12.5 18C14.5 20 17.5 20 19.5 18L22 20.5C18 24.5 14 24.5 10 20.5Z" fill="#fff"/>
</svg>
