<svg xmlns="http://www.w3.org/2000/svg" viewBox="0 0 400 400" width="400" height="400">
  <!-- Background -->
  <rect width="400" height="400" fill="#1a1a2e"/>
  
  <!-- Dragon Body -->
  <ellipse cx="200" cy="280" rx="80" ry="50" fill="#4a90d9"/>
  <ellipse cx="200" cy="280" rx="70" ry="40" fill="#5ba0e8"/>
  
  <!-- Dragon Head -->
  <ellipse cx="200" cy="180" rx="55" ry="45" fill="#4a90d9"/>
  <ellipse cx="200" cy="180" rx="45" ry="35" fill="#5ba0e8"/>
  
  <!-- Snout -->
  <ellipse cx="200" cy="210" rx="25" ry="15" fill="#5ba0e8"/>
  <circle cx="185" cy="208" r="4" fill="#2d5a8a"/>
  <circle cx="215" cy="208" r="4" fill="#2d5a8a"/>
  
  <!-- Eyes -->
  <ellipse cx="175" cy="165" rx="12" ry="14" fill="white"/>
  <ellipse cx="225" cy="165" rx="12" ry="14" fill="white"/>
  <circle cx="177" cy="166" r="6" fill="#ffcc00"/>
  <circle cx="227" cy="166" r="6" fill="#ffcc00"/>
  <circle cx="179" cy="164" r="3" fill="#1a1a2e"/>
  <circle cx="229" cy="164" r="3" fill="#1a1a2e"/>
  <circle cx="181" cy="162" r="1.5" fill="white"/>
  <circle cx="231" cy="162" r="1.5" fill="white"/>
  
  <!-- Horns -->
  <polygon points="150,130 145,90 155,125" fill="#d4a574"/>
  <polygon points="250,130 255,90 245,125" fill="#d4a574"/>
  
  <!-- Ears -->
  <ellipse cx="140" cy="155" rx="15" ry="25" fill="#4a90d9" transform="rotate(-20 140 155)"/>
  <ellipse cx="260" cy="155" rx="15" ry="25" fill="#4a90d9" transform="rotate(20 260 155)"/>
  
  <!-- Smile -->
  <path d="M 175 215 Q 200 235 225 215" stroke="#2d5a8a" stroke-width="3" fill="none"/>
  
  <!-- Tail -->
  <path d="M 280 280 Q 320 270 340 250 Q 360 230 350 200" stroke="#4a90d9" stroke-width="15" fill="none" stroke-linecap="round"/>
  <ellipse cx="355" cy="195" rx="8" ry="12" fill="#5ba0e8"/>
  
  <!-- Wings -->
  <path d="M 130 250 Q 80 200 60 150 Q 100 180 130 250" fill="#3a80c9" opacity="0.8"/>
  <path d="M 270 250 Q 320 200 340 150 Q 300 180 270 250" fill="#3a80c9" opacity="0.8"/>
  
  <!-- Arms/Legs -->
  <ellipse cx="140" cy="300" rx="15" ry="25" fill="#4a90d9"/>
  <ellipse cx="260" cy="300" rx="15" ry="25" fill="#4a90d9"/>
  
  <!-- Sparkles -->
  <circle cx="50" cy="80" r="2" fill="#ffcc00" opacity="0.8"/>
  <circle cx="370" cy="100" r="2" fill="#ffcc00" opacity="0.8"/>
  <circle cx="80" cy="350" r="2" fill="#ffcc00" opacity="0.8"/>
  <circle cx="330" cy="340" r="2" fill="#ffcc00" opacity="0.8"/>
  
  <!-- Name -->
  <text x="200" y="370" font-family="Arial, sans-serif" font-size="24" font-weight="bold" fill="#ffcc00" text-anchor="middle">大龙 🐉</text>
</svg>
