<svg xmlns="http://www.w3.org/2000/svg" viewBox="0 0 128 128" role="img" aria-label="Socrates icon">
  <defs>
    <linearGradient id="bg" x1="0%" y1="0%" x2="100%" y2="100%">
      <stop offset="0%" stop-color="#0f766e"/>
      <stop offset="100%" stop-color="#134e4a"/>
    </linearGradient>
  </defs>
  <rect width="128" height="128" rx="28" fill="url(#bg)"/>
  <rect x="20" y="22" width="88" height="58" rx="14" fill="#f0fdfa" opacity="0.95"/>
  <path d="M40 96l18-16h34a12 12 0 0 0 12-12V44a12 12 0 0 0-12-12H36a12 12 0 0 0-12 12v24a12 12 0 0 0 12 12h4z" fill="#ccfbf1"/>
  <path d="M52 49c0-7 5-12 12-12s12 5 12 12c0 5-3 8-6 11-3 3-5 5-5 10" fill="none" stroke="#115e59" stroke-linecap="round" stroke-width="8"/>
  <circle cx="64" cy="82" r="5" fill="#115e59"/>
</svg>
