<?xml version="1.0" encoding="UTF-8"?>
<svg
  version="1.1"
  id="jmcai-wordmark"
  xmlns="http://www.w3.org/2000/svg"
  xmlns:xlink="http://www.w3.org/1999/xlink"
  x="0px"
  y="0px"
  viewBox="40 358 504 156"
  style="enable-background:new 40 358 504 156;"
  xml:space="preserve"
>
  <style type="text/css">
    .brand-fill {
      fill: #f5adc0;
    }
  </style>
  <g id="JMCAI-wordmark">
    <g id="shape-5">
      <path
        class="brand-fill"
        d="M523.47,362.64c-15.54-0.3-16.59,10.17-16.59,10.17c-3.97,11.14,2.29,16.2,14.45,16.05
        c12.16-0.14,15.42-5.33,16.59-13.91C539.1,366.37,539.02,362.94,523.47,362.64z M511.7,395.82c0,0-12.39-0.74-17.66,16.05
        c-5.27,16.8-16.01,56.74-16.59,60.47c-0.58,3.73-3.07,14.15,14.98,13.38c18.06-0.77,18.59-7.73,20.87-16.05
        c2.29-8.32,16.59-63.68,16.59-63.68S531.16,393.74,511.7,395.82z"
      />
    </g>
    <g id="shape-6">
      <path
        class="brand-fill"
        d="M466.75,394.21c-10.05-0.26-6.86-4.1-6.42-11.77c0.44-7.67,0.61-14.3-14.45-13.38
        c-15.05,0.92-18.6,7.97-21.94,16.59c-3.35,8.62-5.9,7.07-16.59,8.56c-10.69,1.49-14.45,13.91-14.45,13.91
        s-17.09,61.78-18.2,65.29c-1.1,3.5-3.09,13.52,15.52,11.77c18.61-1.75,19.38-12.79,20.87-18.2c1.49-5.41,7.42-4.42,13.91-3.75
        c6.5,0.67,3.33,8.63,2.14,13.91c-1.19,5.29,2.37,8.73,16.59,8.56c14.22-0.16,19.27-12.84,19.27-12.84s14.49-47.55,18.2-63.15
        C484.9,394.13,476.8,394.47,466.75,394.21z M442.67,416.69c-2.41,9.54-0.95,12.39-8.56,12.84c-7.61,0.45-11.67-1.78-10.7-6.42
        c0.96-4.64,1.61-6.42,1.61-6.42s1.96-8.79,5.35-10.7c3.39-1.91,7.43-1.54,10.17-0.54C443.26,406.45,445.07,407.15,442.67,416.69z"
      />
    </g>
    <g id="shape-3">
      <path
        class="brand-fill"
        d="M367.21,395.82c0,0-5.41-1.37-21.41,0c-16,1.37-17.97,13.85-19.8,18.73c-1.83,4.88-4.99,4.71-13.91,5.35
        s-11.77,10.17-11.77,10.17s-4.72,12.78-5.89,22.48c-1.17,9.7,14.45,8.56,14.45,8.56c7.56,0.64,3.4,5.96,2.68,14.98
        c-0.73,9.03,6.96,9.1,6.96,9.1s12.94,1.04,27.83,0c14.89-1.04,19.61-15.89,18.73-26.76c-0.88-10.87-20.95-9.15-29.43-9.1
        c-8.49,0.05-4.61-8.25-3.21-14.45c1.4-6.2,6.96-5.35,6.96-5.35s13.05,0.48,20.34,0c7.29-0.48,10.07-2.72,13.38-5.35
        s4.78-8.23,5.35-19.27C379.01,393.88,367.21,395.82,367.21,395.82z"
      />
    </g>
    <g id="shape-2">
      <path
        class="brand-fill"
        d="M273.56,419.9c-9.21-0.24-5.35-11.24-5.35-11.24s3.7-11.48-11.24-13.38c-19.61-1.97-25.21,13.79-26.76,18.73
        s-3.79,6.77-8.56,6.42c-4.77-0.35-4.48-1.47-3.21-13.91c1.27-12.44-8.56-10.7-8.56-10.7s-14.87-0.23-32.64,0
        c-17.77,0.23-20.87,18.2-20.87,18.2s-16.31,55.01-17.12,63.15c-0.81,8.14,8.44,8.78,21.41,8.03
        c12.97-0.75,15.52-13.38,15.52-13.38s8.21-31.66,9.63-35.86c1.42-4.2,2.21-5.3,8.56-4.82c6.36,0.48,4.28,4.82,4.28,4.82
        s-7.95,31.39-9.1,38.53c-1.15,7.15,1.77,10.85,16.05,11.24c14.28,0.39,17.66-9.1,17.66-9.1s9.74-30.91,11.77-38.53
        c2.03-7.62,4.47-8.13,9.63-6.96s3.75,5.89,3.75,5.89s-8.81,29.04-10.7,38.53c-1.89,9.49,7.53,9.96,20.34,10.17
        c12.81,0.2,15.52-9.1,15.52-9.1s8.25-29.4,11.77-42.28C288.86,421.47,282.77,420.14,273.56,419.9z"
      />
    </g>
    <g id="shape-1">
      <path
        class="brand-fill"
        d="M142.44,369.06c0,0-21.78,0-40.14,0c-18.36,0-20.34,19.8-20.34,19.8c-2.93,16.36,16.67,13.71,23.01,13.91
        s2.68,8.03,2.68,8.03s-12.55,45.58-14.45,52.98c-1.9,7.4-6.04,6.97-11.24,6.42c-5.2-0.55-1.33-15.07,0.54-23.01
        c1.87-7.94-4.64-10.12-18.73-8.56c-14.09,1.56-16.41,8.06-18.73,19.8c-2.32,11.74,7.57,12.39,14.98,12.31
        c7.42-0.08-0.11,22.08-0.54,22.48c-0.43,0.4-4.07,6.1-0.54,11.24c3.54,5.14,12.57,4.98,23.01,4.28
        c10.44-0.7,12.89-12.74,14.98-19.8s4.04-6.66,14.45-7.49c10.41-0.83,16.05-12.84,16.05-12.84s21.11-75.69,23.55-86.7
        C153.44,370.9,142.44,369.06,142.44,369.06z"
      />
    </g>
  </g>
</svg>
