<svg xmlns="http://www.w3.org/2000/svg" viewBox="0 0 64 64">
  <!-- Rook base and body -->
  <rect x="12" y="52" width="40" height="6" rx="2" fill="#e01b24"/>
  <rect x="16" y="46" width="32" height="7" rx="1" fill="#c01020"/>
  <rect x="18" y="24" width="28" height="23" rx="2" fill="#e01b24"/>
  <rect x="20" y="22" width="24" height="4" rx="1" fill="#c01020"/>
  <!-- Battlements (crenellations) -->
  <rect x="18" y="14" width="6" height="9" rx="1" fill="#e01b24"/>
  <rect x="29" y="14" width="6" height="9" rx="1" fill="#e01b24"/>
  <rect x="40" y="14" width="6" height="9" rx="1" fill="#e01b24"/>
  <!-- Claw left -->
  <path d="M14 12 Q10 4 16 2 Q20 6 21 14" fill="none" stroke="#ff4444" stroke-width="3" stroke-linecap="round"/>
  <path d="M14 12 Q8 8 12 2" fill="none" stroke="#ff4444" stroke-width="2.5" stroke-linecap="round"/>
  <!-- Claw right -->
  <path d="M50 12 Q54 4 48 2 Q44 6 43 14" fill="none" stroke="#ff4444" stroke-width="3" stroke-linecap="round"/>
  <path d="M50 12 Q56 8 52 2" fill="none" stroke="#ff4444" stroke-width="2.5" stroke-linecap="round"/>
  <!-- Eyes -->
  <circle cx="25" cy="33" r="3" fill="#0a0a0a"/>
  <circle cx="39" cy="33" r="3" fill="#0a0a0a"/>
  <circle cx="25.8" cy="32.2" r="1" fill="#ff8888"/>
  <circle cx="39.8" cy="32.2" r="1" fill="#ff8888"/>
</svg>
