<svg xmlns="http://www.w3.org/2000/svg" viewBox="0 0 200 280" width="200" height="280">
  <!-- 左辫子 -->
  <path d="M52 80 Q20 120 18 160 Q16 190 22 220 Q26 240 30 260" 
        stroke="#7ec8e3" stroke-width="14" fill="none" stroke-linecap="round"/>
  <path d="M52 80 Q18 122 16 162 Q14 192 20 222 Q24 242 28 262" 
        stroke="#5ab4d4" stroke-width="6" fill="none" stroke-linecap="round" opacity="0.5"/>
  <!-- 右辫子 -->
  <path d="M148 80 Q180 120 182 160 Q184 190 178 220 Q174 240 170 260" 
        stroke="#7ec8e3" stroke-width="14" fill="none" stroke-linecap="round"/>
  <path d="M148 80 Q182 122 184 162 Q186 192 180 222 Q176 242 172 262" 
        stroke="#5ab4d4" stroke-width="6" fill="none" stroke-linecap="round" opacity="0.5"/>
  <!-- 辫子末端绑带 -->
  <ellipse cx="30" cy="260" rx="8" ry="5" fill="#c084fc" transform="rotate(-20 30 260)"/>
  <ellipse cx="170" cy="260" rx="8" ry="5" fill="#c084fc" transform="rotate(20 170 260)"/>

  <!-- 头发顶部 -->
  <path d="M50 75 Q70 30 100 25 Q130 30 150 75 Q130 60 100 58 Q70 60 50 75Z" fill="#7ec8e3"/>
  <!-- 刘海散发 -->
  <path d="M60 75 Q65 55 72 70" fill="#7ec8e3"/>
  <path d="M80 62 Q82 45 90 62" fill="#7ec8e3"/>

  <!-- 脸 -->
  <ellipse cx="100" cy="110" rx="46" ry="54" fill="#f0e6d8"/>
  
  <!-- 眉毛 - 细挑上扬 -->
  <path d="M70 82 Q80 76 90 80" stroke="#5ab4d4" stroke-width="2.5" fill="none" stroke-linecap="round"/>
  <path d="M110 80 Q120 76 130 82" stroke="#5ab4d4" stroke-width="2.5" fill="none" stroke-linecap="round"/>

  <!-- 眼睛 - 大而狂 -->
  <!-- 左眼 -->
  <ellipse cx="80" cy="102" rx="14" ry="12" fill="white"/>
  <ellipse cx="80" cy="103" rx="9" ry="9" fill="#6b9fff"/>
  <ellipse cx="80" cy="103" rx="5" ry="5" fill="#1a1a2e"/>
  <circle cx="83" cy="100" r="2.5" fill="white"/>
  <!-- 左眼下眼线 -->
  <path d="M67 107 Q80 112 93 107" stroke="#5ab4d4" stroke-width="1.5" fill="none"/>

  <!-- 右眼 -->
  <ellipse cx="120" cy="102" rx="14" ry="12" fill="white"/>
  <ellipse cx="120" cy="103" rx="9" ry="9" fill="#6b9fff"/>
  <ellipse cx="120" cy="103" rx="5" ry="5" fill="#1a1a2e"/>
  <circle cx="123" cy="100" r="2.5" fill="white"/>
  <!-- 右眼下眼线 -->
  <path d="M107 107 Q120 112 133 107" stroke="#5ab4d4" stroke-width="1.5" fill="none"/>

  <!-- 鼻子 - 极简 -->
  <path d="M97 120 Q100 126 103 120" stroke="#c4a882" stroke-width="1.5" fill="none" stroke-linecap="round"/>

  <!-- 嘴巴 - 疯狂大笑 -->
  <path d="M78 140 Q90 133 100 134 Q110 133 122 140" stroke="#1a1a1a" stroke-width="2" fill="none" stroke-linecap="round"/>
  <path d="M78 140 Q100 156 122 140 Q110 148 100 149 Q90 148 78 140Z" fill="#d45a5a"/>
  <!-- 牙齿 -->
  <path d="M85 141 Q100 153 115 141 Q100 145 85 141Z" fill="white"/>

  <!-- 脸颊腮红 -->
  <ellipse cx="68" cy="118" rx="10" ry="6" fill="#f4a0b0" opacity="0.4"/>
  <ellipse cx="132" cy="118" rx="10" ry="6" fill="#f4a0b0" opacity="0.4"/>
</svg>
