<?xml version="1.0" encoding="UTF-8"?>
<svg id="_图层_2" data-name="图层 2" xmlns="http://www.w3.org/2000/svg" viewBox="0 0 446.8 446.8">
  <defs>
    <style>
      .cls-1 {
        fill: #ccc;
      }

      .cls-2 {
        fill: none;
        stroke: #ccc;
        stroke-miterlimit: 10;
        stroke-width: 10px;
      }
    </style>
  </defs>
  <g id="_图层_1-2" data-name="图层 1">
    <path class="cls-2" d="M55.51,363.1C23.97,325.24,5,276.54,5,223.4,5,102.78,102.78,5,223.4,5c54.85,0,104.98,20.22,143.34,53.61"/>
    <path class="cls-2" d="M387.72,79.53c33.67,38.43,54.08,88.77,54.08,143.87,0,120.62-97.78,218.4-218.4,218.4-58.26,0-111.2-22.82-150.36-60"/>
    <g>
      <path class="cls-1" d="M89.56,81.07v46.78c0,4.2,3.94,7.6,8.8,7.6h132.97c7.57,0,11.61,7.71,6.61,12.62l-157.95,155.15c-1.41,1.39-2.19,3.17-2.19,5.02v12.26c0,6.92,9.85,10.24,15.28,5.15l255.31-239.42c5.19-4.87,1.19-12.75-6.48-12.75H98.36c-4.86,0-8.8,3.4-8.8,7.6Z"/>
      <path class="cls-1" d="M363.12,133.88v-16.59c0-6.92-9.85-10.24-15.28-5.15l-255.69,239.78c-5.19,4.87-1.19,12.75,6.48,12.75h261.57c4.86,0,8.8-3.4,8.8-7.6v-47.32c0-4.2-3.94-7.6-8.8-7.6h-148.54c-7.61,0-11.63-7.77-6.56-12.66l155.79-150.55c1.44-1.39,2.24-3.2,2.24-5.06Z"/>
    </g>
  </g>
</svg>