<svg xmlns="http://www.w3.org/2000/svg" width="1556" height="920" font-family="system-ui, -apple-system, sans-serif">
<defs><marker id="arrow-solid" markerWidth="10" markerHeight="8" refX="9" refY="4" orient="auto" markerUnits="userSpaceOnUse"><polygon points="0 0, 10 4, 0 8" fill="#0B6E6E"/></marker><marker id="arrow-dashed" markerWidth="10" markerHeight="8" refX="9" refY="4" orient="auto" markerUnits="userSpaceOnUse"><polygon points="0 0, 10 4, 0 8" fill="#94A3B8"/></marker></defs>
<rect width="1556" height="920" fill="#F8FAFC"/>
<g class="title-block"><rect x="40" y="10" width="1556" height="52" rx="6" fill="#FFFFFF" stroke="#CBD5E1" stroke-width="1"/><text x="56" y="34" font-size="16" fill="#0F172A" font-family="system-ui, -apple-system, sans-serif" font-weight="700">Generated Blueprint</text><text x="56" y="52" font-size="11" fill="#64748B" font-family="'JetBrains Mono', 'SF Mono', monospace">Industry: common</text></g>
<g class="layer" id="layer-Application Systems"><rect class="layer-border" x="40" y="72" width="1476" height="244" rx="8" fill="none" stroke="#E2E8F0" stroke-width="1"/><rect class="layer-header" x="40" y="72" width="1476" height="32" fill="#F1F5F9"/><text class="layer-label" x="56" y="92" font-size="12" fill="#64748B" font-family="system-ui, -apple-system, sans-serif" font-weight="600" letter-spacing="0.4">Application Systems</text></g>
<g class="layer" id="layer-Business Capabilities"><rect class="layer-border" x="40" y="352" width="1476" height="348" rx="8" fill="none" stroke="#E2E8F0" stroke-width="1"/><rect class="layer-header" x="40" y="352" width="1476" height="32" fill="#F1F5F9"/><text class="layer-label" x="56" y="372" font-size="12" fill="#64748B" font-family="system-ui, -apple-system, sans-serif" font-weight="600" letter-spacing="0.4">Business Capabilities</text></g>
<line x1="143" y1="176" x2="143" y2="412" stroke="#0B6E6E" stroke-width="1.5" marker-end="url(#arrow-solid)"/>
<line x1="143" y1="176" x2="143" y2="466" stroke="#0B6E6E" stroke-width="1.5" marker-end="url(#arrow-solid)"/>
<line x1="143" y1="176" x2="143" y2="520" stroke="#0B6E6E" stroke-width="1.5" marker-end="url(#arrow-solid)"/>
<line x1="143" y1="176" x2="143" y2="574" stroke="#0B6E6E" stroke-width="1.5" marker-end="url(#arrow-solid)"/>
<line x1="143" y1="176" x2="143" y2="628" stroke="#0B6E6E" stroke-width="1.5" marker-end="url(#arrow-solid)"/>
<line x1="313" y1="176" x2="313" y2="412" stroke="#0B6E6E" stroke-width="1.5" marker-end="url(#arrow-solid)"/>
<line x1="313" y1="176" x2="313" y2="466" stroke="#0B6E6E" stroke-width="1.5" marker-end="url(#arrow-solid)"/>
<line x1="313" y1="176" x2="313" y2="520" stroke="#0B6E6E" stroke-width="1.5" marker-end="url(#arrow-solid)"/>
<line x1="483" y1="176" x2="483" y2="412" stroke="#0B6E6E" stroke-width="1.5" marker-end="url(#arrow-solid)"/>
<line x1="483" y1="176" x2="483" y2="466" stroke="#0B6E6E" stroke-width="1.5" marker-end="url(#arrow-solid)"/>
<line x1="653" y1="176" x2="653" y2="412" stroke="#0B6E6E" stroke-width="1.5" marker-end="url(#arrow-solid)"/>
<line x1="653" y1="176" x2="653" y2="466" stroke="#0B6E6E" stroke-width="1.5" marker-end="url(#arrow-solid)"/>
<line x1="653" y1="176" x2="653" y2="520" stroke="#0B6E6E" stroke-width="1.5" marker-end="url(#arrow-solid)"/>
<line x1="823" y1="176" x2="823" y2="412" stroke="#0B6E6E" stroke-width="1.5" marker-end="url(#arrow-solid)"/>
<line x1="823" y1="176" x2="823" y2="466" stroke="#0B6E6E" stroke-width="1.5" marker-end="url(#arrow-solid)"/>
<line x1="823" y1="176" x2="823" y2="520" stroke="#0B6E6E" stroke-width="1.5" marker-end="url(#arrow-solid)"/>
<rect x="113" y="285" width="60" height="18" rx="3" fill="#FFFFFF" fill-opacity="0.9"/><text x="143" y="298" text-anchor="middle" font-size="10" fill="#475569" font-family="system-ui, -apple-system, sans-serif">supports</text>
<rect x="113" y="312" width="60" height="18" rx="3" fill="#FFFFFF" fill-opacity="0.9"/><text x="143" y="325" text-anchor="middle" font-size="10" fill="#475569" font-family="system-ui, -apple-system, sans-serif">supports</text>
<rect x="113" y="339" width="60" height="18" rx="3" fill="#FFFFFF" fill-opacity="0.9"/><text x="143" y="352" text-anchor="middle" font-size="10" fill="#475569" font-family="system-ui, -apple-system, sans-serif">supports</text>
<rect x="113" y="366" width="60" height="18" rx="3" fill="#FFFFFF" fill-opacity="0.9"/><text x="143" y="379" text-anchor="middle" font-size="10" fill="#475569" font-family="system-ui, -apple-system, sans-serif">supports</text>
<rect x="113" y="393" width="60" height="18" rx="3" fill="#FFFFFF" fill-opacity="0.9"/><text x="143" y="406" text-anchor="middle" font-size="10" fill="#475569" font-family="system-ui, -apple-system, sans-serif">supports</text>
<rect x="283" y="285" width="60" height="18" rx="3" fill="#FFFFFF" fill-opacity="0.9"/><text x="313" y="298" text-anchor="middle" font-size="10" fill="#475569" font-family="system-ui, -apple-system, sans-serif">supports</text>
<rect x="283" y="312" width="60" height="18" rx="3" fill="#FFFFFF" fill-opacity="0.9"/><text x="313" y="325" text-anchor="middle" font-size="10" fill="#475569" font-family="system-ui, -apple-system, sans-serif">supports</text>
<rect x="283" y="339" width="60" height="18" rx="3" fill="#FFFFFF" fill-opacity="0.9"/><text x="313" y="352" text-anchor="middle" font-size="10" fill="#475569" font-family="system-ui, -apple-system, sans-serif">supports</text>
<rect x="453" y="285" width="60" height="18" rx="3" fill="#FFFFFF" fill-opacity="0.9"/><text x="483" y="298" text-anchor="middle" font-size="10" fill="#475569" font-family="system-ui, -apple-system, sans-serif">supports</text>
<rect x="453" y="312" width="60" height="18" rx="3" fill="#FFFFFF" fill-opacity="0.9"/><text x="483" y="325" text-anchor="middle" font-size="10" fill="#475569" font-family="system-ui, -apple-system, sans-serif">supports</text>
<rect x="623" y="285" width="60" height="18" rx="3" fill="#FFFFFF" fill-opacity="0.9"/><text x="653" y="298" text-anchor="middle" font-size="10" fill="#475569" font-family="system-ui, -apple-system, sans-serif">supports</text>
<rect x="623" y="312" width="60" height="18" rx="3" fill="#FFFFFF" fill-opacity="0.9"/><text x="653" y="325" text-anchor="middle" font-size="10" fill="#475569" font-family="system-ui, -apple-system, sans-serif">supports</text>
<rect x="623" y="339" width="60" height="18" rx="3" fill="#FFFFFF" fill-opacity="0.9"/><text x="653" y="352" text-anchor="middle" font-size="10" fill="#475569" font-family="system-ui, -apple-system, sans-serif">supports</text>
<rect x="793" y="285" width="60" height="18" rx="3" fill="#FFFFFF" fill-opacity="0.9"/><text x="823" y="298" text-anchor="middle" font-size="10" fill="#475569" font-family="system-ui, -apple-system, sans-serif">supports</text>
<rect x="793" y="312" width="60" height="18" rx="3" fill="#FFFFFF" fill-opacity="0.9"/><text x="823" y="325" text-anchor="middle" font-size="10" fill="#475569" font-family="system-ui, -apple-system, sans-serif">supports</text>
<rect x="793" y="339" width="60" height="18" rx="3" fill="#FFFFFF" fill-opacity="0.9"/><text x="823" y="352" text-anchor="middle" font-size="10" fill="#475569" font-family="system-ui, -apple-system, sans-serif">supports</text>
<g class="node node-system" id="sys-ai"><rect class="node-rect" x="68" y="132" width="150" height="44" rx="4" fill="#EFF6FF" stroke="#3B82F6" stroke-width="1.5"/><text class="node-label" x="143" y="159" text-anchor="middle" font-size="12.5" fill="#0F172A" font-family="system-ui, -apple-system, sans-serif" font-weight="500">AI平台</text></g>
<g class="node node-system" id="sys-crm"><rect class="node-rect" x="238" y="132" width="150" height="44" rx="4" fill="#EFF6FF" stroke="#3B82F6" stroke-width="1.5"/><text class="node-label" x="313" y="159" text-anchor="middle" font-size="12.5" fill="#0F172A" font-family="system-ui, -apple-system, sans-serif" font-weight="500">CRM</text></g>
<g class="node node-system" id="sys-pos"><rect class="node-rect" x="408" y="132" width="150" height="44" rx="4" fill="#EFF6FF" stroke="#3B82F6" stroke-width="1.5"/><text class="node-label" x="483" y="159" text-anchor="middle" font-size="12.5" fill="#0F172A" font-family="system-ui, -apple-system, sans-serif" font-weight="500">POS</text></g>
<g class="node node-system" id="sys-erp"><rect class="node-rect" x="578" y="132" width="150" height="44" rx="4" fill="#EFF6FF" stroke="#3B82F6" stroke-width="1.5"/><text class="node-label" x="653" y="159" text-anchor="middle" font-size="12.5" fill="#0F172A" font-family="system-ui, -apple-system, sans-serif" font-weight="500">ERP</text></g>
<g class="node node-system" id="sys-partner"><rect class="node-rect" x="748" y="132" width="150" height="44" rx="4" fill="#EFF6FF" stroke="#3B82F6" stroke-width="1.5"/><text class="node-label" x="823" y="159" text-anchor="middle" font-size="12.5" fill="#0F172A" font-family="system-ui, -apple-system, sans-serif" font-weight="500">伙伴门户</text></g>
<g class="node node-actor" id="actor-store-guide"><rect class="node-rect" x="1108" y="132" width="150" height="44" rx="22" fill="#FFF7ED" stroke="#F97316" stroke-width="1.5"/><text class="node-label" x="1183" y="159" text-anchor="middle" font-size="12.5" fill="#0F172A" font-family="system-ui, -apple-system, sans-serif" font-weight="500">门店导购</text></g>
<g class="node node-actor" id="actor-service"><rect class="node-rect" x="1270" y="132" width="150" height="44" rx="22" fill="#FFF7ED" stroke="#F97316" stroke-width="1.5"/><text class="node-label" x="1345" y="159" text-anchor="middle" font-size="12.5" fill="#0F172A" font-family="system-ui, -apple-system, sans-serif" font-weight="500">客服</text></g>
<g class="node node-actor" id="actor-manager"><rect class="node-rect" x="1108" y="188" width="150" height="44" rx="22" fill="#FFF7ED" stroke="#F97316" stroke-width="1.5"/><text class="node-label" x="1183" y="215" text-anchor="middle" font-size="12.5" fill="#0F172A" font-family="system-ui, -apple-system, sans-serif" font-weight="500">店长</text></g>
<g class="node node-actor" id="actor-partner"><rect class="node-rect" x="1270" y="188" width="150" height="44" rx="22" fill="#FFF7ED" stroke="#F97316" stroke-width="1.5"/><text class="node-label" x="1345" y="215" text-anchor="middle" font-size="12.5" fill="#0F172A" font-family="system-ui, -apple-system, sans-serif" font-weight="500">合作伙伴</text></g>
<g class="node node-actor" id="actor-admin"><rect class="node-rect" x="1108" y="244" width="150" height="44" rx="22" fill="#FFF7ED" stroke="#F97316" stroke-width="1.5"/><text class="node-label" x="1183" y="271" text-anchor="middle" font-size="12.5" fill="#0F172A" font-family="system-ui, -apple-system, sans-serif" font-weight="500">系统管理员</text></g>
<g class="node node-capability" id="cap-ai-recommend"><rect class="node-rect" x="68" y="412" width="150" height="44" rx="8" fill="#E8F5F5" stroke="#0B6E6E" stroke-width="1.5"/><text class="node-label" x="143" y="439" text-anchor="middle" font-size="12.5" fill="#0F172A" font-family="system-ui, -apple-system, sans-serif" font-weight="500">AI智能推荐</text></g>
<g class="node node-capability" id="cap-smart-search"><rect class="node-rect" x="68" y="466" width="150" height="44" rx="8" fill="#E8F5F5" stroke="#0B6E6E" stroke-width="1.5"/><text class="node-label" x="143" y="493" text-anchor="middle" font-size="12.5" fill="#0F172A" font-family="system-ui, -apple-system, sans-serif" font-weight="500">智能搜索</text></g>
<g class="node node-capability" id="cap-auto-tag"><rect class="node-rect" x="68" y="520" width="150" height="44" rx="8" fill="#E8F5F5" stroke="#0B6E6E" stroke-width="1.5"/><text class="node-label" x="143" y="547" text-anchor="middle" font-size="12.5" fill="#0F172A" font-family="system-ui, -apple-system, sans-serif" font-weight="500">自动标签</text></g>
<g class="node node-capability" id="cap-content-gen"><rect class="node-rect" x="68" y="574" width="150" height="44" rx="8" fill="#E8F5F5" stroke="#0B6E6E" stroke-width="1.5"/><text class="node-label" x="143" y="601" text-anchor="middle" font-size="12.5" fill="#0F172A" font-family="system-ui, -apple-system, sans-serif" font-weight="500">内容生成</text></g>
<g class="node node-capability" id="cap-knowledge"><rect class="node-rect" x="68" y="628" width="150" height="44" rx="8" fill="#E8F5F5" stroke="#0B6E6E" stroke-width="1.5"/><text class="node-label" x="143" y="655" text-anchor="middle" font-size="12.5" fill="#0F172A" font-family="system-ui, -apple-system, sans-serif" font-weight="500">知识库</text></g>
<g class="node node-capability" id="cap-smart-service"><rect class="node-rect" x="238" y="412" width="150" height="44" rx="8" fill="#E8F5F5" stroke="#0B6E6E" stroke-width="1.5"/><text class="node-label" x="313" y="439" text-anchor="middle" font-size="12.5" fill="#0F172A" font-family="system-ui, -apple-system, sans-serif" font-weight="500">智能客服</text></g>
<g class="node node-capability" id="cap-auto-reply"><rect class="node-rect" x="238" y="466" width="150" height="44" rx="8" fill="#E8F5F5" stroke="#0B6E6E" stroke-width="1.5"/><text class="node-label" x="313" y="493" text-anchor="middle" font-size="12.5" fill="#0F172A" font-family="system-ui, -apple-system, sans-serif" font-weight="500">自动回复</text></g>
<g class="node node-capability" id="cap-feedback"><rect class="node-rect" x="238" y="520" width="150" height="44" rx="8" fill="#E8F5F5" stroke="#0B6E6E" stroke-width="1.5"/><text class="node-label" x="313" y="547" text-anchor="middle" font-size="12.5" fill="#0F172A" font-family="system-ui, -apple-system, sans-serif" font-weight="500">反馈管理</text></g>
<g class="node node-capability" id="cap-data-analysis"><rect class="node-rect" x="408" y="412" width="150" height="44" rx="8" fill="#E8F5F5" stroke="#0B6E6E" stroke-width="1.5"/><text class="node-label" x="483" y="439" text-anchor="middle" font-size="12.5" fill="#0F172A" font-family="system-ui, -apple-system, sans-serif" font-weight="500">数据分析</text></g>
<g class="node node-capability" id="cap-inventory"><rect class="node-rect" x="408" y="466" width="150" height="44" rx="8" fill="#E8F5F5" stroke="#0B6E6E" stroke-width="1.5"/><text class="node-label" x="483" y="493" text-anchor="middle" font-size="12.5" fill="#0F172A" font-family="system-ui, -apple-system, sans-serif" font-weight="500">库存管理</text></g>
<g class="node node-capability" id="cap-supply-chain"><rect class="node-rect" x="578" y="412" width="150" height="44" rx="8" fill="#E8F5F5" stroke="#0B6E6E" stroke-width="1.5"/><text class="node-label" x="653" y="439" text-anchor="middle" font-size="12.5" fill="#0F172A" font-family="system-ui, -apple-system, sans-serif" font-weight="500">供应链优化</text></g>
<g class="node node-capability" id="cap-financial"><rect class="node-rect" x="578" y="466" width="150" height="44" rx="8" fill="#E8F5F5" stroke="#0B6E6E" stroke-width="1.5"/><text class="node-label" x="653" y="493" text-anchor="middle" font-size="12.5" fill="#0F172A" font-family="system-ui, -apple-system, sans-serif" font-weight="500">财务分析</text></g>
<g class="node node-capability" id="cap-partner-mgmt"><rect class="node-rect" x="578" y="520" width="150" height="44" rx="8" fill="#E8F5F5" stroke="#0B6E6E" stroke-width="1.5"/><text class="node-label" x="653" y="547" text-anchor="middle" font-size="12.5" fill="#0F172A" font-family="system-ui, -apple-system, sans-serif" font-weight="500">伙伴管理</text></g>
<g class="node node-capability" id="cap-channel"><rect class="node-rect" x="748" y="412" width="150" height="44" rx="8" fill="#E8F5F5" stroke="#0B6E6E" stroke-width="1.5"/><text class="node-label" x="823" y="439" text-anchor="middle" font-size="12.5" fill="#0F172A" font-family="system-ui, -apple-system, sans-serif" font-weight="500">渠道管理</text></g>
<g class="node node-capability" id="cap-co-marketing"><rect class="node-rect" x="748" y="466" width="150" height="44" rx="8" fill="#E8F5F5" stroke="#0B6E6E" stroke-width="1.5"/><text class="node-label" x="823" y="493" text-anchor="middle" font-size="12.5" fill="#0F172A" font-family="system-ui, -apple-system, sans-serif" font-weight="500">联合营销</text></g>
<g class="node node-capability" id="cap-data-share"><rect class="node-rect" x="748" y="520" width="150" height="44" rx="8" fill="#E8F5F5" stroke="#0B6E6E" stroke-width="1.5"/><text class="node-label" x="823" y="547" text-anchor="middle" font-size="12.5" fill="#0F172A" font-family="system-ui, -apple-system, sans-serif" font-weight="500">数据共享</text></g>
<g class="node node-capability" id="cap-sentiment"><rect class="node-rect" x="918" y="412" width="150" height="44" rx="8" fill="#E8F5F5" stroke="#0B6E6E" stroke-width="1.5"/><text class="node-label" x="993" y="439" text-anchor="middle" font-size="12.5" fill="#0F172A" font-family="system-ui, -apple-system, sans-serif" font-weight="500">情感分析</text></g>
<g class="legend" transform="translate(50, 730)">
<rect x="0" y="0" width="130" height="174" rx="6" fill="#FFFFFF" stroke="#CBD5E1" stroke-width="1" opacity="0.95"/>
<text x="12" y="20" font-size="10" fill="#64748B" font-family="system-ui, -apple-system, sans-serif" font-weight="600" letter-spacing="0.3">LEGEND</text>
<rect x="12" y="38" width="18" height="14" rx="4" fill="#EFF6FF" stroke="#3B82F6" stroke-width="1"/><text x="38" y="49" font-size="9.5" fill="#64748B" font-family="system-ui, -apple-system, sans-serif">System</text>
<rect x="12" y="60" width="18" height="14" rx="8" fill="#E8F5F5" stroke="#0B6E6E" stroke-width="1"/><text x="38" y="71" font-size="9.5" fill="#64748B" font-family="system-ui, -apple-system, sans-serif">Capability</text>
<rect x="12" y="82" width="18" height="14" rx="6" fill="#FEFCE8" stroke="#CA8A04" stroke-width="1"/><text x="38" y="93" font-size="9.5" fill="#64748B" font-family="system-ui, -apple-system, sans-serif">Flow Step</text>
<rect x="12" y="104" width="18" height="14" rx="22" fill="#FFF7ED" stroke="#F97316" stroke-width="1"/><text x="38" y="115" font-size="9.5" fill="#64748B" font-family="system-ui, -apple-system, sans-serif">Actor</text>
<line x1="12" y1="130" x2="30" y2="130" stroke="#0B6E6E" stroke-width="1.5" marker-end="url(#arrow-solid)"/><text x="38" y="134" font-size="9.5" fill="#64748B" font-family="system-ui, -apple-system, sans-serif">supports</text>
<line x1="12" y1="152" x2="30" y2="152" stroke="#94A3B8" stroke-width="1.5" stroke-dasharray="5,4" marker-end="url(#arrow-dashed)"/><text x="38" y="156" font-size="9.5" fill="#64748B" font-family="system-ui, -apple-system, sans-serif">flow-to</text>
</g>
</svg>