<svg xmlns="http://www.w3.org/2000/svg" width="900" height="552" font-family="system-ui, -apple-system, sans-serif">
<defs><marker id="arrow-solid" markerWidth="10" markerHeight="8" refX="9" refY="4" orient="auto" markerUnits="userSpaceOnUse"><polygon points="0 0, 10 4, 0 8" fill="#0B6E6E"/></marker><marker id="arrow-dashed" markerWidth="10" markerHeight="8" refX="9" refY="4" orient="auto" markerUnits="userSpaceOnUse"><polygon points="0 0, 10 4, 0 8" fill="#94A3B8"/></marker></defs>
<rect width="900" height="552" fill="#F8FAFC"/>
<g class="title-block"><rect x="50" y="30" width="800" height="52" rx="6" fill="#FFFFFF" stroke="#CBD5E1" stroke-width="1"/><text x="66" y="54" font-size="16" fill="#0F172A" font-family="system-ui, -apple-system, sans-serif" font-weight="700">Generated Blueprint — 泳道流程</text><text x="66" y="72" font-size="11" fill="#64748B" font-family="'JetBrains Mono', 'SF Mono', monospace">Industry: common</text></g>
<rect x="50" y="102" width="800" height="68" rx="6" fill="#E8F5F5" stroke="#0B6E6E" stroke-width="0.5" opacity="0.5"/>
<text x="64" y="125" font-size="12" fill="#0B6E6E" font-weight="600">门店导购 <tspan font-size="10" fill="#64748B">(0步)</tspan></text>
<rect x="50" y="186" width="800" height="68" rx="6" fill="#ECFDF5" stroke="#059669" stroke-width="0.5" opacity="0.5"/>
<text x="64" y="209" font-size="12" fill="#059669" font-weight="600">客服 <tspan font-size="10" fill="#64748B">(0步)</tspan></text>
<rect x="50" y="270" width="800" height="68" rx="6" fill="#EEF2FF" stroke="#4338CA" stroke-width="0.5" opacity="0.5"/>
<text x="64" y="293" font-size="12" fill="#4338CA" font-weight="600">店长 <tspan font-size="10" fill="#64748B">(0步)</tspan></text>
<rect x="50" y="354" width="800" height="68" rx="6" fill="#FEFCE8" stroke="#D97706" stroke-width="0.5" opacity="0.5"/>
<text x="64" y="377" font-size="12" fill="#D97706" font-weight="600">合作伙伴 <tspan font-size="10" fill="#64748B">(0步)</tspan></text>
<rect x="50" y="438" width="800" height="68" rx="6" fill="#FEF2F2" stroke="#DC2626" stroke-width="0.5" opacity="0.5"/>
<text x="64" y="461" font-size="12" fill="#DC2626" font-weight="600">系统管理员 <tspan font-size="10" fill="#64748B">(0步)</tspan></text>
</svg>