<svg xmlns="http://www.w3.org/2000/svg" xmlns:xlink="http://www.w3.org/1999/xlink" width="872" height="613.04"><rect width="872" height="613.04" rx="5" ry="5" class="a"/><svg y="0%" x="0%"><circle cx="20" cy="20" r="6" fill="#ff5f58"/><circle cx="40" cy="20" r="6" fill="#ffbd2e"/><circle cx="60" cy="20" r="6" fill="#18c132"/></svg><svg height="521.04" viewBox="0 0 80 52.104" width="800" x="31" xmlns="http://www.w3.org/2000/svg" xmlns:xlink="http://www.w3.org/1999/xlink" y="66"><style>@keyframes p{0%{transform:translateX(-80px)}.3%{transform:translateX(-160px)}.7%{transform:translateX(-240px)}1%{transform:translateX(-320px)}1.4%{transform:translateX(-400px)}1.7%{transform:translateX(-480px)}2.1%{transform:translateX(-560px)}2.4%{transform:translateX(-640px)}2.8%{transform:translateX(-720px)}3.1%{transform:translateX(-800px)}3.4%{transform:translateX(-880px)}3.8%{transform:translateX(-960px)}4.1%{transform:translateX(-1040px)}4.5%{transform:translateX(-1120px)}4.8%{transform:translateX(-1200px)}5.2%{transform:translateX(-1280px)}5.5%{transform:translateX(-1360px)}5.9%{transform:translateX(-1440px)}6.2%{transform:translateX(-1520px)}6.5%{transform:translateX(-1600px)}6.9%{transform:translateX(-1680px)}7.2%{transform:translateX(-1760px)}7.6%{transform:translateX(-1840px)}7.9%{transform:translateX(-1920px)}8.3%{transform:translateX(-2000px)}8.6%{transform:translateX(-2080px)}8.9%{transform:translateX(-2160px)}9.3%{transform:translateX(-2240px)}9.6%{transform:translateX(-2320px)}10%{transform:translateX(-2400px)}10.3%{transform:translateX(-2480px)}10.7%{transform:translateX(-2560px)}11%{transform:translateX(-2640px)}12%{transform:translateX(-2720px)}27.2%{transform:translateX(-2800px)}27.7%{transform:translateX(-2880px)}28.2%{transform:translateX(-2960px)}28.7%{transform:translateX(-3040px)}30.7%{transform:translateX(-3120px)}33.6%{transform:translateX(-3200px)}36.1%{transform:translateX(-3280px)}38.5%{transform:translateX(-3360px)}42.5%{transform:translateX(-3440px)}44.4%{transform:translateX(-3520px)}47.4%{transform:translateX(-3600px)}50.8%{transform:translateX(-3680px)}54.3%{transform:translateX(-3760px)}56.2%{transform:translateX(-3840px)}59.2%{transform:translateX(-3920px)}61.2%{transform:translateX(-4000px)}63.1%{transform:translateX(-4080px)}66.6%{transform:translateX(-4160px)}68.5%{transform:translateX(-4240px)}69.5%{transform:translateX(-4320px)}70.5%{transform:translateX(-4400px)}to{transform:translateX(-4480px)}}.a{fill:#282d35}.f{fill:#b9c0cb;white-space:pre}.g{fill:#66c2cd;font-weight:700}.g,.h,.i{white-space:pre}.h{fill:#b9c0cb;font-weight:700}.i{fill:#dbab79}.j{fill:#a8cc8c}.j,.k,.l,.n{white-space:pre}.k{fill:#a8cc8c;font-weight:700}.l,.n{fill:#e88388}.n{fill:#66c2cd}</style><g font-family="Monaco,Consolas,Menlo,'Bitstream Vera Sans Mono','Powerline Symbols',monospace" font-size="1.67"><defs><symbol id="1"><text y="1.67" class="f">$</text><text x="2.004" y="1.67" class="f">npx</text></symbol><symbol id="2"><text y="1.67" class="f">$</text><text x="2.004" y="1.67" class="f">npx</text><text x="6.012" y="1.67" class="f">ts-node</text></symbol><symbol id="3"><text y="1.67" class="f">$</text><text x="2.004" y="1.67" class="f">npx</text><text x="6.012" y="1.67" class="f">ts-node</text><text x="14.028" y="1.67" class="f">examples/gif-demo.ts</text></symbol><symbol id="4"><text y="1.67" class="g">━━━━━━━━━━━━━━━━━━━━━━━━━━━━━━━━━━━━━━━━━━━━━━━━━━━━</text></symbol><symbol id="5"><text x="2.004" y="1.67" class="g">Network-AI</text><text x="13.026" y="1.67" class="g">—</text><text x="15.03" y="1.67" class="g">Multi-Agent</text><text x="27.054" y="1.67" class="g">Coordination</text><text x="40.08" y="1.67" class="g">Demo</text></symbol><symbol id="6"><text x="2.004" y="1.67" class="h">▸</text><text x="4.008" y="1.67" class="h">Atomic</text><text x="11.022" y="1.67" class="h">Blackboard</text></symbol><symbol id="7"><text x="2.004" y="1.67" class="f">●</text><text x="4.008" y="1.67" class="f">agent-A</text><text x="12.024" y="1.67" class="f">wrote</text><text x="19.038" y="1.67" class="f">priority=0</text><text x="31.062" y="1.67" class="f">status=queued</text></symbol><symbol id="8"><text x="2.004" y="1.67" class="i">●</text><text x="4.008" y="1.67" class="i">agent-B</text><text x="12.024" y="1.67" class="i">wrote</text><text x="19.038" y="1.67" class="i">priority=3</text><text x="31.062" y="1.67" class="i">status=approved</text></symbol><symbol id="9"><text x="2.004" y="1.67" class="j">✓</text><text x="4.008" y="1.67" class="j">final</text><text x="10.02" y="1.67" class="j">value:</text><text x="17.034" y="1.67" class="k">{&quot;status&quot;:&quot;approved&quot;}</text><text x="40.08" y="1.67" class="f">(priority</text><text x="50.1" y="1.67" class="f">wins)</text></symbol><symbol id="10"><text x="2.004" y="1.67" class="h">▸</text><text x="4.008" y="1.67" class="h">AuthGuardian</text><text x="17.034" y="1.67" class="h">Permission</text><text x="28.056" y="1.67" class="h">Gate</text></symbol><symbol id="11"><text x="2.004" y="1.67" class="l">✗</text><text x="4.008" y="1.67" class="l">weak</text><text x="9.018" y="1.67" class="l">justification</text><text x="23.046" y="1.67" class="l">→</text><text x="25.05" y="1.67" style="white-space:pre" fill="#e88388" font-weight="700">BLOCKED</text></symbol><symbol id="12"><text x="2.004" y="1.67" class="j">✓</text><text x="4.008" y="1.67" class="j">strong</text><text x="11.022" y="1.67" class="j">justification</text><text x="25.05" y="1.67" class="j">→</text><text x="27.054" y="1.67" class="k">GRANTED</text><text x="36.072" y="1.67" class="f">token=grant_4aed38…</text></symbol><symbol id="13"><text x="2.004" y="1.67" class="h">▸</text><text x="4.008" y="1.67" class="h">FederatedBudget</text></symbol><symbol id="14"><text x="2.004" y="1.67" class="n">●</text><text x="4.008" y="1.67" class="n">agent-A</text><text x="12.024" y="1.67" class="n">spent</text><text x="18.036" y="1.67" class="n">1,200</text><text x="24.048" y="1.67" class="n">tokens</text><text x="32.064" y="1.67" class="n">remaining=3800</text></symbol><symbol id="15"><text x="2.004" y="1.67" class="n">●</text><text x="4.008" y="1.67" class="n">agent-B</text><text x="12.024" y="1.67" class="n">spent</text><text x="20.04" y="1.67" class="n">800</text><text x="24.048" y="1.67" class="n">tokens</text><text x="32.064" y="1.67" class="n">remaining=3000</text></symbol><symbol id="16"><text x="2.004" y="1.67" class="j">✓</text><text x="4.008" y="1.67" class="j">ceiling=5,000</text><text x="19.038" y="1.67" class="j">total=2,000</text><text x="32.064" y="1.67" class="k">within</text><text x="39.078" y="1.67" class="k">budget</text></symbol><symbol id="17"><text x="2.004" y="1.67" class="k">✓</text><text x="4.008" y="1.67" class="k">Done</text><text x="9.018" y="1.67" class="k">—</text><text x="11.022" y="1.67" class="k">3</text><text x="13.026" y="1.67" class="k">primitives,</text><text x="25.05" y="1.67" class="k">0</text><text x="27.054" y="1.67" class="k">API</text><text x="31.062" y="1.67" class="k">calls,</text><text x="38.076" y="1.67" class="k">0</text><text x="40.08" y="1.67" class="k">race</text><text x="45.09" y="1.67" class="k">conditions.</text></symbol><symbol id="a"><path fill="transparent" d="M0 0h80v25H0z"/></symbol></defs><path class="a" d="M0 0h80v52.104H0z"/><g style="animation-duration:10.17s;animation-iteration-count:infinite;animation-name:p;animation-timing-function:steps(1,end)"><svg width="4560"><svg><use xlink:href="#a"/></svg><svg x="80"><use xlink:href="#a"/><text y="1.67" class="f">$</text></svg><svg x="160"><use xlink:href="#a"/><text y="1.67" class="f">$</text><text x="2.004" y="1.67" class="f">n</text></svg><svg x="240"><use xlink:href="#a"/><text y="1.67" class="f">$</text><text x="2.004" y="1.67" class="f">np</text></svg><svg x="320"><use xlink:href="#a"/><use xlink:href="#1"/></svg><svg x="400"><use xlink:href="#a"/><use xlink:href="#1"/></svg><svg x="480"><use xlink:href="#a"/><text y="1.67" class="f">$</text><text x="2.004" y="1.67" class="f">npx</text><text x="6.012" y="1.67" class="f">t</text></svg><svg x="560"><use xlink:href="#a"/><text y="1.67" class="f">$</text><text x="2.004" y="1.67" class="f">npx</text><text x="6.012" y="1.67" class="f">ts</text></svg><svg x="640"><use xlink:href="#a"/><text y="1.67" class="f">$</text><text x="2.004" y="1.67" class="f">npx</text><text x="6.012" y="1.67" class="f">ts-</text></svg><svg x="720"><use xlink:href="#a"/><text y="1.67" class="f">$</text><text x="2.004" y="1.67" class="f">npx</text><text x="6.012" y="1.67" class="f">ts-n</text></svg><svg x="800"><use xlink:href="#a"/><text y="1.67" class="f">$</text><text x="2.004" y="1.67" class="f">npx</text><text x="6.012" y="1.67" class="f">ts-no</text></svg><svg x="880"><use xlink:href="#a"/><text y="1.67" class="f">$</text><text x="2.004" y="1.67" class="f">npx</text><text x="6.012" y="1.67" class="f">ts-nod</text></svg><svg x="960"><use xlink:href="#a"/><use xlink:href="#2"/></svg><svg x="1040"><use xlink:href="#a"/><use xlink:href="#2"/></svg><svg x="1120"><use xlink:href="#a"/><text y="1.67" class="f">$</text><text x="2.004" y="1.67" class="f">npx</text><text x="6.012" y="1.67" class="f">ts-node</text><text x="14.028" y="1.67" class="f">e</text></svg><svg x="1200"><use xlink:href="#a"/><text y="1.67" class="f">$</text><text x="2.004" y="1.67" class="f">npx</text><text x="6.012" y="1.67" class="f">ts-node</text><text x="14.028" y="1.67" class="f">ex</text></svg><svg x="1280"><use xlink:href="#a"/><text y="1.67" class="f">$</text><text x="2.004" y="1.67" class="f">npx</text><text x="6.012" y="1.67" class="f">ts-node</text><text x="14.028" y="1.67" class="f">exa</text></svg><svg x="1360"><use xlink:href="#a"/><text y="1.67" class="f">$</text><text x="2.004" y="1.67" class="f">npx</text><text x="6.012" y="1.67" class="f">ts-node</text><text x="14.028" y="1.67" class="f">exam</text></svg><svg x="1440"><use xlink:href="#a"/><text y="1.67" class="f">$</text><text x="2.004" y="1.67" class="f">npx</text><text x="6.012" y="1.67" class="f">ts-node</text><text x="14.028" y="1.67" class="f">examp</text></svg><svg x="1520"><use xlink:href="#a"/><text y="1.67" class="f">$</text><text x="2.004" y="1.67" class="f">npx</text><text x="6.012" y="1.67" class="f">ts-node</text><text x="14.028" y="1.67" class="f">exampl</text></svg><svg x="1600"><use xlink:href="#a"/><text y="1.67" class="f">$</text><text x="2.004" y="1.67" class="f">npx</text><text x="6.012" y="1.67" class="f">ts-node</text><text x="14.028" y="1.67" class="f">example</text></svg><svg x="1680"><use xlink:href="#a"/><text y="1.67" class="f">$</text><text x="2.004" y="1.67" class="f">npx</text><text x="6.012" y="1.67" class="f">ts-node</text><text x="14.028" y="1.67" class="f">examples</text></svg><svg x="1760"><use xlink:href="#a"/><text y="1.67" class="f">$</text><text x="2.004" y="1.67" class="f">npx</text><text x="6.012" y="1.67" class="f">ts-node</text><text x="14.028" y="1.67" class="f">examples/</text></svg><svg x="1840"><use xlink:href="#a"/><text y="1.67" class="f">$</text><text x="2.004" y="1.67" class="f">npx</text><text x="6.012" y="1.67" class="f">ts-node</text><text x="14.028" y="1.67" class="f">examples/g</text></svg><svg x="1920"><use xlink:href="#a"/><text y="1.67" class="f">$</text><text x="2.004" y="1.67" class="f">npx</text><text x="6.012" y="1.67" class="f">ts-node</text><text x="14.028" y="1.67" class="f">examples/gi</text></svg><svg x="2000"><use xlink:href="#a"/><text y="1.67" class="f">$</text><text x="2.004" y="1.67" class="f">npx</text><text x="6.012" y="1.67" class="f">ts-node</text><text x="14.028" y="1.67" class="f">examples/gif</text></svg><svg x="2080"><use xlink:href="#a"/><text y="1.67" class="f">$</text><text x="2.004" y="1.67" class="f">npx</text><text x="6.012" y="1.67" class="f">ts-node</text><text x="14.028" y="1.67" class="f">examples/gif-</text></svg><svg x="2160"><use xlink:href="#a"/><text y="1.67" class="f">$</text><text x="2.004" y="1.67" class="f">npx</text><text x="6.012" y="1.67" class="f">ts-node</text><text x="14.028" y="1.67" class="f">examples/gif-d</text></svg><svg x="2240"><use xlink:href="#a"/><text y="1.67" class="f">$</text><text x="2.004" y="1.67" class="f">npx</text><text x="6.012" y="1.67" class="f">ts-node</text><text x="14.028" y="1.67" class="f">examples/gif-de</text></svg><svg x="2320"><use xlink:href="#a"/><text y="1.67" class="f">$</text><text x="2.004" y="1.67" class="f">npx</text><text x="6.012" y="1.67" class="f">ts-node</text><text x="14.028" y="1.67" class="f">examples/gif-dem</text></svg><svg x="2400"><use xlink:href="#a"/><text y="1.67" class="f">$</text><text x="2.004" y="1.67" class="f">npx</text><text x="6.012" y="1.67" class="f">ts-node</text><text x="14.028" y="1.67" class="f">examples/gif-demo</text></svg><svg x="2480"><use xlink:href="#a"/><text y="1.67" class="f">$</text><text x="2.004" y="1.67" class="f">npx</text><text x="6.012" y="1.67" class="f">ts-node</text><text x="14.028" y="1.67" class="f">examples/gif-demo.</text></svg><svg x="2560"><use xlink:href="#a"/><text y="1.67" class="f">$</text><text x="2.004" y="1.67" class="f">npx</text><text x="6.012" y="1.67" class="f">ts-node</text><text x="14.028" y="1.67" class="f">examples/gif-demo.t</text></svg><svg x="2640"><use xlink:href="#a"/><use xlink:href="#3"/></svg><svg x="2720"><use xlink:href="#a"/><use xlink:href="#3"/></svg><svg x="2800"><use xlink:href="#a"/><use xlink:href="#3"/></svg><svg x="2880"><use xlink:href="#a"/><use xlink:href="#3"/><use xlink:href="#4" y="4.342"/></svg><svg x="2960"><use xlink:href="#a"/><use xlink:href="#3"/><use xlink:href="#4" y="4.342"/><use xlink:href="#5" y="6.513"/></svg><svg x="3040"><use xlink:href="#a"/><use xlink:href="#3"/><use xlink:href="#4" y="4.342"/><use xlink:href="#5" y="6.513"/><use xlink:href="#4" y="8.684"/></svg><svg x="3120"><use xlink:href="#a"/><use xlink:href="#3"/><use xlink:href="#4" y="4.342"/><use xlink:href="#5" y="6.513"/><use xlink:href="#4" y="8.684"/></svg><svg x="3200"><use xlink:href="#a"/><use xlink:href="#3"/><use xlink:href="#4" y="4.342"/><use xlink:href="#5" y="6.513"/><use xlink:href="#4" y="8.684"/><use xlink:href="#6" y="13.026"/></svg><svg x="3280"><use xlink:href="#a"/><use xlink:href="#3"/><use xlink:href="#4" y="4.342"/><use xlink:href="#5" y="6.513"/><use xlink:href="#4" y="8.684"/><use xlink:href="#6" y="13.026"/><use xlink:href="#7" y="15.197"/></svg><svg x="3360"><use xlink:href="#a"/><use xlink:href="#3"/><use xlink:href="#4" y="4.342"/><use xlink:href="#5" y="6.513"/><use xlink:href="#4" y="8.684"/><use xlink:href="#6" y="13.026"/><use xlink:href="#7" y="15.197"/><use xlink:href="#8" y="17.368"/></svg><svg x="3440"><use xlink:href="#a"/><use xlink:href="#3"/><use xlink:href="#4" y="4.342"/><use xlink:href="#5" y="6.513"/><use xlink:href="#4" y="8.684"/><use xlink:href="#6" y="13.026"/><use xlink:href="#7" y="15.197"/><use xlink:href="#8" y="17.368"/><use xlink:href="#9" y="19.539"/></svg><svg x="3520"><use xlink:href="#a"/><use xlink:href="#3"/><use xlink:href="#4" y="4.342"/><use xlink:href="#5" y="6.513"/><use xlink:href="#4" y="8.684"/><use xlink:href="#6" y="13.026"/><use xlink:href="#7" y="15.197"/><use xlink:href="#8" y="17.368"/><use xlink:href="#9" y="19.539"/></svg><svg x="3600"><use xlink:href="#a"/><use xlink:href="#3"/><use xlink:href="#4" y="4.342"/><use xlink:href="#5" y="6.513"/><use xlink:href="#4" y="8.684"/><use xlink:href="#6" y="13.026"/><use xlink:href="#7" y="15.197"/><use xlink:href="#8" y="17.368"/><use xlink:href="#9" y="19.539"/><use xlink:href="#10" y="23.881"/></svg><svg x="3680"><use xlink:href="#a"/><use xlink:href="#3"/><use xlink:href="#4" y="4.342"/><use xlink:href="#5" y="6.513"/><use xlink:href="#4" y="8.684"/><use xlink:href="#6" y="13.026"/><use xlink:href="#7" y="15.197"/><use xlink:href="#8" y="17.368"/><use xlink:href="#9" y="19.539"/><use xlink:href="#10" y="23.881"/><use xlink:href="#11" y="26.052"/></svg><svg x="3760"><use xlink:href="#a"/><use xlink:href="#3"/><use xlink:href="#4" y="4.342"/><use xlink:href="#5" y="6.513"/><use xlink:href="#4" y="8.684"/><use xlink:href="#6" y="13.026"/><use xlink:href="#7" y="15.197"/><use xlink:href="#8" y="17.368"/><use xlink:href="#9" y="19.539"/><use xlink:href="#10" y="23.881"/><use xlink:href="#11" y="26.052"/><use xlink:href="#12" y="28.223"/></svg><svg x="3840"><use xlink:href="#a"/><use xlink:href="#3"/><use xlink:href="#4" y="4.342"/><use xlink:href="#5" y="6.513"/><use xlink:href="#4" y="8.684"/><use xlink:href="#6" y="13.026"/><use xlink:href="#7" y="15.197"/><use xlink:href="#8" y="17.368"/><use xlink:href="#9" y="19.539"/><use xlink:href="#10" y="23.881"/><use xlink:href="#11" y="26.052"/><use xlink:href="#12" y="28.223"/></svg><svg x="3920"><use xlink:href="#a"/><use xlink:href="#3"/><use xlink:href="#4" y="4.342"/><use xlink:href="#5" y="6.513"/><use xlink:href="#4" y="8.684"/><use xlink:href="#6" y="13.026"/><use xlink:href="#7" y="15.197"/><use xlink:href="#8" y="17.368"/><use xlink:href="#9" y="19.539"/><use xlink:href="#10" y="23.881"/><use xlink:href="#11" y="26.052"/><use xlink:href="#12" y="28.223"/><use xlink:href="#13" y="32.565"/></svg><svg x="4000"><use xlink:href="#a"/><use xlink:href="#3"/><use xlink:href="#4" y="4.342"/><use xlink:href="#5" y="6.513"/><use xlink:href="#4" y="8.684"/><use xlink:href="#6" y="13.026"/><use xlink:href="#7" y="15.197"/><use xlink:href="#8" y="17.368"/><use xlink:href="#9" y="19.539"/><use xlink:href="#10" y="23.881"/><use xlink:href="#11" y="26.052"/><use xlink:href="#12" y="28.223"/><use xlink:href="#13" y="32.565"/><use xlink:href="#14" y="34.736"/></svg><svg x="4080"><use xlink:href="#a"/><use xlink:href="#3"/><use xlink:href="#4" y="4.342"/><use xlink:href="#5" y="6.513"/><use xlink:href="#4" y="8.684"/><use xlink:href="#6" y="13.026"/><use xlink:href="#7" y="15.197"/><use xlink:href="#8" y="17.368"/><use xlink:href="#9" y="19.539"/><use xlink:href="#10" y="23.881"/><use xlink:href="#11" y="26.052"/><use xlink:href="#12" y="28.223"/><use xlink:href="#13" y="32.565"/><use xlink:href="#14" y="34.736"/><use xlink:href="#15" y="36.907"/></svg><svg x="4160"><use xlink:href="#a"/><use xlink:href="#3"/><use xlink:href="#4" y="4.342"/><use xlink:href="#5" y="6.513"/><use xlink:href="#4" y="8.684"/><use xlink:href="#6" y="13.026"/><use xlink:href="#7" y="15.197"/><use xlink:href="#8" y="17.368"/><use xlink:href="#9" y="19.539"/><use xlink:href="#10" y="23.881"/><use xlink:href="#11" y="26.052"/><use xlink:href="#12" y="28.223"/><use xlink:href="#13" y="32.565"/><use xlink:href="#14" y="34.736"/><use xlink:href="#15" y="36.907"/><use xlink:href="#16" y="39.078"/></svg><svg x="4240"><use xlink:href="#a"/><use xlink:href="#3"/><use xlink:href="#4" y="4.342"/><use xlink:href="#5" y="6.513"/><use xlink:href="#4" y="8.684"/><use xlink:href="#6" y="13.026"/><use xlink:href="#7" y="15.197"/><use xlink:href="#8" y="17.368"/><use xlink:href="#9" y="19.539"/><use xlink:href="#10" y="23.881"/><use xlink:href="#11" y="26.052"/><use xlink:href="#12" y="28.223"/><use xlink:href="#13" y="32.565"/><use xlink:href="#14" y="34.736"/><use xlink:href="#15" y="36.907"/><use xlink:href="#16" y="39.078"/></svg><svg x="4320"><use xlink:href="#a"/><use xlink:href="#3"/><use xlink:href="#4" y="4.342"/><use xlink:href="#5" y="6.513"/><use xlink:href="#4" y="8.684"/><use xlink:href="#6" y="13.026"/><use xlink:href="#7" y="15.197"/><use xlink:href="#8" y="17.368"/><use xlink:href="#9" y="19.539"/><use xlink:href="#10" y="23.881"/><use xlink:href="#11" y="26.052"/><use xlink:href="#12" y="28.223"/><use xlink:href="#13" y="32.565"/><use xlink:href="#14" y="34.736"/><use xlink:href="#15" y="36.907"/><use xlink:href="#16" y="39.078"/><use xlink:href="#17" y="43.42"/></svg><svg x="4400"><use xlink:href="#a"/><use xlink:href="#3"/><use xlink:href="#4" y="4.342"/><use xlink:href="#5" y="6.513"/><use xlink:href="#4" y="8.684"/><use xlink:href="#6" y="13.026"/><use xlink:href="#7" y="15.197"/><use xlink:href="#8" y="17.368"/><use xlink:href="#9" y="19.539"/><use xlink:href="#10" y="23.881"/><use xlink:href="#11" y="26.052"/><use xlink:href="#12" y="28.223"/><use xlink:href="#13" y="32.565"/><use xlink:href="#14" y="34.736"/><use xlink:href="#15" y="36.907"/><use xlink:href="#16" y="39.078"/><use xlink:href="#17" y="43.42"/></svg><svg x="4480"><use xlink:href="#a"/><use xlink:href="#3"/><use xlink:href="#4" y="4.342"/><use xlink:href="#5" y="6.513"/><use xlink:href="#4" y="8.684"/><use xlink:href="#6" y="13.026"/><use xlink:href="#7" y="15.197"/><use xlink:href="#8" y="17.368"/><use xlink:href="#9" y="19.539"/><use xlink:href="#10" y="23.881"/><use xlink:href="#11" y="26.052"/><use xlink:href="#12" y="28.223"/><use xlink:href="#13" y="32.565"/><use xlink:href="#14" y="34.736"/><use xlink:href="#15" y="36.907"/><use xlink:href="#16" y="39.078"/><use xlink:href="#17" y="43.42"/></svg></svg></g></g></svg></svg>