<svg width="24" height="24" viewBox="0 0 24 24" fill="none" xmlns="http://www.w3.org/2000/svg">
<path d="M10.84 19.2299C6.21001 19.2299 2.45001 15.47 2.45001 10.84C2.45001 6.20995 6.21001 2.44995 10.84 2.44995C15.47 2.44995 19.23 6.20995 19.23 10.84C19.23 15.47 15.47 19.2299 10.84 19.2299ZM21.14 21.15C20.74 21.54 20.11 21.55 19.72 21.15L15.73 17.15L17.14 15.74L21.14 19.7299C21.54 20.1199 21.53 20.75 21.14 21.15Z" fill="#43D0FB"/>
<path d="M17.23 10.84C17.23 14.37 14.37 17.23 10.84 17.23C7.31001 17.23 4.45001 14.37 4.45001 10.84C4.45001 7.30995 7.31001 4.44995 10.84 4.44995C14.37 4.44995 17.23 7.30995 17.23 10.84Z" fill="#CDF3FF"/>
<path d="M21.35 19.5801L17.58 15.8101C17.08 16.4801 16.49 17.0801 15.81 17.5801L19.58 21.3501C20.07 21.8401 20.86 21.8401 21.35 21.3501C21.84 20.8601 21.84 20.0701 21.35 19.5801Z" fill="#1BA5CF"/>
</svg>
