<svg width="18" height="18" viewBox="0 0 18 18" fill="none" xmlns="http://www.w3.org/2000/svg">
<g clip-path="url(#clip0_6_2)">
<g clip-path="url(#clip1_6_2)">
<path d="M9.27441 0.665527C11.3633 0.665642 13.0565 2.35888 13.0566 4.44775H11.9053C11.9051 2.99469 10.7275 1.81603 9.27441 1.81592C7.82124 1.81592 6.64274 2.99462 6.64258 4.44775H5.49219C5.49235 2.35881 7.18544 0.665527 9.27441 0.665527Z" fill="#006CFF" style="fill:#006CFF;fill:color(display-p3 0.0000 0.4235 1.0000);fill-opacity:1;"/>
<path d="M11.2727 3.94611C13.1075 3.27842 15.1368 4.2239 15.805 6.05842C16.4727 7.89338 15.5256 9.92271 13.6907 10.5906C12.2996 11.0967 10.8009 10.6733 9.86454 9.64143L11.0823 9.19904C11.7019 9.64685 12.5254 9.78943 13.2972 9.50861C14.5347 9.05811 15.1734 7.68952 14.7229 6.45197C14.2724 5.21536 12.9042 4.57684 11.6673 5.02619L11.6682 5.02815L6.28153 6.98811C6.09813 7.05523 6.004 7.25957 6.07059 7.44319C6.13768 7.62669 6.34101 7.72177 6.52469 7.6551L9.36063 6.6219L9.35575 6.62385L9.7493 7.70588L9.75419 7.70295L9.75516 7.70393L6.91825 8.73615C6.13713 9.02027 5.27411 8.61766 4.98954 7.83674C4.70546 7.05556 5.1079 6.19152 5.88895 5.90705L11.2727 3.94709V3.94611Z" fill="url(#paint0_radial_6_2)"/>
<path d="M11.2734 3.94621C13.1084 3.27836 15.1376 4.22368 15.8057 6.05852C16.4734 7.89353 15.5264 9.92286 13.6914 10.5907C12.1557 11.1494 10.4859 10.578 9.58984 9.30266L10.5312 8.64055C11.1358 9.50108 12.2634 9.88511 13.2979 9.50871C14.5355 9.05826 15.1741 7.68967 14.7236 6.45207C14.2731 5.21474 12.9044 4.57693 11.667 5.02727L11.2734 3.94621Z" fill="url(#paint1_linear_6_2)"/>
<path d="M4.84786 3.94523C6.23643 3.43983 7.73321 3.86085 8.67012 4.88859L7.4504 5.33292C6.83134 4.88832 6.01069 4.74629 5.24141 5.02628C4.00463 5.47706 3.3666 6.84578 3.81661 8.08292C4.2561 9.2899 5.5687 9.92346 6.78145 9.53605L12.1262 7.59171C12.3095 7.5246 12.4045 7.32115 12.3381 7.13761C12.2712 6.9539 12.0668 6.85906 11.883 6.9257L9.74141 7.70499L9.34786 6.62296L11.4895 5.84366C12.2707 5.55957 13.1348 5.96288 13.4191 6.74406C13.7031 7.52505 13.3004 8.38816 12.5197 8.67277L7.26387 10.5849L7.2668 10.5907C5.4321 11.2579 3.40347 10.311 2.73555 8.47648C2.06805 6.64188 3.01364 4.6135 4.84786 3.94523Z" fill="url(#paint2_linear_6_2)"/>
</g>
<path d="M17.0166 13.2027C17.21 13.2027 17.2819 13.2303 17.2653 13.3906C17.1934 14.0925 15.8339 15.0873 14.3195 15.5184L14.4964 14.9215C14.828 14.833 15.2038 14.6838 15.552 14.5014L15.248 13.9985C15.0214 14.1643 14.7838 14.3025 14.5627 14.4075L14.6953 13.7774C15.0656 13.5674 15.4636 13.2027 15.6294 12.8379H16.2207C16.171 12.965 16.1047 13.0866 16.0328 13.2027H17.0166ZM14.4411 14.7336H13.7447L13.3302 17.812H12.7444L13.17 14.7336H12.4183L12.4791 14.2583H13.2363L13.3358 13.5453C13.1036 13.5729 12.866 13.5951 12.6394 13.6116L12.7002 13.0921C13.3689 13.0313 14.0045 12.9484 14.5903 12.8545L14.524 13.3906C14.3416 13.4182 14.1371 13.4458 13.9161 13.4735L13.8111 14.2583H14.5019L14.4411 14.7336ZM16.5579 13.7222C16.6021 13.6669 16.5523 13.6448 16.4694 13.6448H15.6625C15.5852 13.7222 15.5023 13.7995 15.4138 13.8714H15.7288C15.8117 13.993 15.8836 14.109 15.9776 14.2417C16.2152 14.0814 16.4197 13.9046 16.5579 13.7222ZM16.9613 15.3581C17.1547 15.3581 17.2321 15.3857 17.21 15.546C17.0608 16.5408 15.6625 17.5135 14.1593 17.9004L14.3361 17.3035C14.7009 17.1764 15.0822 17.0161 15.4359 16.8116C15.3088 16.6071 15.1983 16.4026 15.0656 16.176C14.8169 16.3363 14.5572 16.4634 14.3029 16.5684L14.4356 15.9384C14.8335 15.756 15.3972 15.3912 15.6459 15.0099H16.2484C16.182 15.1315 16.1047 15.2476 16.0162 15.3581H16.9613ZM12.562 15.1812H13.0263C12.8605 15.9329 12.667 16.7011 12.4736 17.3864H11.9375C12.1807 16.6513 12.4073 15.8721 12.562 15.1812ZM13.8055 15.1812H14.2256C14.1924 15.8997 14.1593 16.6679 14.1427 17.3864H13.6508C13.7005 16.6403 13.7558 15.9108 13.8055 15.1812ZM16.5413 15.8776C16.5855 15.8168 16.5358 15.8002 16.4529 15.8002H15.5852C15.4415 15.9218 15.2867 16.0324 15.132 16.1374H15.5796C15.6681 16.27 15.751 16.3971 15.856 16.5463C16.1268 16.3529 16.3589 16.1318 16.5413 15.8776Z" fill="black" style="fill:black;fill-opacity:1;"/>
<path d="M8.23822 14.1034H7.5308C7.3871 13.7331 7.2213 13.2744 7.08313 12.8599H7.70765C7.83477 13.1915 8.02821 13.6668 8.23822 14.1034ZM10.5373 13.6226L10.3881 14.7611H11.5819L11.499 15.264H10.3218L10.0786 17.1155H9.43753L9.69176 15.264H8.46482L8.54772 14.7611H9.75808L9.90177 13.6999C9.50937 13.7441 9.09487 13.7884 8.66378 13.827L8.73563 13.2799C9.78571 13.1915 10.7308 13.0644 11.6372 12.9151L11.5598 13.4899C11.2448 13.5341 10.9076 13.5783 10.5373 13.6226ZM7.75187 16.8391C8.28244 17.1597 9.15566 17.2757 9.9902 17.2757H11.4714L11.2779 17.8118H9.81887C8.813 17.8118 8.00057 17.6018 7.48106 17.2923C7.35947 17.4802 7.24341 17.6626 7.13287 17.8118H6.41992C6.8289 17.2702 7.19367 16.7396 7.4479 16.1372L7.57501 15.1369C7.58054 15.0761 7.56949 15.0485 7.50316 15.0485H6.81232L6.88969 14.5842H7.93978C8.15532 14.5842 8.23269 14.645 8.20506 14.8661L8.02268 16.3307C7.95636 16.4744 7.85688 16.6512 7.75187 16.8391Z" fill="black" style="fill:black;fill-opacity:1;"/>
<path d="M5.73642 13.125L5.65352 13.6335H1.96718L2.05008 13.125H5.73642ZM3.70811 15.2528C3.2107 15.9989 2.6525 16.6842 2.18825 17.2037H4.6366C4.39342 16.7616 4.1613 16.3139 3.95128 15.8884H4.6366C4.94057 16.4687 5.35508 17.1319 5.79722 17.8117H4.97373C4.89083 17.668 4.81346 17.5243 4.73608 17.3806L4.5537 17.7122H1C1.73506 16.9108 2.40379 16.0542 2.91225 15.2528H1.29292L1.37029 14.7443H6.03487L5.95749 15.2528H3.70811Z" fill="black" style="fill:black;fill-opacity:1;"/>
</g>
<defs>
<radialGradient id="paint0_radial_6_2" cx="0" cy="0" r="1" gradientTransform="matrix(12.0767 -3.71186 8.93436 14.3324 5.33783 8.14659)" gradientUnits="userSpaceOnUse">
<stop offset="0.413847" stop-color="#27E2EB" style="stop-color:#27E2EB;stop-color:color(display-p3 0.1540 0.8871 0.9200);stop-opacity:1;"/>
<stop offset="0.627182" stop-color="#2097FF" style="stop-color:#2097FF;stop-color:color(display-p3 0.1269 0.5926 1.0000);stop-opacity:1;"/>
<stop offset="1" stop-color="#0052D9" style="stop-color:#0052D9;stop-color:color(display-p3 0.0000 0.3216 0.8510);stop-opacity:1;"/>
</radialGradient>
<linearGradient id="paint1_linear_6_2" x1="10.9626" y1="9.26195" x2="13.9538" y2="4.0181" gradientUnits="userSpaceOnUse">
<stop stop-color="#2097FF" style="stop-color:#2097FF;stop-color:color(display-p3 0.1255 0.5922 1.0000);stop-opacity:1;"/>
<stop offset="0.53238" stop-color="#2097FF" stop-opacity="0" style="stop-color:none;stop-opacity:0;"/>
</linearGradient>
<linearGradient id="paint2_linear_6_2" x1="9.44131" y1="7.26797" x2="2.28501" y2="3.99231" gradientUnits="userSpaceOnUse">
<stop stop-color="#27E2EB" style="stop-color:#27E2EB;stop-color:color(display-p3 0.1540 0.8871 0.9200);stop-opacity:1;"/>
<stop offset="0.599491" stop-color="#2097FF" style="stop-color:#2097FF;stop-color:color(display-p3 0.1269 0.5926 1.0000);stop-opacity:1;"/>
<stop offset="1" stop-color="#0052D9" style="stop-color:#0052D9;stop-color:color(display-p3 0.0000 0.3216 0.8510);stop-opacity:1;"/>
</linearGradient>
<clipPath id="clip0_6_2">
<rect width="18" height="18" fill="white" style="fill:white;fill-opacity:1;"/>
</clipPath>
<clipPath id="clip1_6_2">
<rect width="13.5" height="13.5" fill="white" style="fill:white;fill-opacity:1;" transform="translate(2.51758 -1)"/>
</clipPath>
</defs>
</svg>
