<svg xmlns="http://www.w3.org/2000/svg" width="512" height="512" viewBox="0 0 512 512">
  <defs>
    <linearGradient id="bg" x1="0" y1="0" x2="1" y2="1">
      <stop offset="0%" stop-color="#115E59"/>
      <stop offset="100%" stop-color="#14B8A6"/>
    </linearGradient>
  </defs>
  <rect width="512" height="512" rx="88" fill="url(#bg)"/>
  <rect x="82" y="72" width="348" height="368" rx="34" fill="#F8FAFC"/>
  <rect x="118" y="124" width="160" height="24" rx="12" fill="#0F766E"/>
  <rect x="118" y="178" width="238" height="16" rx="8" fill="#99F6E4"/>
  <rect x="118" y="214" width="208" height="16" rx="8" fill="#99F6E4"/>
  <rect x="118" y="250" width="182" height="16" rx="8" fill="#99F6E4"/>
  <rect x="118" y="286" width="226" height="16" rx="8" fill="#99F6E4"/>
  <circle cx="352" cy="340" r="68" fill="#0F766E"/>
  <path d="M351 304l14 31 34 3-26 22 8 33-30-18-30 18 8-33-26-22 34-3z" fill="#F8FAFC"/>
</svg>
