<svg xmlns="http://www.w3.org/2000/svg" width="1600" height="900" viewBox="0 0 1600 900" role="img" aria-labelledby="title desc">
  <title>Custom layout preview / 自定义布局预览</title>
  <desc>Grouped module selection, preview-first flow, and generate-only custom output.</desc>
  <defs>
    <linearGradient id="bg" x1="0" y1="0" x2="1" y2="1">
      <stop offset="0%" stop-color="#0b1020" />
      <stop offset="55%" stop-color="#10192b" />
      <stop offset="100%" stop-color="#1e293b" />
    </linearGradient>
  </defs>
  
<style>
  .bg { fill: url(#bg); }
  .panel { fill: #111827; stroke: #243041; stroke-width: 1.2; }
  .panel-soft { fill: #0f172a; stroke: #243041; stroke-width: 1.2; }
  .panel-muted { fill: #0b1220; stroke: #1f2937; stroke-width: 1.2; }
  .terminal { fill: #0b1020; stroke: #334155; stroke-width: 1.2; }
  .title { fill: #f8fafc; font: 700 34px 'Segoe UI', 'Inter', Arial, sans-serif; }
  .subtitle { fill: #94a3b8; font: 500 17px 'Segoe UI', 'Inter', Arial, sans-serif; }
  .section { fill: #e2e8f0; font: 700 21px 'Segoe UI', 'Inter', Arial, sans-serif; }
  .body { fill: #dbe4f0; font: 500 18px 'Segoe UI', 'Inter', Arial, sans-serif; }
  .small { fill: #94a3b8; font: 500 15px 'Segoe UI', 'Inter', Arial, sans-serif; }
  .mono { fill: #e5edf7; font: 600 19px 'Cascadia Code', Consolas, Menlo, monospace; }
  .mono-small { fill: #dbe4f0; font: 500 17px 'Cascadia Code', Consolas, Menlo, monospace; }
  .mono-tiny { fill: #cbd5e1; font: 500 15px 'Cascadia Code', Consolas, Menlo, monospace; }
  .chip { fill: #0f172a; stroke: #334155; stroke-width: 1; }
  .chip-text { fill: #cbd5e1; font: 600 14px 'Segoe UI', 'Inter', Arial, sans-serif; }
  .badge { fill: #1d4ed8; }
  .badge-text { fill: #eff6ff; font: 700 14px 'Segoe UI', 'Inter', Arial, sans-serif; }
  .accent-text { fill: #7dd3fc; font: 700 15px 'Segoe UI', 'Inter', Arial, sans-serif; }
  .green { fill: #86efac; }
  .yellow { fill: #fde68a; }
  .orange { fill: #fdba74; }
  .pink { fill: #f9a8d4; }
  .blue { fill: #93c5fd; }
  .muted { fill: #64748b; }
</style>

  <rect class="bg" x="0" y="0" width="1600" height="900" rx="0"/>
  <rect x="48" y="38" width="1504" height="824" rx="28" fill="rgba(15,23,42,0.65)" stroke="#334155" stroke-width="1.2"/>
  <text class="title" x="90" y="102">Custom layout preview / 自定义布局预览</text>
  <text class="subtitle" x="90" y="136">Grouped module selection, preview-first flow, and generate-only custom output.</text>
  <rect class="panel-soft" x="90" y="182" width="500" height="636" rx="24"/>
<text class="section" x="118" y="226">Grouped modules / 模块分组</text>
<text class="small" x="118" y="254">Select modules by group, then map them into 1 / 2 / 3 lines.</text>
<rect x="118" y="292" width="118" height="34" rx="17" fill="#132238" stroke="#3b82f6" stroke-width="1"/><text x="177.0" y="314" text-anchor="middle" style="fill:#cbd5e1;font:600 14px Segoe UI, Inter, Arial, sans-serif;">Base / 基础</text>
<rect x="248" y="292" width="166" height="34" rx="17" fill="#11261f" stroke="#10b981" stroke-width="1"/><text x="331.0" y="314" text-anchor="middle" style="fill:#cbd5e1;font:600 14px Segoe UI, Inter, Arial, sans-serif;">Environment / 环境</text>
<rect x="428" y="292" width="136" height="34" rx="17" fill="#2b1d16" stroke="#f59e0b" stroke-width="1"/><text x="496.0" y="314" text-anchor="middle" style="fill:#cbd5e1;font:600 14px Segoe UI, Inter, Arial, sans-serif;">Metrics / 统计</text>
<rect x="118" y="348" width="118" height="34" rx="17" fill="#0f172a" stroke="#334155" stroke-width="1"/><text x="177.0" y="370" text-anchor="middle" style="fill:#cbd5e1;font:600 14px Segoe UI, Inter, Arial, sans-serif;">model</text>
<rect x="248" y="348" width="118" height="34" rx="17" fill="#0f172a" stroke="#334155" stroke-width="1"/><text x="307.0" y="370" text-anchor="middle" style="fill:#cbd5e1;font:600 14px Segoe UI, Inter, Arial, sans-serif;">modes</text>
<rect x="378" y="348" width="118" height="34" rx="17" fill="#0f172a" stroke="#334155" stroke-width="1"/><text x="437.0" y="370" text-anchor="middle" style="fill:#cbd5e1;font:600 14px Segoe UI, Inter, Arial, sans-serif;">active</text>
<rect x="118" y="394" width="118" height="34" rx="17" fill="#0f172a" stroke="#334155" stroke-width="1"/><text x="177.0" y="416" text-anchor="middle" style="fill:#cbd5e1;font:600 14px Segoe UI, Inter, Arial, sans-serif;">cwd</text>
<rect x="248" y="394" width="118" height="34" rx="17" fill="#0f172a" stroke="#334155" stroke-width="1"/><text x="307.0" y="416" text-anchor="middle" style="fill:#cbd5e1;font:600 14px Segoe UI, Inter, Arial, sans-serif;">git</text>
<rect x="378" y="394" width="118" height="34" rx="17" fill="#0f172a" stroke="#334155" stroke-width="1"/><text x="437.0" y="416" text-anchor="middle" style="fill:#cbd5e1;font:600 14px Segoe UI, Inter, Arial, sans-serif;">context</text>
<rect x="118" y="440" width="132" height="34" rx="17" fill="#0f172a" stroke="#334155" stroke-width="1"/><text x="184.0" y="462" text-anchor="middle" style="fill:#cbd5e1;font:600 14px Segoe UI, Inter, Arial, sans-serif;">ctx_tokens</text>
<rect x="264" y="440" width="132" height="34" rx="17" fill="#0f172a" stroke="#334155" stroke-width="1"/><text x="330.0" y="462" text-anchor="middle" style="fill:#cbd5e1;font:600 14px Segoe UI, Inter, Arial, sans-serif;">sum_tokens</text>
<rect x="410" y="440" width="118" height="34" rx="17" fill="#0f172a" stroke="#334155" stroke-width="1"/><text x="469.0" y="462" text-anchor="middle" style="fill:#cbd5e1;font:600 14px Segoe UI, Inter, Arial, sans-serif;">cost</text>
<text class="body" x="118" y="516">Example choice / 示例组合</text>
<text class="mono-small" x="118" y="552">Line 1 → model, active, cost</text>
<text class="mono-small" x="118" y="584">Line 2 → cwd, git, context</text>
<text class="mono-small" x="118" y="616">Line 3 → -</text>
<rect x="118" y="660" width="120" height="34" rx="17" fill="#0d2730" stroke="#06b6d4" stroke-width="1"/><text x="178.0" y="682" text-anchor="middle" style="fill:#cbd5e1;font:600 14px Segoe UI, Inter, Arial, sans-serif;">Ocean / 海洋</text>
<rect x="250" y="660" width="152" height="34" rx="17" fill="#1f2937" stroke="#64748b" stroke-width="1"/><text x="326.0" y="682" text-anchor="middle" style="fill:#cbd5e1;font:600 14px Segoe UI, Inter, Arial, sans-serif;">developer icons</text>
<rect x="414" y="660" width="128" height="34" rx="17" fill="#231c38" stroke="#a855f7" stroke-width="1"/><text x="478.0" y="682" text-anchor="middle" style="fill:#cbd5e1;font:600 14px Segoe UI, Inter, Arial, sans-serif;">generate only</text>
<rect class="terminal" x="636" y="182" width="874" height="304" rx="24"/>
<rect x="636" y="182" width="874" height="44" rx="24" fill="#111827" stroke="#334155" stroke-width="1.2"/>
<circle cx="660" cy="204" r="6" fill="#fb7185"/>
<circle cx="682" cy="204" r="6" fill="#fbbf24"/>
<circle cx="704" cy="204" r="6" fill="#34d399"/>
<text class="small" x="732" y="209">Statusline preview / 状态栏预览</text>
<rect x="636" y="226" width="874" height="6" fill="#22d3ee"/>
<text class="mono-small" x="660" y="270">- Mode / 模式: custom</text>
<text class="mono-small" x="660" y="301">- Preset / 预设: custom (from scratch)</text>
<text class="mono-small" x="660" y="332">- Lines / 行数: 2</text>
<text class="mono-small" x="660" y="363">- Line 1 / 第 1 行: model, active, cost</text>
<text class="mono-small" x="660" y="394">- Line 2 / 第 2 行: cwd, git, context</text>
<text class="mono-small" x="660" y="425">- Theme / 主题: ocean   |   Icon style / 图标: developer</text>
<text class="mono-small" x="660" y="456">- Activation / 启用: generate only</text>
<rect class="terminal" x="636" y="526" width="874" height="228" rx="24"/>
<rect x="636" y="526" width="874" height="44" rx="24" fill="#111827" stroke="#334155" stroke-width="1.2"/>
<circle cx="660" cy="548" r="6" fill="#fb7185"/>
<circle cx="682" cy="548" r="6" fill="#fbbf24"/>
<circle cx="704" cy="548" r="6" fill="#34d399"/>
<text class="small" x="732" y="553">Generated custom statusline / 生成后的 custom 脚本</text>
<rect x="636" y="570" width="874" height="6" fill="#10b981"/>
<text class="mono-small" x="660" y="614">λ Claude Opus 4.6 │ ● Active │ $ $0.28</text>
<text class="mono-small" x="660" y="645">:: cl/cc-statusline │ git main ✓ │ [] 92.5K/200.0K █████░░░░ 46%</text>
<text class="mono-small" x="660" y="676"></text>
<text class="mono-small" x="660" y="707">Output file / 输出文件: ~/.claude/statusline.custom.sh</text>
<text class="mono-small" x="660" y="738">settings.json change / 设置改动: none (generate only)</text>
<text class="accent-text" x="636" y="792">The skill previews first, then decides whether to activate or only generate / 先预览，再决定是立即启用还是仅生成。</text>
</svg>
