<?xml version="1.0" encoding="UTF-8"?><svg id="a" xmlns="http://www.w3.org/2000/svg" viewBox="0 0 536.2664 287.157"><defs><style>.b{fill:#fff;}</style></defs><path class="b" d="M72.8772,219.1385c-4.919-1.6969-11.305-3.3079-19.151-4.8315-5.9725-1.1692-10.6015-2.2537-13.8785-3.2505-3.2805-.9934-6.0342-2.4294-8.2578-4.3047-2.2271-1.8718-3.3389-4.4497-3.3389-7.7302,0-4.2164,1.7844-7.5244,5.3583-9.9264,3.5721-2.3995,8.5786-3.6013,15.0229-3.6013,6.6759,0,12.2366,1.4652,16.6906,4.3922,4.4489,2.9288,7.3776,7.3785,8.7845,13.3518h13.8785c-1.642-9.6021-5.9725-17.1572-13.0001-22.6638-7.0276-5.5042-15.8121-8.2571-26.3536-8.2571-10.3082,0-18.7719,2.4596-25.3877,7.3785-6.6193,4.9198-9.9272,11.7716-9.9272,20.5563,0,6.2092,1.6385,11.0681,4.919,14.5819,3.2787,3.5138,7.2318,6.0616,11.8591,7.6427,4.6256,1.5811,10.7457,3.1348,18.36,4.6558,6.0891,1.1726,10.9807,2.3445,14.6712,3.5137,3.6888,1.1729,6.7325,2.8988,9.1346,5.1833,2.4003,2.2836,3.603,5.3008,3.603,9.0479,0,4.804-2.0211,8.4937-6.0617,11.0681-4.0405,2.5779-9.4605,3.8656-16.2514,3.8656-8.3178,0-14.8462-1.757-19.5902-5.2708-4.744-3.5138-7.7603-8.3727-9.0471-14.5819h-15.6371c1.6385,10.3081,6.3242,18.3892,14.0552,24.2449,7.7311,5.8584,17.7441,8.7847,30.0425,8.7847,11.83,0,21.0228-2.6628,27.5838-7.9937,6.5593-5.3291,9.8397-12.5625,9.8397-21.698,0-6.7917-1.7569-12.0925-5.2707-15.9005-3.5139-3.8046-7.7311-6.5575-12.6501-8.257Z"/><path class="b" d="M131.0359,137.1788h-14.9337v36.8951h-15.6354v13.1769h15.6354v59.559c0,9.2538,1.8719,15.6364,5.6225,19.1501,3.7471,3.5138,9.5446,5.2708,17.394,5.2708h13.5269v-13.1769h-10.013c-3.5139,0-6.0926-.5542-7.7311-1.6694-1.6419-1.1117-2.6954-2.6353-3.162-4.5671-.4702-1.9329-.7035-4.5957-.7035-7.9945v-56.5719h21.7864v-13.1769h-21.7864v-36.8951Z"/><path class="b" d="M236.7928,215.5364c0,9.9572-.676,17.8058-2.0212,23.5432-1.3468,5.74-3.6013,10.2499-6.7634,13.5277-4.4523,4.804-10.3665,7.2035-17.7441,7.2035-6.6776,0-11.6567-1.8143-14.9337-5.4467-3.7505-4.2163-5.6224-11.4773-5.6224-21.7854v-58.5048h-14.9337v58.5048c0,11.0107,1.5201,19.386,4.5673,25.1234,5.5041,10.1906,15.0487,15.2855,28.6373,15.2855,5.5041,0,10.5123-1.3177,15.0229-3.9531,4.5073-2.6353,9.1054-6.9402,13.7911-12.9135v15.1096h14.9337v-97.1567h-14.9337v41.4624Z"/><path class="b" d="M345.3752,189.1827c-4.9207-6.3242-9.7831-10.7166-14.5837-13.1768-4.8041-2.4596-10.5415-3.689-17.2191-3.689-8.6678,0-16.2514,2.1079-22.7506,6.3242-6.5009,4.2173-11.5383,10.1631-15.1104,17.8333-3.5739,7.6729-5.3582,16.4265-5.3582,26.2654s1.7844,18.5659,5.3582,26.1777c3.5721,7.6152,8.637,13.5286,15.1979,17.745,6.5593,4.2164,14.1119,6.3251,22.6631,6.3251,6.7943,0,12.59-1.2603,17.3941-3.7772,4.8006-2.5179,9.6047-6.8793,14.4087-13.0894v15.1096h14.9337v-134.0519h-14.9337v52.0039ZM341.9471,241.8025c-2.6353,5.6825-6.2967,10.1022-10.9807,13.2643-4.684,3.163-10.013,4.744-15.9872,4.744s-11.2175-1.6085-15.723-4.8314c-4.5124-3.2205-7.9679-7.6428-10.3682-13.2644-2.402-5.6224-3.6013-11.9475-3.6013-18.9751,0-7.1426,1.1993-13.5277,3.6013-19.1501,2.4003-5.6224,5.8558-10.0422,10.3682-13.2644,4.5055-3.2203,9.7488-4.8314,15.723-4.8314s11.3032,1.6111,15.9872,4.8314c4.684,3.2222,8.3453,7.642,10.9807,13.2644,2.6354,5.6224,3.9531,12.0076,3.9531,19.1501,0,7.0276-1.3177,13.3827-3.9531,19.0626Z"/><path class="b" d="M395.6145,135.422c-3.1638,0-5.8592,1.0535-8.0828,3.1621-2.2253,2.1086-3.3371,4.6857-3.3371,7.7302,0,3.0471,1.1118,5.6525,3.3371,7.8186,2.2236,2.1687,4.919,3.2505,8.0828,3.2505,3.1621,0,5.8541-1.0818,8.0811-3.2505,2.2236-2.1661,3.3388-4.7715,3.3388-7.8186,0-3.0446-1.1152-5.6216-3.3388-7.7302-2.2271-2.1086-4.919-3.1621-8.0811-3.1621Z"/><rect class="b" x="388.0585" y="174.0739" width="14.9337" height="97.1567"/><path class="b" d="M514.727,196.5621c-4.1006-7.6128-9.7814-13.556-17.0424-17.8325-7.2627-4.2747-15.4604-6.4126-24.5967-6.4126s-17.3049,2.1379-24.5092,6.4126c-7.2026,4.2765-12.8251,10.2197-16.8656,17.8325-4.0406,7.6152-6.0617,16.1638-6.0617,25.651,0,9.723,2.0211,18.4475,6.0617,26.1777,4.0405,7.7302,9.663,13.7645,16.8656,18.0958,7.2043,4.3347,15.373,6.501,24.5092,6.501,9.2512,0,17.509-2.1962,24.7734-6.5884,7.261-4.3923,12.9126-10.4231,16.9532-18.0959,4.0405-7.6702,6.0616-16.3672,6.0616-26.0902,0-9.4872-2.0503-18.0358-6.1492-25.651ZM501.4628,241.4508c-2.8722,5.6824-6.7943,10.1631-11.7717,13.4409-4.9791,3.2805-10.514,4.9191-16.6031,4.9191s-11.6258-1.6085-16.6031-4.8314c-4.9791-3.2205-8.8721-7.7002-11.6824-13.4402-2.8121-5.7375-4.2173-12.1809-4.2173-19.326,0-6.91,1.4052-13.1769,4.2173-18.7992,2.8104-5.6217,6.7034-10.0139,11.6824-13.1769,4.9773-3.1621,10.5123-4.7432,16.6031-4.7432,6.2075,0,11.7991,1.6111,16.7781,4.8314,4.9774,3.2222,8.8738,7.642,11.6841,13.2644,2.8104,5.6224,4.2173,11.8317,4.2173,18.6234,0,7.1451-1.4361,13.5585-4.3047,19.2377Z"/><path class="b" d="M36.5313,110.7887c-7.615-4.3307-13.4991-10.3341-17.654-18.0057-4.1583-7.6691-6.2375-16.364-6.2375-26.0865,0-9.0166,1.8459-17.4782,5.5342-25.3832s9.2499-14.3166,16.6882-19.2357c7.4349-4.9183,16.5407-7.3774,27.3157-7.3774,8.8982,0,17.0982,1.8441,24.5932,5.5333,7.4932,3.6891,13.5266,9.3708,18.0932,17.039,4.5683,7.6716,6.8516,17.1883,6.8516,28.5457v5.095H37.2329c.3517,4.1,1.5817,7.965,3.69,11.5932,2.3416,4.5675,5.4724,8.1108,9.3974,10.6283,3.9233,2.5192,8.4024,3.7766,13.4391,3.7766,5.3849,0,10.0133-1.375,13.8766-4.1283,3.865-2.7499,6.6149-6.2933,8.2566-10.6274h24.2415c-3.1616,10.4241-8.725,18.884-16.6882,25.3832-7.965,6.5-18.1533,9.75-30.5648,9.75-9.955,0-18.7382-2.1658-26.3498-6.5ZM87.4743,53.1708c-.47-3.7466-1.7-6.7907-3.69-9.135-2.225-3.3949-5.1533-5.9999-8.7833-7.8166-3.63-1.815-7.6716-2.7233-12.1199-2.7233-4.4517,0-8.4625.8783-12.0341,2.635-3.5734,1.7567-6.4708,4.3916-8.6941,7.905-2.1083,2.5775-3.3984,5.6216-3.865,9.135h49.1864Z"/><path class="b" d="M422.928,110.7887c-7.6133-4.3307-13.4974-10.3341-17.654-18.0057-4.1583-7.6691-6.2358-16.364-6.2358-26.0865,0-9.0166,1.8441-17.4782,5.5342-25.3832,3.6883-7.905,9.2499-14.3166,16.6882-19.2357,7.4349-4.9183,16.539-7.3774,27.3157-7.3774,8.8982,0,17.0965,1.8441,24.5932,5.5333,7.4932,3.6891,13.5266,9.3708,18.0932,17.039,4.5666,7.6716,6.8516,17.1883,6.8516,28.5457v5.095h-74.4829c.3517,4.1,1.5817,7.965,3.6883,11.5932,2.3416,4.5675,5.4741,8.1108,9.3991,10.6283,3.9216,2.5192,8.4007,3.7766,13.4374,3.7766,5.3866,0,10.0133-1.375,13.8783-4.1283,3.865-2.7499,6.6149-6.2933,8.2566-10.6274h24.2415c-3.1616,10.4241-8.725,18.884-16.6882,25.3832-7.965,6.5-18.1533,9.75-30.5665,9.75-9.955,0-18.7382-2.1658-26.3498-6.5ZM473.871,53.1708c-.4683-3.7466-1.6983-6.7907-3.6883-9.135-2.2267-3.3949-5.155-5.9999-8.7833-7.8166-3.6317-1.815-7.6716-2.7233-12.1216-2.7233s-8.4608.8783-12.0324,2.635c-3.5734,1.7567-6.4725,4.3916-8.6958,7.905-2.1083,2.5775-3.3984,5.6216-3.865,9.135h49.1864Z"/><path class="b" d="M373.1629,24.2846c-5.3814-6.316-13.4528-9.4743-24.213-9.4743-6.5524,0-12.2244,1.2584-17.0195,3.7722-4.6915,2.4611-8.5908,6.3559-11.7145,11.6662-1.0907-2.1864-2.3882-4.1794-3.908-5.9641-5.3813-6.316-13.4527-9.4743-24.213-9.4743-6.5524,0-12.2245,1.2584-17.0196,3.7722-4.6867,2.4586-8.5825,6.3483-11.7047,11.6504-1.0891-2.1802-2.3839-4.1678-3.9-5.9482-5.3814-6.316-13.4527-9.4743-24.213-9.4743-6.5525,0-12.2245,1.2584-17.0196,3.7722-4.7976,2.5168-8.7725,6.5223-11.9308,12.0186-1.5214-5.1454-4.5617-9.0632-9.1239-11.7556-4.5617-2.6895-10.1188-4.0352-16.6682-4.0352-5.3819,0-10.2643,1.1404-14.6509,3.4213-4.3865,2.2809-8.4518,5.9958-12.1943,11.1412v-12.4573h-23.6864v98.4316h23.6864v-52.1108c0-6.1985.4663-11.1417,1.404-14.826.9346-3.6848,2.3958-6.695,4.386-9.0361,3.0408-3.3912,7.0187-5.0883,11.9313-5.0883,5.028,0,8.888,1.6093,11.58,4.8253,2.6894,3.2184,4.0356,8.101,4.0356,14.6503v61.5856h23.687v-52.1108c0-5.9656.4387-10.8782,1.3156-14.7382.8774-3.8605,2.4265-7.0182,4.6496-9.4747,2.9229-3.1583,6.843-4.7374,11.7556-4.7374,10.2919,0,15.4404,6.4917,15.4404,19.4756v61.5856h23.687v-53.2663c.0541-5.4419.4858-9.9775,1.3047-13.5827.8774-3.8605,2.4264-7.0182,4.6495-9.4747,2.9229-3.1583,6.8431-4.7374,11.7556-4.7374,10.2919,0,15.4404,6.4917,15.4404,19.4756v61.5856h23.687v-52.1612l.0068.0504c0-5.9656.4387-10.8782,1.3156-14.7382.8774-3.8605,2.4265-7.0182,4.6495-9.4747,2.9229-3.1583,6.8431-4.7374,11.7557-4.7374,10.2919,0,15.4404,6.4917,15.4404,19.4756v61.5856h23.6869V50.7789c0-11.3445-2.6924-20.1779-8.0713-26.4943Z"/></svg>