<?xml version="1.0" encoding="UTF-8"?><svg id="a" xmlns="http://www.w3.org/2000/svg" viewBox="0 0 1036.1965 150.3348"><defs><style>.b{fill:#160c30;}</style></defs><path class="b" d="M36.8482,137.5312c-7.615-4.3307-13.4991-10.3341-17.654-18.0057-4.1583-7.6691-6.2375-16.364-6.2375-26.0865,0-9.0166,1.8459-17.4782,5.5342-25.3832,3.6883-7.905,9.2499-14.3166,16.6882-19.2357,7.4349-4.9183,16.5407-7.3774,27.3157-7.3774,8.8982,0,17.0982,1.8441,24.5932,5.5333,7.4932,3.6891,13.5266,9.3708,18.0932,17.039,4.5683,7.6716,6.8516,17.1883,6.8516,28.5457v5.095H37.5499c.3517,4.1,1.5817,7.965,3.69,11.5932,2.3416,4.5675,5.4724,8.1108,9.3974,10.6283,3.9233,2.5192,8.4024,3.7766,13.4391,3.7766,5.3849,0,10.0133-1.375,13.8766-4.1283,3.865-2.7499,6.6149-6.2933,8.2566-10.6274h24.2415c-3.1616,10.4241-8.725,18.884-16.6882,25.3832-7.965,6.5-18.1533,9.75-30.5648,9.75-9.955,0-18.7382-2.1658-26.3498-6.5ZM87.7912,79.9133c-.47-3.7466-1.7-6.7907-3.69-9.135-2.225-3.3949-5.1533-5.9999-8.7833-7.8166-3.63-1.815-7.6716-2.7233-12.1199-2.7233-4.4517,0-8.4625.8783-12.0341,2.635-3.5734,1.7567-6.4708,4.3916-8.6941,7.905-2.1083,2.5775-3.3984,5.6216-3.865,9.135h49.1864Z"/><path class="b" d="M423.2449,137.5312c-7.6133-4.3307-13.4974-10.3341-17.654-18.0057-4.1583-7.6691-6.2358-16.364-6.2358-26.0865,0-9.0166,1.8441-17.4782,5.5342-25.3832,3.6883-7.905,9.2499-14.3166,16.6882-19.2357,7.4349-4.9183,16.539-7.3774,27.3157-7.3774,8.8982,0,17.0965,1.8441,24.5932,5.5333,7.4932,3.6891,13.5266,9.3708,18.0932,17.039,4.5666,7.6716,6.8516,17.1883,6.8516,28.5457v5.095h-74.4829c.3517,4.1,1.5817,7.965,3.6883,11.5932,2.3416,4.5675,5.4741,8.1108,9.3991,10.6283,3.9216,2.5192,8.4007,3.7766,13.4374,3.7766,5.3866,0,10.0133-1.375,13.8783-4.1283,3.865-2.7499,6.6149-6.2933,8.2566-10.6274h24.2415c-3.1616,10.4241-8.725,18.884-16.6882,25.3832-7.965,6.5-18.1533,9.75-30.5665,9.75-9.955,0-18.7382-2.1658-26.3498-6.5ZM474.1879,79.9133c-.4683-3.7466-1.6983-6.7907-3.6883-9.135-2.2267-3.3949-5.155-5.9999-8.7833-7.8166-3.6317-1.815-7.6716-2.7233-12.1216-2.7233s-8.4608.8783-12.0324,2.635c-3.5734,1.7567-6.4725,4.3916-8.6958,7.905-2.1083,2.5775-3.3984,5.6216-3.865,9.135h49.1864Z"/><path class="b" d="M527.983,135.2479c-7.73-5.8549-12.415-13.9349-14.0532-24.2415h15.6349c1.2866,6.2083,4.3024,11.0666,9.0457,14.5799,4.7433,3.5133,11.2707,5.27,19.5874,5.27,6.7899,0,12.2091-1.2866,16.2491-3.865,4.04-2.5732,6.0608-6.2632,6.0608-11.0666,0-3.7466-1.2026-6.7624-3.6025-9.0457-2.4017-2.285-5.4449-4.0108-9.1332-5.1825-3.69-1.17-8.5809-2.3416-14.6691-3.5133-7.6133-1.5216-13.7325-3.0741-18.3574-4.6558-4.6267-1.58-8.5791-4.1275-11.8574-7.6408-3.28-3.5133-4.9183-8.3716-4.9183-14.5799,0-8.7833,3.3075-15.6349,9.9258-20.5532,6.6149-4.9183,15.0774-7.3783,25.384-7.3783,10.5399,0,19.3232,2.7534,26.3498,8.2566,7.0266,5.505,11.3565,13.06,12.9982,22.6598h-13.8766c-1.4067-5.9716-4.335-10.4216-8.7833-13.3499-4.4534-2.9266-10.0133-4.3916-16.6882-4.3916-6.4434,0-11.4491,1.2026-15.0208,3.6008-3.5734,2.4017-5.3575,5.7091-5.3575,9.9258,0,3.28,1.1116,5.8567,3.3383,7.7283,2.2233,1.875,4.9766,3.3109,8.2566,4.3041,3.2766.9967,7.905,2.0809,13.8766,3.2508,7.8449,1.5233,14.2299,3.1342,19.1482,4.8308,4.9183,1.6983,9.135,4.4517,12.6483,8.2549,3.5133,3.8084,5.27,9.1075,5.27,15.8991,0,9.1332-3.28,16.3657-9.8383,21.694-6.56,5.33-15.7516,7.9924-27.5798,7.9924-12.2966,0-22.3082-2.9249-30.0381-8.7833Z"/><path class="b" d="M646.3823,142.2746c-7.8466,0-13.645-1.7567-17.3916-5.27-3.7483-3.5133-5.6199-9.8949-5.6199-19.1465v-59.5513h-15.6349v-13.1749h15.6349V8.2421h14.9316v36.8898h21.7815v13.1749h-21.7815v56.5647c0,3.3984.2333,6.0608.7016,7.9924.4666,1.9316,1.5216,3.455,3.1616,4.5666,1.64,1.1151,4.2167,1.6692,7.73,1.6692h10.0133v13.1749h-13.5266Z"/><path class="b" d="M683.0954,128.748c-3.0467-5.7366-4.5683-14.1099-4.5683-25.1198v-58.4963h14.9316v58.4963c0,10.3066,1.8733,17.5666,5.6216,21.7832,3.2783,3.6317,8.2566,5.4449,14.9316,5.4449,7.3783,0,13.2899-2.3982,17.7433-7.2016,3.1616-3.2783,5.4141-7.7866,6.7624-13.5266,1.3449-5.7366,2.0208-13.5832,2.0208-23.5399v-41.4564h14.9316v97.1427h-14.9316v-15.1066c-4.6867,5.9716-9.2842,10.2757-13.7908,12.9107-4.51,2.635-9.5158,3.9525-15.0191,3.9525-13.5866,0-23.1299-5.0933-28.6331-15.2832Z"/><path class="b" d="M796.2785,137.7079c-6.56-4.2167-11.6241-10.1282-15.1958-17.7433-3.5734-7.6099-5.3575-16.3366-5.3575-26.1731s1.7841-18.5907,5.3575-26.2623c3.5716-7.6682,8.6083-13.6141,15.1066-17.8307,6.5-4.2149,14.0807-6.3233,22.749-6.3233,6.6749,0,12.4115,1.23,17.2149,3.6883,4.8016,2.46,9.6616,6.8516,14.5816,13.1749V8.2421h14.9316v134.0325h-14.9316v-15.1066c-4.8034,6.2083-9.605,10.5691-14.4049,13.0874-4.8034,2.5166-10.6,3.7758-17.3916,3.7758-8.55,0-16.1032-2.1083-22.6598-6.3233ZM836.3299,126.113c4.6816-3.1616,8.3441-7.5807,10.9791-13.2624,2.635-5.6783,3.9525-12.0324,3.9525-19.059,0-7.1416-1.3175-13.5266-3.9525-19.1482-2.635-5.6216-6.2975-10.0407-10.9791-13.2624-4.685-3.22-10.0133-4.8308-15.9866-4.8308s-11.2141,1.6108-15.7207,4.8308c-4.51,3.2217-7.9667,7.6408-10.365,13.2624-2.4017,5.6216-3.6008,12.0067-3.6008,19.1482,0,7.0266,1.1991,13.3499,3.6008,18.9715,2.3982,5.6216,5.8549,10.0424,10.365,13.2624,4.5066,3.2234,9.7491,4.8308,15.7207,4.8308s11.3016-1.58,15.9866-4.7433Z"/><path class="b" d="M890.2561,25.1945c-2.2267-2.1667-3.3383-4.7708-3.3383-7.8175,0-3.045,1.1116-5.6216,3.3383-7.73,2.2233-2.1083,4.9183-3.1616,8.0799-3.1616,3.1634,0,5.8549,1.0533,8.0816,3.1616,2.2233,2.1083,3.3366,4.685,3.3366,7.73,0,3.0467-1.1133,5.6508-3.3366,7.8175-2.2267,2.1684-4.9183,3.2491-8.0816,3.2491-3.1616,0-5.8567-1.0808-8.0799-3.2491ZM905.7144,142.2746h-14.9316V45.1318h14.9316v97.1427Z"/><path class="b" d="M949.5416,137.5312c-7.2016-4.3299-12.8232-10.3632-16.8632-18.0932-4.04-7.7283-6.0608-16.4515-6.0608-26.1731,0-9.4866,2.0208-18.0332,6.0608-25.6482,4.04-7.6116,9.6616-13.554,16.8632-17.829,7.2033-4.275,15.3707-6.4125,24.5057-6.4125s17.3298,2.1375,24.5932,6.4125c7.2599,4.275,12.9382,10.2174,17.0399,17.829,4.0983,7.615,6.1483,16.1616,6.1483,25.6482,0,9.7216-2.0208,18.4174-6.0608,26.0857-4.04,7.6716-9.6925,13.7016-16.9524,18.0932-7.2616,4.3916-15.5183,6.5875-24.7682,6.5875-9.135,0-17.3024-2.1649-24.5057-6.5ZM990.648,125.938c4.9766-3.2766,8.8982-7.7574,11.7699-13.4391,2.8683-5.6783,4.3024-12.0907,4.3024-19.234,0-6.7916-1.405-12.9999-4.2149-18.6216-2.8117-5.6216-6.7058-10.0407-11.6824-13.2624-4.9783-3.22-10.5691-4.8308-16.7757-4.8308-6.09,0-11.6241,1.5817-16.6007,4.7433-4.9783,3.1616-8.8708,7.5533-11.6807,13.1749-2.8117,5.6216-4.2167,11.8866-4.2167,18.7966,0,7.1433,1.405,13.5866,4.2167,19.3232,2.81,5.7383,6.7024,10.2174,11.6807,13.4374,4.9766,3.2234,10.5108,4.8308,16.6007,4.8308s11.6207-1.6383,16.6007-4.9183Z"/><path class="b" d="M373.4798,51.0271c-5.3814-6.316-13.4528-9.4743-24.213-9.4743-6.5524,0-12.2244,1.2584-17.0195,3.7722-4.6915,2.4611-8.5908,6.3559-11.7145,11.6662-1.0907-2.1864-2.3882-4.1794-3.908-5.9641-5.3813-6.316-13.4527-9.4743-24.213-9.4743-6.5524,0-12.2245,1.2584-17.0196,3.7722-4.6867,2.4586-8.5825,6.3483-11.7047,11.6504-1.0891-2.1802-2.3839-4.1678-3.9-5.9482-5.3814-6.316-13.4527-9.4743-24.213-9.4743-6.5525,0-12.2245,1.2584-17.0196,3.7722-4.7976,2.5168-8.7725,6.5223-11.9308,12.0186-1.5214-5.1454-4.5617-9.0632-9.1239-11.7556-4.5617-2.6895-10.1188-4.0352-16.6682-4.0352-5.3819,0-10.2643,1.1404-14.6509,3.4213-4.3865,2.2809-8.4518,5.9958-12.1943,11.1412v-12.4573h-23.6864v98.4316h23.6864v-52.1108c0-6.1985.4663-11.1417,1.404-14.826.9346-3.6848,2.3958-6.695,4.386-9.0361,3.0408-3.3912,7.0187-5.0883,11.9313-5.0883,5.028,0,8.888,1.6093,11.58,4.8253,2.6894,3.2184,4.0356,8.101,4.0356,14.6503v61.5856h23.687v-52.1108c0-5.9656.4387-10.8782,1.3156-14.7382.8774-3.8605,2.4265-7.0182,4.6496-9.4747,2.9229-3.1583,6.843-4.7374,11.7556-4.7374,10.2919,0,15.4404,6.4917,15.4404,19.4756v61.5856h23.687v-53.2663c.0541-5.4419.4858-9.9775,1.3047-13.5827.8774-3.8605,2.4264-7.0182,4.6495-9.4747,2.9229-3.1583,6.8431-4.7374,11.7556-4.7374,10.2919,0,15.4404,6.4917,15.4404,19.4756v61.5856h23.687v-52.1612l.0068.0504c0-5.9656.4387-10.8782,1.3156-14.7382.8774-3.8605,2.4265-7.0182,4.6495-9.4747,2.9229-3.1583,6.8431-4.7374,11.7557-4.7374,10.2919,0,15.4404,6.4917,15.4404,19.4756v61.5856h23.6869v-64.5681c0-11.3445-2.6924-20.1779-8.0713-26.4943Z"/></svg>