<?xml version="1.0" encoding="UTF-8"?><svg id="a" xmlns="http://www.w3.org/2000/svg" viewBox="0 0 281.7673 117.557"><path d="M258.4376,17.9844c-5.3814-6.316-13.4528-9.4743-24.213-9.4743-6.5524,0-12.2244,1.2584-17.0195,3.7722-4.6915,2.4611-8.5908,6.3559-11.7145,11.6662-1.0907-2.1864-2.3882-4.1794-3.908-5.9641-5.3813-6.316-13.4527-9.4743-24.213-9.4743-6.5524,0-12.2245,1.2584-17.0196,3.7722-4.6867,2.4586-8.5825,6.3483-11.7047,11.6504-1.0891-2.1802-2.3839-4.1678-3.9-5.9482-5.3814-6.316-13.4527-9.4743-24.213-9.4743-6.5525,0-12.2245,1.2584-17.0196,3.7722-4.7976,2.5168-8.7725,6.5223-11.9308,12.0186-1.5214-5.1454-4.5617-9.0632-9.1239-11.7556-4.5617-2.6895-10.1188-4.0352-16.6682-4.0352-5.3819,0-10.2643,1.1404-14.6509,3.4213-4.3865,2.2809-8.4518,5.9958-12.1943,11.1412v-12.4573H15.2583v98.4316h23.6864v-52.1108c0-6.1985.4663-11.1417,1.404-14.826.9346-3.6848,2.3958-6.695,4.386-9.0361,3.0408-3.3912,7.0187-5.0883,11.9313-5.0883,5.028,0,8.888,1.6093,11.58,4.8253,2.6894,3.2184,4.0356,8.101,4.0356,14.6503v61.5856h23.687v-52.1108c0-5.9656.4387-10.8782,1.3156-14.7382.8774-3.8605,2.4265-7.0182,4.6496-9.4747,2.9229-3.1583,6.843-4.7374,11.7556-4.7374,10.2919,0,15.4404,6.4917,15.4404,19.4756v61.5856h23.687v-53.2663c.0541-5.4419.4858-9.9775,1.3047-13.5827.8774-3.8605,2.4264-7.0182,4.6495-9.4747,2.9229-3.1583,6.8431-4.7374,11.7556-4.7374,10.2919,0,15.4404,6.4917,15.4404,19.4756v61.5856h23.687v-52.1612l.0068.0504c0-5.9656.4387-10.8782,1.3156-14.7382.8774-3.8605,2.4265-7.0182,4.6495-9.4747,2.9229-3.1583,6.8431-4.7374,11.7557-4.7374,10.2919,0,15.4404,6.4917,15.4404,19.4756v61.5856h23.6869V44.4787c0-11.3445-2.6924-20.1779-8.0713-26.4943Z"/></svg>