<?xml version="1.0" encoding="UTF-8"?>
<svg width="64" height="64" viewBox="0 0 64 64" fill="none" xmlns="http://www.w3.org/2000/svg">
    <!-- Simple crab silhouette - no background, just black shapes -->
    <g fill="#000000">
        <!-- Main body -->
        <ellipse cx="32" cy="35" rx="14" ry="12"/>
        
        <!-- Left claw -->
        <path d="M 18 28 Q 12 24 8 18 Q 6 15 8 13 Q 10 14 11 17 Q 14 22 18 26 Z"/>
        
        <!-- Right claw -->
        <path d="M 46 28 Q 52 24 56 18 Q 58 15 56 13 Q 54 14 53 17 Q 50 22 46 26 Z"/>
        
        <!-- Left pincer tips -->
        <circle cx="8" cy="13" r="3"/>
        <circle cx="11" cy="15" r="2.5"/>
        
        <!-- Right pincer tips -->
        <circle cx="56" cy="13" r="3"/>
        <circle cx="53" cy="15" r="2.5"/>
        
        <!-- Eyes -->
        <circle cx="27" cy="32" r="2.5" fill="#ffffff"/>
        <circle cx="37" cy="32" r="2.5" fill="#ffffff"/>
        
        <!-- Legs (left) -->
        <ellipse cx="22" cy="42" rx="2" ry="8" transform="rotate(-25 22 42)"/>
        <ellipse cx="20" cy="44" rx="1.5" ry="7" transform="rotate(-35 20 44)"/>
        <ellipse cx="18" cy="46" rx="1.5" ry="6" transform="rotate(-45 18 46)"/>
        
        <!-- Legs (right) -->
        <ellipse cx="42" cy="42" rx="2" ry="8" transform="rotate(25 42 42)"/>
        <ellipse cx="44" cy="44" rx="1.5" ry="7" transform="rotate(35 44 44)"/>
        <ellipse cx="46" cy="46" rx="1.5" ry="6" transform="rotate(45 46 46)"/>
    </g>
</svg>
