<svg width="22" height="22" viewBox="0 0 22 22" xmlns="http://www.w3.org/2000/svg">
  <!-- Simple crab icon for menu bar (monochrome template) -->
  <g fill="#000000">
    <!-- Body -->
    <ellipse cx="11" cy="12" rx="5" ry="6" opacity="0.9"/>
    
    <!-- Left claw -->
    <path d="M 5 8 Q 3 6 2 4 Q 1.5 3 3 2.5 Q 4 3 4.5 5 Q 5.5 7 7 9" opacity="0.9"/>
    
    <!-- Right claw -->
    <path d="M 17 8 Q 19 6 20 4 Q 20.5 3 19 2.5 Q 18 3 17.5 5 Q 16.5 7 15 9" opacity="0.9"/>
    
    <!-- Eyes -->
    <circle cx="9" cy="11" r="1"/>
    <circle cx="13" cy="11" r="1"/>
    
    <!-- Legs (left side) -->
    <line x1="7" y1="14" x2="4" y2="17" stroke="#000000" stroke-width="1"/>
    <line x1="7" y1="16" x2="3" y2="19" stroke="#000000" stroke-width="1"/>
    
    <!-- Legs (right side) -->
    <line x1="15" y1="14" x2="18" y2="17" stroke="#000000" stroke-width="1"/>
    <line x1="15" y1="16" x2="19" y2="19" stroke="#000000" stroke-width="1"/>
  </g>
</svg>
