<svg xmlns="http://www.w3.org/2000/svg" version="1.1" viewBox="0 0 32 32">
  <defs>
    <style>
      .cls-1, .cls-2 { stroke-width: 0px; }
      .cls-1, .cls-3 { fill: #000; }
      .cls-2 { fill: none; }
      .cls-3 { font-family: BerlinSansFBDemi-Bold, 'Berlin Sans FB Demi'; font-size: 12.33px; font-weight: 700; }
    </style>
  </defs>
  <path class="cls-1" d="M7.8,4.25c-.73.55-1.18,1.05-1.72,1.65-.52.58-1.07,1.19-1.63,2.12-.62,1.03-.93,1.89-1.11,2.41-.32.92-.48,1.69-.55,2.15-.09.54-.21,1.26-.18,2.21.02.59.08,1.07.12,1.34.05.37.13.73.28,1.43.17.79.25,1.19.31,1.34.15.4.22.43.77,1.52.27.53.23.49.34.69.34.63.68,1.04,1.11,1.55.34.41.85,1.01,1.63,1.7.35.31.85.75,1.6,1.22.96.61,1.78.93,2.24,1.1.83.32,1.48.47,1.87.57.75.18,1.57.37,2.64.39.41,0,.76-.01,1.47-.06.18-.01.46-.03,1.04-.08,0,0,.68-.05.68-.07,0-.01-.67.04-1.21-.04-.05,0-.19-.03-.37-.09-.13-.04-.26-.09-.4-.18-.14-.09-.1-.11-.26-.22-.14-.1-.21-.12-.25-.21-.03-.08,0-.13-.05-.16-.05-.04-.12,0-.22.01-.13.03-.18,0-.4-.03-.21-.02-.3,0-.48-.01-.32,0-.37-.07-.94-.16-.52-.09-.54-.05-.84-.13-.26-.07-.25-.09-.65-.22-.46-.15-.49-.12-.89-.25-.42-.14-.71-.28-.81-.33-.22-.11-.29-.16-.61-.35-.76-.45-.82-.42-1.21-.69-.05-.03-.3-.23-.78-.63-.81-.66-.88-.71-1-.83-.26-.26-.25-.31-.66-.75-.31-.33-.37-.37-.54-.55-.32-.36-.5-.67-.74-1.1-.14-.25-.34-.71-.74-1.62-.32-.74-.38-.89-.45-1.13-.06-.23-.11-.49-.2-1.01-.05-.29-.09-.54-.12-.79-.01-.08-.03-.22-.05-.39-.04-.33-.06-.61-.06-.72-.03-.53.03-1.04.09-1.53.04-.29.1-.73.22-1.27.08-.37.15-.69.29-1.1.12-.35.23-.58.41-.98.16-.35.38-.82.74-1.42.19-.32.38-.64.69-1.04.14-.19.4-.51.75-.86.38-.38.68-.62,1.2-1.03.38-.29.91-.71,1.67-1.19.14-.09.65-.41,1.11-.64,1.73-.89,3.5-1.03,4.39-1.09,1.23-.08,2.17.02,2.58.07,1.09.14,1.93.4,2.38.55.19.06.93.32,1.83.79.67.35,1.14.67,1.28.76.5.34.85.64,1.06.82.13.11.58.5,1.12,1.07.22.23.44.47.71.8.1.12.45.57.83,1.24.28.48.45.86.68,1.37.23.52.35.77.45,1.07.25.75.32,1.38.37,1.89.04.43.05.73.06,1.31.02.77.02,1.15-.02,1.49-.02.2-.14,1.2-.43,1.89-.03.08-.13.3-.17.61-.02.2-.01.35,0,.49.03.44.1,1.42-.02,2.02,0,.04-.03.14,0,.15.03.01.15-.21.32-.54.37-.69.34-.62.41-.77.18-.37.34-.8.54-1.49.23-.82.42-1.52.52-2.47.03-.3.14-1.49-.09-3.05-.22-1.45-.63-2.5-.74-2.77-.44-1.09-.94-1.84-1.32-2.43-.64-.97-1.21-1.62-1.38-1.8-.36-.39-.74-.82-1.34-1.28-.5-.39-.89-.62-1.57-1-.51-.29-1.04-.59-1.8-.91-.95-.4-1.7-.59-1.91-.64-.27-.07-1.01-.24-1.98-.33-.82-.07-1.43-.05-2.04-.03-.73.03-1.32.05-2.1.19-.8.15-1.37.34-1.89.52-1.03.35-1.79.74-2.18.94-.49.26-1.05.55-1.71,1.05Z"/>
  <path class="cls-1" d="M24.44,16.53h0c.26-1.31.23-2.36.16-3.06-.02-.22-.05-.52-.14-.92-.05-.24-.29-1.26-1.03-2.44-.31-.49-.86-1.35-1.88-2.12-1.67-1.26-3.48-1.43-4.57-1.53-1.2-.11-2.1,0-2.47.07-.35.06-.94.15-1.66.42-.36.13-1.14.46-1.99,1.12-.69.53-1.14,1.06-1.37,1.36-.21.27-.65.87-1,1.73-.31.76-.42,1.37-.48,1.72-.12.72-.13,1.28-.13,1.62,0,.88.11,1.54.15,1.75.12.69.3,1.21.37,1.42.12.36.26.74.52,1.2.37.64.77,1.05,1.15,1.44.33.34.69.7,1.26,1.06.4.26.74.41,1.06.56.21.1.7.32,1.28.49,1.44.43,2.43.45,2.45.35,0-.02-.02-.05-.01-.12,0-.06.03-.1.03-.12.05-.11,0-.18-.01-.38,0-.17.03-.15.02-.32,0-.11-.02-.13-.03-.28,0-.04-.02-.17-.01-.32,0-.29.07-.42,0-.47-.02-.02-.04,0-.16-.02-.08-.01-.12-.02-.16-.03-.15-.04-.24-.03-.38-.04-.12-.01-.22-.05-.41-.11-.2-.06-.31-.1-.45-.18-.11-.06-.09-.07-.24-.16-.17-.1-.2-.1-.36-.19-.14-.08-.24-.16-.3-.2-.04-.03-.16-.12-.32-.28,0,0-.24-.23-.44-.49-.67-.88-.98-2.46-.98-2.46-.22-1.13-.18-2.01-.14-2.67.04-.72.08-1.38.36-2.22.17-.52.39-1.18.97-1.86.2-.23.56-.64,1.18-.96.1-.05.54-.27,1.18-.38.64-.11,1.14-.04,1.39,0,.47.07.83.19,1.03.27.15.06.61.24,1.05.57.14.1.68.54,1.19,1.61.56,1.2.63,2.28.67,2.96.07,1.25-.09,2.64-.09,2.64h0s.1,0,.16.02c.06.02.1.04.13.06.14.07.16.06.29.12.05.03.15.08.25.17.03.03.08.07.18.19.02.03.17.19.23.28.22.32.15.72.2.73.04,0,0-.44.28-.83.08-.12.18-.21.25-.28.14-.13.26-.24.44-.32.14-.06.26-.08.51-.1,0,0,.16-.02.61-.02h0s.05,0,.13-.01"/>
  <path class="cls-1" d="M17.48,17.78"/>
  <line class="cls-2" x1="22.89" y1="26.08" x2="21.29" y2="26.08"/>
  <line class="cls-2" x1="24.94" y1="19.89" x2="24.79" y2="19.89"/>
  <text class="cls-3" transform="translate(17.81 28.43) scale(1.03 1)"><tspan x="0" y="0">M</tspan></text>
</svg>