<svg width="1600" height="640" viewBox="0 0 1600 640" xmlns="http://www.w3.org/2000/svg" fill="none">
  <defs>
    <linearGradient id="bg" x1="0" y1="0" x2="1600" y2="640" gradientUnits="userSpaceOnUse">
      <stop offset="0" stop-color="#F8FAFD"/>
      <stop offset="1" stop-color="#EEF2F8"/>
    </linearGradient>
    <linearGradient id="line" x1="0" y1="0" x2="1" y2="1">
      <stop stop-color="#1D4ED8"/>
      <stop offset="1" stop-color="#334155"/>
    </linearGradient>
  </defs>

  <rect width="1600" height="640" rx="28" fill="url(#bg)"/>

  <g opacity="0.35" stroke="#CBD5E1" stroke-width="1">
    <path d="M120 142H1480"/>
    <path d="M120 498H1480"/>
  </g>

  <!-- emblem -->
  <g transform="translate(136,170)">
    <rect width="230" height="230" rx="24" fill="#FFFFFF" stroke="#D7DFEC"/>
    <circle cx="54" cy="70" r="9" fill="#2563EB"/>
    <circle cx="54" cy="115" r="9" fill="#475569"/>
    <circle cx="54" cy="160" r="9" fill="#0F172A"/>

    <circle cx="176" cy="70" r="9" fill="#475569"/>
    <circle cx="176" cy="115" r="9" fill="#0F172A"/>
    <circle cx="176" cy="160" r="9" fill="#2563EB"/>

    <path d="M63 70H167M63 115H167M63 160H167" stroke="url(#line)" stroke-width="3.2" stroke-linecap="round"/>
    <rect x="92" y="96" width="46" height="38" rx="8" fill="#F1F5F9" stroke="#CBD5E1"/>
    <text x="115" y="120" text-anchor="middle" fill="#0F172A" font-family="Inter,Segoe UI,Arial,sans-serif" font-size="11" font-weight="700">ROUTE</text>
  </g>

  <text x="430" y="276" fill="#0F172A" font-family="Inter,Segoe UI,Arial,sans-serif" font-size="70" font-weight="700" letter-spacing="-1.2">
    OpenClaw Model Router
  </text>
  <text x="432" y="328" fill="#475569" font-family="Inter,Segoe UI,Arial,sans-serif" font-size="28" font-weight="500">
    Deterministic model switching with scheduler, verification, rollback and auditability
  </text>

  <g transform="translate(432,382)">
    <rect x="0" y="0" width="150" height="42" rx="21" fill="#E2E8F0"/>
    <text x="75" y="27" text-anchor="middle" fill="#0F172A" font-family="Inter,Segoe UI,Arial,sans-serif" font-size="17" font-weight="600">@codex</text>

    <rect x="164" y="0" width="140" height="42" rx="21" fill="#E2E8F0"/>
    <text x="234" y="27" text-anchor="middle" fill="#0F172A" font-family="Inter,Segoe UI,Arial,sans-serif" font-size="17" font-weight="600">@mini</text>

    <rect x="318" y="0" width="190" height="42" rx="21" fill="#E2E8F0"/>
    <text x="413" y="27" text-anchor="middle" fill="#0F172A" font-family="Inter,Segoe UI,Arial,sans-serif" font-size="17" font-weight="600">schedule apply</text>
  </g>
</svg>
