<svg width="229" height="399" viewBox="0 0 229 399" fill="none" xmlns="http://www.w3.org/2000/svg">
<path d="M136.316 81.7164C140.677 77.2457 144.793 71.9998 148.951 67.3495L192.887 18.3698C195.031 15.9977 208.279 0.478638 209.649 0C210.697 0.119415 210.277 -0.0905401 211.003 0.537367C211.383 2.08976 209.918 4.20839 209.106 5.72555C207.436 10.3617 204.253 16.8815 202.098 21.4447L190.716 45.5812L153.891 125.505L143.2 148.451C142.08 150.882 139.309 156.497 138.617 158.835C141.02 159.251 144.84 159.149 147.363 159.144L159.802 159.116L206.245 159.135C210.275 159.13 220.445 158.71 223.743 159.879C228.458 161.692 230.128 165.16 228.233 169.834C227.889 170.688 227.422 171.486 226.846 172.204C225.008 174.491 222.146 177.144 220.042 179.342C209.546 190.314 198.936 201.214 188.357 212.107C184.281 216.305 180.625 221.137 176.397 225.243C165.138 236.919 154.023 248.608 143.273 260.748L130.113 275.387L96.4177 312.407L68.6489 343.229C64.1003 348.276 58.4247 354.103 54.1551 359.245C45.8059 368.12 37.6039 377.132 29.5527 386.278C26.9868 389.211 24.6807 392.197 21.942 394.974C20.7929 396.139 20.2922 397.558 18.6899 398.78C18.1295 398.477 18.3723 398.69 18.0938 397.97C18.3556 395.671 21.6547 389.446 22.796 386.927L41.6856 345.658C43.2859 341.461 45.5812 337.726 47.3612 333.705C50.1214 327.469 52.9355 321.319 55.776 315.123C67.118 290.883 78.0244 266.442 88.4898 241.812C87.1454 241.248 77.2511 241.444 75.223 241.442L30.5971 241.586C23.3926 241.601 16.1254 241.726 8.93067 241.497C5.52539 241.388 1.69677 240.131 0.532479 236.629C0.0832051 235.482 0.0792836 235.254 0 234.014C0.276024 231.623 0.822688 229.755 2.48471 227.886C7.18055 222.608 12.4059 217.618 17.1864 212.433L56.9022 169.361L112.658 107.747C120.358 99.2626 128.433 89.8851 136.316 81.7164Z" fill="#020123"/>
<path d="M136.316 81.7165C140.677 77.2457 144.793 71.9998 148.951 67.3495L192.887 18.3698C195.031 15.9977 208.279 0.478638 209.649 0C210.697 0.119415 210.277 -0.0905401 211.003 0.537367C211.383 2.08976 209.918 4.20839 209.106 5.72555C207.436 10.3617 204.253 16.8815 202.098 21.4447L190.716 45.5812L153.891 125.505L143.2 148.451C142.08 150.882 139.309 156.497 138.617 158.835C141.02 159.251 144.84 159.149 147.363 159.144L159.802 159.116L206.245 159.135C210.275 159.13 220.445 158.71 223.743 159.879C223.287 160.428 222.415 161.343 222.426 161.983C224.543 162.537 227.377 162.798 228.104 165.11C228.147 165.624 228.272 166.748 228.26 167.211C227.202 166.048 226.876 165.425 225.461 165.135C226.287 165.847 226.134 165.438 226.201 166.292C225.415 167.445 222.994 168.409 221.74 169.181C213.687 174.141 205.785 180.295 197.704 185.076C184.883 192.663 171.608 198.707 161.291 209.95C159.04 212.39 156.853 214.887 154.732 217.439C153.831 218.536 152.068 220.935 151.271 221.761C150.337 221.967 150.605 222.327 149.693 222.828L148.991 222.829C148.025 224.625 144.18 229.724 143.834 230.567L142.745 231.348L142.517 231.193C141.686 231.387 141.294 232.048 140.843 232.764C136.857 239.075 132.391 245.071 127.485 250.697C127.111 250.447 127.226 250.583 127.071 250.358C129.512 247.425 131.198 243.376 133.329 240.192C134.649 238.341 136.527 236.672 137.795 234.813C146.402 222.195 166.841 199.37 136.401 199.01L135.776 199.002C133.47 199.264 131.858 198.802 129.614 198.935C131.1 199.245 133.132 199.424 134.133 200.324C132.176 199.967 130.075 199.52 128.103 199.451C119.32 198.01 108.592 197.432 99.452 196.24C97.6035 196.471 90.4073 195.086 88.4282 194.068C82.316 190.925 78.5202 187.544 78.1644 180.279C78.1017 178.997 78.4325 176.884 78.0562 175.878L77.3069 176.169C75.6615 179.476 67.5242 188.045 64.3558 189.692C60.0789 194.673 55.6595 197.561 50.1449 201.006C49.3335 201.512 46.955 203.009 46.195 203.313C45.59 203.011 45.0404 202.701 44.3357 203.072C41.2402 204.702 35.6018 207.705 32.8371 209.582C32.1417 209.648 32.1803 209.677 31.5431 209.412C28.6341 211.049 23.2281 217.136 18.9968 217.271C14.8716 220.53 2.1108 229.224 0.805559 233.448L0 234.014C0.276024 231.623 0.822688 229.755 2.48471 227.886C7.18055 222.608 12.4059 217.618 17.1864 212.433L56.9022 169.361L112.658 107.747C120.358 99.2626 128.433 89.8851 136.316 81.7165Z" fill="#20148A"/>
<path d="M209.105 5.72559C207.435 10.3617 204.252 16.8816 202.098 21.4448L190.715 45.5813L153.891 125.506L143.199 148.451C142.08 150.882 139.308 156.497 138.616 158.835L138.318 158.803C131.716 156.441 123.561 155.598 116.971 152.532C109.11 148.876 118.788 137.223 121.42 132.423C121.68 131.499 122.329 129.876 122.823 129.056L123.033 128.712L122.637 128.839L122.803 128.863L122.601 129.025L122.171 128.94C122.687 127.888 126.858 121.985 127.758 120.687L139.235 104.029L140.495 103.175C140.141 104.071 139.459 105.114 138.951 105.961L139.255 106.057C141.993 102.553 145.412 97.1191 148.138 93.29C154.828 84.0774 161.389 74.7713 167.819 65.3748C169.112 63.4866 170.143 61.5143 171.385 59.7109C174.186 55.6474 177.043 51.5731 179.887 47.5384C182.38 45.9444 183.215 43.2316 185.245 40.949C186.616 39.4089 187.617 38.5745 189.201 37.2384L189.53 37.8178C190.458 36.7916 192.045 33.1323 193.009 31.8197C196.017 27.7253 198.542 22.9903 201.459 18.8876C203.093 16.1108 207.244 7.30734 209.105 5.72559Z" fill="url(#paint0_linear_0_1)"/>
<path d="M179.887 47.5383C182.38 45.9443 183.215 43.2315 185.245 40.949C186.616 39.4088 187.617 38.5744 189.201 37.2383L189.53 37.8177C186.32 44.0273 181.674 49.9325 178.112 56.0383C174.51 62.2116 170.444 68.2069 166.912 74.4355C165.588 76.6427 163.971 78.7349 162.625 80.9686C154.954 93.7059 147.591 106.626 140.543 119.718C137.443 125.441 133.6 132.055 131.174 138.044C129.807 141.419 134.287 148.497 135.35 151.624C135.967 153.204 137.299 156.392 138.102 157.876L138.318 158.803C131.716 156.441 123.561 155.597 116.971 152.532C109.11 148.876 118.788 137.223 121.42 132.423C121.68 131.499 122.329 129.876 122.823 129.056L123.033 128.712L122.637 128.839L122.803 128.863L122.601 129.025L122.171 128.94C122.687 127.888 126.858 121.985 127.758 120.687L139.235 104.029L140.495 103.175C140.141 104.07 139.459 105.114 138.951 105.961L139.255 106.057C141.993 102.553 145.412 97.119 148.138 93.2899C154.828 84.0773 161.389 74.7713 167.819 65.3747C169.112 63.4866 170.143 61.5142 171.385 59.7108C174.186 55.6473 177.043 51.573 179.887 47.5383Z" fill="#5241BC"/>
<path d="M139.237 104.03L140.497 103.175C140.143 104.071 139.461 105.115 138.953 105.961L139.257 106.057C137.413 109.311 133.895 114.235 131.694 117.42L121.422 132.424C121.682 131.499 122.331 129.877 122.825 129.056L123.035 128.712L122.639 128.84L122.804 128.864L122.603 129.025L122.173 128.94C122.688 127.889 126.86 121.985 127.76 120.688L139.237 104.03Z" fill="#3C23B8"/>
<path d="M209.104 5.72559C207.435 10.3617 204.251 16.8816 202.097 21.4448L190.715 45.5813L153.89 125.506L143.199 148.451C142.079 150.882 139.307 156.497 138.615 158.835L138.317 158.803L138.102 157.876C138.514 153.566 139.539 152.458 141.033 148.447C143.7 141.289 146.926 134.562 150.108 127.64L170.133 85.1384C174.86 75.136 178.948 64.5188 184.115 54.6906C186.382 50.3779 188.575 45.942 190.846 41.6675C194.618 34.5692 199.215 26.6721 201.458 18.8876C203.092 16.1108 207.243 7.30734 209.104 5.72559Z" fill="#9A8FF0"/>
<path d="M146.718 76.4717C146.476 79.4218 143.891 79.8735 142.43 82.4625C143.85 81.3183 144.831 80.4354 146.153 79.1747L146.388 79.3778C145.928 79.8569 146.076 79.8877 145.772 80.2983C139.85 88.2952 133.519 95.9402 127.68 104.029C124.26 108.765 119.159 113.536 116.015 118.466C115.073 119.615 114.064 120.826 113.179 122.015C105.215 132.725 96.7304 142.99 88.8314 153.746C88.1888 155.183 88.5735 154.849 88.4399 156.254C87.1973 157.598 86.196 159.312 85.1012 160.827L85.9332 160.127L86.1818 160.373L86.1436 160.964L86.4617 160.578L86.3081 160.48L86.6174 160.374L86.313 160.373C86.9737 160.171 88.4791 157.891 89.405 157.13L89.4956 157.287C85.6571 163.749 81.1106 168.902 77.3069 176.169C75.6615 179.476 67.5242 188.045 64.3558 189.693C60.0789 194.673 55.6596 197.561 50.1449 201.006C49.3335 201.512 46.955 203.009 46.195 203.313C45.59 203.011 45.0404 202.701 44.3357 203.072C41.2402 204.703 35.6018 207.705 32.8371 209.583C32.1417 209.648 32.1803 209.677 31.5431 209.412C28.6341 211.049 23.2281 217.136 18.9968 217.271C14.8716 220.531 2.1108 229.224 0.805559 233.448L0 234.015C0.276024 231.623 0.822688 229.755 2.48471 227.886C7.18055 222.608 12.4059 217.618 17.1864 212.433L56.9022 169.361L112.658 107.748C120.358 99.2628 128.433 89.8853 136.316 81.7166C136.582 82.394 136.374 82.1238 136.969 82.5516C137.791 82.5021 138.498 81.6917 139.162 81.1029L138.633 82.0808C140.088 81.7558 141.978 78.8825 143.242 78.2022C143.854 77.8729 143.59 78.0632 144.153 77.4578C144.449 78.0016 144.241 78.1127 144.636 78.7685L144.555 78.3995L144.796 78.5086C145.242 77.4534 145.74 76.9885 146.718 76.4717Z" fill="url(#paint1_linear_0_1)"/>
<path d="M142.433 82.4626C143.854 81.3184 144.835 80.4355 146.157 79.1748L146.392 79.3779C145.932 79.857 146.08 79.8879 145.775 80.2985C139.854 88.2954 133.522 95.9404 127.684 104.029C124.264 108.765 119.163 113.536 116.019 118.466C115.077 119.615 114.067 120.826 113.183 122.015C105.218 132.725 96.7342 142.99 88.8352 153.746C88.1926 155.183 88.5773 154.85 88.4437 156.254C87.2011 157.599 86.1997 159.312 85.1049 160.827L85.9369 160.127L86.1855 160.373L86.1474 160.964L86.4655 160.578L86.3118 160.48L86.6211 160.374L86.3167 160.373C86.9774 160.171 88.4828 157.891 89.4088 157.13L89.4993 157.287C85.6609 163.749 81.1143 168.902 77.3107 176.169C75.6653 179.476 67.5279 188.045 64.3595 189.693C60.0826 194.673 55.6633 197.561 50.1487 201.006C49.3372 201.512 46.9587 203.009 46.1987 203.313C45.5938 203.011 45.0442 202.702 44.3394 203.073C41.244 204.703 35.6055 207.705 32.8409 209.583C32.1454 209.648 32.1841 209.678 31.5469 209.412C32.6407 208.466 35.2311 205.582 35.3789 204.184C45.8899 196.291 56.5951 186.666 65.4377 176.933C68.3223 173.758 72.2365 168.498 75.0026 164.995C79.7782 158.878 84.6625 152.846 89.653 146.903L142.433 82.4626Z" fill="url(#paint2_linear_0_1)"/>
<path d="M85.1048 160.826L85.9368 160.127L86.1854 160.373L86.1472 160.964L86.4653 160.578L86.3116 160.48L86.6209 160.374L86.3165 160.373C86.9772 160.171 88.4826 157.89 89.4086 157.129L89.4991 157.287C85.6607 163.749 81.1141 168.902 77.3105 176.169C75.6651 179.476 67.5278 188.045 64.3594 189.692C65.2056 187.251 73.8783 174.998 75.8903 171.89C76.9361 171.167 76.8363 170.808 77.4343 170.29C80.037 168.032 82.2256 165.722 83.9596 162.707C84.3697 161.995 84.6271 161.551 85.1048 160.826Z" fill="#0414B0"/>
<path d="M75.8906 171.89C77.8252 168.031 86.0565 157.001 88.8354 153.746C88.1928 155.182 88.5775 154.849 88.4439 156.253C87.2013 157.598 86.1999 159.312 85.1051 160.826C84.6275 161.551 84.37 161.995 83.9599 162.707C82.226 165.722 80.0374 168.032 77.4347 170.289C76.8366 170.808 76.9365 171.167 75.8906 171.89Z" fill="#3C23B8"/>
<path d="M35.3784 204.183C35.2306 205.581 32.6402 208.466 31.5464 209.411C28.6374 211.049 23.2314 217.136 19 217.271C19.9773 216.32 22.8227 214.252 24.0301 213.285C27.8284 210.243 31.6917 207.383 35.3784 204.183Z" fill="#5241BC"/>
<path d="M138.32 158.803L138.619 158.835C141.022 159.251 144.842 159.149 147.365 159.144L159.804 159.116L206.247 159.136C210.277 159.13 220.447 158.71 223.745 159.879C223.289 160.428 222.417 161.343 222.428 161.983C224.546 162.537 227.379 162.798 228.106 165.11C228.15 165.624 228.274 166.748 228.262 167.211C227.204 166.048 226.878 165.425 225.463 165.135C218.988 166.211 204.225 174.611 197.339 177.608C185.217 182.881 170.928 187.378 157.908 189.728C154.833 190.404 151.736 190.975 148.622 191.44C142.516 192.424 137.128 192.832 131.213 193.637L131.388 193.23C129.645 193.408 128.564 193.632 126.848 194.01L126.258 193.481C129.834 189.707 129.451 183.987 130.651 179.15C131.323 176.44 131.926 174.895 133.014 172.312C133.439 171.676 133.907 170.43 134.217 169.687C133.78 168.677 133.534 168.139 132.97 167.199C133.382 166.918 133.797 166.675 134.244 166.454C135.225 165.142 135.815 163.698 136.114 162.095L135.92 161.866C134.777 162.197 133.746 163.609 132.996 164.541L132.989 164.735C132.426 165.669 132.701 165.355 131.653 165.893C131.543 165.464 131.48 164.895 131.414 164.445C133.117 163.471 134.491 162.377 135.946 161.079C136.549 160.816 137.914 159.438 138.32 158.803Z" fill="url(#paint3_linear_0_1)"/>
<path d="M138.32 158.803L138.619 158.835C138.107 165.569 138.486 172.341 139.744 178.976C140.249 181.751 141.136 185.125 141.363 187.86C141.645 191.25 133.869 192.841 131.388 193.23C129.645 193.408 128.564 193.632 126.848 194.01L126.258 193.481C129.834 189.707 129.451 183.987 130.651 179.15C131.323 176.44 131.926 174.895 133.014 172.312C133.439 171.676 133.907 170.43 134.217 169.687C133.78 168.677 133.534 168.139 132.97 167.199C133.382 166.918 133.797 166.675 134.244 166.454C135.225 165.142 135.815 163.698 136.114 162.095L135.92 161.866C134.777 162.197 133.746 163.609 132.996 164.541L132.989 164.735C132.426 165.669 132.701 165.355 131.653 165.893C131.543 165.464 131.48 164.895 131.414 164.445C133.117 163.471 134.491 162.377 135.946 161.079C136.549 160.816 137.914 159.438 138.32 158.803Z" fill="#0414B0"/>
<path d="M159.215 188.483C162.702 187.936 167.762 185.946 171.253 184.874C174.864 183.766 178.566 182.529 182.054 181.241C183.827 180.587 191.667 177.518 192.921 177.34C191.351 178.733 188.564 179.33 187.898 180.163L188.276 180.021L188.573 180.098C188.897 180.017 189.707 179.995 189.836 179.95C197.747 177.195 205.341 173.109 212.914 169.502C213.549 169.199 214.171 168.335 214.597 167.793C215.199 166.618 216.671 167.601 217.44 167.341C217.943 167.171 219.542 165.072 220.012 164.944C223.836 163.901 224.75 163.762 228.104 165.11C228.148 165.624 228.272 166.748 228.26 167.211C227.202 166.048 226.876 165.425 225.461 165.135C218.986 166.211 204.224 174.611 197.337 177.608C185.216 182.881 170.926 187.378 157.906 189.728L159.215 188.483Z" fill="#594ED3"/>
<path d="M148.625 191.439C149.759 189.631 156.87 188.894 159.22 188.483L157.911 189.728C154.836 190.403 151.739 190.974 148.625 191.439Z" fill="#7564E1"/>
<path d="M93.4246 186.617C93.2083 187.972 93.6821 190.764 93.5812 191.016C92.1625 190.76 89.3719 188.82 88.1293 187.896C87.0888 187.123 85.9886 184.549 85.6685 183.294C85.1292 181.11 85.2809 178.814 86.1022 176.72C87.7696 172.576 91.0598 167.086 93.4305 163.228C94.562 161.411 96.735 159.572 97.8175 157.804C101.283 152.146 105.193 146.827 109.003 141.403C110.143 139.965 111.154 137.606 112.316 136.286C119.591 128.03 125.354 118.58 132.007 109.82C135.123 105.717 138.718 101.96 141.832 97.8485C143.847 95.2938 145.419 92.3784 147.383 89.8022C151.818 83.9885 157.011 78.1612 160.851 71.9785L161.231 71.9771C161.353 73.7776 153.968 82.5051 152.777 84.9864C152.281 86.0196 149.121 89.3583 148.257 90.6797C145.319 95.1744 142.264 99.603 139.232 104.03L127.755 120.688C126.855 121.985 122.684 127.889 122.168 128.94L122.598 129.025L122.8 128.864L122.634 128.84L123.03 128.712L122.82 129.056C122.326 129.877 121.677 131.499 121.417 132.423C118.786 137.224 109.107 148.876 116.968 152.533C123.558 155.598 131.713 156.442 138.315 158.803C137.908 159.439 136.544 160.816 135.94 161.079C134.486 162.378 133.111 163.471 131.409 164.445C128.558 166.207 125.678 168.217 122.881 169.902C113.986 175.757 105.637 179.393 95.6681 182.762C94.6614 183.102 93.9478 183.865 93.408 184.756L93.4246 186.617Z" fill="url(#paint4_linear_0_1)"/>
<path d="M122.17 128.939L122.599 129.025L122.801 128.863L122.635 128.839L123.032 128.712L122.821 129.055C122.328 129.876 121.679 131.499 121.418 132.423C118.787 137.223 109.108 148.876 116.969 152.532C123.56 155.597 131.714 156.441 138.316 158.802C137.91 159.438 136.545 160.815 135.942 161.079C134.487 162.377 133.113 163.471 131.41 164.445C128.559 166.207 125.68 168.216 122.883 169.902C122.3 167.568 122.077 169.464 121.505 167.73C118.418 168.769 114.354 170.319 111.167 170.779C106.923 171.392 102.515 171.869 98.2701 172.736C96.6027 173.076 94.5051 172.298 94.5883 170.228C94.6823 167.906 96.1486 166.126 97.2625 164.153C101.724 157.073 107.133 150.651 111.975 143.84C113.508 141.715 120.897 130.156 122.17 128.939Z" fill="url(#paint5_linear_0_1)"/>
<path d="M121.508 167.73C124.936 166.395 128.086 165.128 131.286 163.294C132.319 162.702 134.868 161.205 135.944 161.079C134.49 162.377 133.116 163.471 131.413 164.445C128.562 166.207 125.682 168.217 122.885 169.902C122.303 167.569 122.079 169.464 121.508 167.73Z" fill="#000005"/>
<path d="M136.314 81.7165C140.674 77.2457 144.791 71.9998 148.949 67.3495L192.885 18.3698C195.029 15.9977 208.277 0.478638 209.647 0C210.694 0.119415 210.275 -0.0905401 211.001 0.537367C211.381 2.08976 209.916 4.20839 209.103 5.72555C207.242 7.30731 203.091 16.1107 201.457 18.8876C198.541 22.9903 196.015 27.7253 193.007 31.8197C192.043 33.1322 190.457 36.7915 189.529 37.8178L189.199 37.2383C187.616 38.5744 186.614 39.4089 185.243 40.949C183.213 43.2316 182.378 45.9444 179.885 47.5384C188.715 34.0249 198.372 20.9974 206.782 7.20355C207.988 5.22538 209.559 2.99418 210.389 0.85352C209.667 1.3581 208.805 2.81799 208.25 3.62747L208.001 2.83316C207.129 2.96824 205.818 5.1226 205.439 5.93697C204.268 8.32331 200.972 12.6198 199.302 14.8353L192.436 24.0474L158.423 69.0996L140.528 92.7819C139.284 94.3994 135.809 99.3732 134.649 100.44L134.205 100.457C129.527 106.434 125.243 111.943 121.275 118.428C119.842 120.769 116.745 124.861 114.943 127.033C107.892 135.536 101.184 144.36 94.8484 153.42C92.118 157.326 89.5124 160.313 87.2876 164.685C83.1883 172.625 77.8646 177.907 81.978 187.067C85.6921 192.395 90.4805 194.468 96.7767 195.689C97.407 195.811 98.978 195.973 99.4498 196.24C97.6013 196.471 90.4051 195.086 88.4259 194.068C82.3137 190.925 78.5179 187.544 78.1621 180.279C78.0995 178.997 78.4303 176.884 78.054 175.878L77.3047 176.169C81.1083 168.902 85.6549 163.749 89.4933 157.287L89.4028 157.129C88.4768 157.89 86.9714 160.171 86.3107 160.373L86.6151 160.374L86.3058 160.48L86.4595 160.578L86.1414 160.964L86.1796 160.373L85.9309 160.126L85.099 160.826C86.1937 159.312 87.1951 157.598 88.4377 156.253C88.5713 154.849 88.1866 155.183 88.8292 153.746C96.7282 142.989 105.213 132.725 113.177 122.015C114.061 120.826 115.071 119.615 116.013 118.465C119.157 113.536 124.258 108.765 127.678 104.028C133.516 95.94 139.848 88.295 145.77 80.2982C146.074 79.8875 145.926 79.8567 146.386 79.3776L146.151 79.1745C144.829 80.4352 143.848 81.3181 142.427 82.4623C143.889 79.8734 146.473 79.4216 146.716 76.4715C145.738 76.9883 145.239 77.4533 144.794 78.5084L144.553 78.3993L144.634 78.7683C144.239 78.1125 144.447 78.0014 144.151 77.4577C143.588 78.063 143.852 77.8727 143.24 78.202C141.976 78.8823 140.086 81.7556 138.631 82.0806L139.16 81.1027C138.495 81.6915 137.789 82.5019 136.967 82.5514C136.372 82.1236 136.58 82.3938 136.314 81.7165Z" fill="#0414B0"/>
<path d="M136.32 81.7165C140.681 77.2457 144.797 71.9998 148.955 67.3495L192.891 18.3698C195.035 15.9977 208.283 0.478638 209.654 0C210.701 0.119415 210.282 -0.0905401 211.007 0.537367C211.387 2.08976 209.922 4.20839 209.11 5.72555C207.249 7.30731 203.098 16.1107 201.464 18.8876C198.547 22.9903 196.021 27.7253 193.014 31.8197C192.05 33.1322 190.463 36.7915 189.535 37.8178L189.206 37.2383C187.622 38.5744 186.62 39.4089 185.25 40.949C183.22 43.2316 182.385 45.9444 179.892 47.5384C188.722 34.0249 198.379 20.9974 206.789 7.20355C207.995 5.22538 209.566 2.99418 210.396 0.85352C209.673 1.3581 208.812 2.81799 208.257 3.62747L208.008 2.83316C207.136 2.96824 205.825 5.1226 205.445 5.93697C204.321 7.03275 203.312 8.75252 202.801 9.23703C201.302 11.547 198.994 13.9368 197.157 16.03C192.645 21.1717 188.668 27.0479 184.253 32.2254C173.236 45.1422 163.298 59.0619 151.362 71.1458C149.701 72.8274 148.446 74.8134 146.723 76.4715C145.745 76.9883 145.246 77.4533 144.8 78.5084L144.559 78.3993L144.64 78.7683C144.245 78.1125 144.454 78.0014 144.157 77.4577C143.594 78.063 143.859 77.8727 143.246 78.202C141.983 78.8823 140.093 81.7556 138.637 82.0806L139.167 81.1027C138.502 81.6915 137.795 82.5019 136.973 82.5514C136.379 82.1236 136.587 82.3938 136.32 81.7165Z" fill="#594ED3"/>
<path d="M155.96 63.5613L155.66 62.3358L155.902 62.0422C156.203 61.9555 157.341 61.6139 157.47 61.4284C159.18 58.9579 160.646 56.2148 162.582 53.9122C169.94 45.3995 177.138 36.6048 184.674 28.2502C188 24.563 192.042 21.0785 195.333 17.15C197.473 14.5948 200.088 10.7691 202.8 9.23682C201.301 11.5468 198.993 13.9366 197.156 16.0298C192.644 21.1715 188.667 27.0477 184.252 32.2252C173.235 45.142 163.297 59.0617 151.361 71.1456C149.7 72.8272 148.445 74.8132 146.722 76.4713C145.744 76.9881 145.245 77.453 144.799 78.5082L144.559 78.3991L144.639 78.7681C144.244 78.1123 144.453 78.0012 144.156 77.4574C145.473 75.4548 155.71 66.5501 155.96 63.5613Z" fill="#7564E1"/>
<path d="M155.957 63.5615C155.707 66.5503 145.47 75.455 144.153 77.4577C143.59 78.0631 143.854 77.8727 143.242 78.2021C141.978 78.8823 140.088 81.7556 138.633 82.0806L139.162 81.1028C144.019 77.0946 148.191 70.7915 153.073 66.6037C154.11 65.7139 154.779 64.5188 155.957 63.5615Z" fill="#7B70E3"/>
<path d="M202.794 9.23707C203.305 8.75256 204.314 7.03279 205.439 5.93701C204.267 8.32335 200.972 12.6198 199.301 14.8354L192.436 24.0474L158.422 69.0996L140.527 92.7819C139.284 94.3994 135.809 99.3732 134.649 100.44L134.205 100.457C134.346 98.6235 153.31 75.759 155.181 71.9617C157.136 67.9931 164.768 60.6271 166.186 56.4759C163.647 58.919 161.514 62.2925 159.219 65.0028C156.431 68.295 154.012 71.9993 151.345 75.3748L115.1 121.417C114.126 123.089 111.905 125.787 110.673 127.462C106.961 132.503 102.185 138.214 98.8569 143.429C96.2053 146.02 91.4312 153.49 88.4375 156.253C88.5711 154.849 88.1864 155.183 88.829 153.746C96.728 142.99 105.212 132.725 113.176 122.015C114.061 120.826 115.07 119.615 116.013 118.465C119.156 113.536 124.258 108.765 127.678 104.028C133.516 95.9401 139.848 88.2951 145.769 80.2982C146.074 79.8876 145.925 79.8568 146.385 79.3776L146.151 79.1745C144.829 80.4352 143.847 81.3181 142.427 82.4624C143.889 79.8734 146.473 79.4217 146.716 76.4715C148.44 74.8134 149.694 72.8274 151.355 71.1458C163.291 59.0619 173.229 45.1423 184.246 32.2254C188.661 27.048 192.638 21.1717 197.15 16.03C198.987 13.9368 201.295 11.5471 202.794 9.23707Z" fill="#5241BC"/>
<path d="M98.8571 143.429C97.8856 146.297 91.7495 152.869 90.3101 156.293L90.5416 156.078C90.8225 155.824 90.9767 155.701 91.2748 155.478L91.6834 155.668C91.8023 156.316 90.8651 157.568 90.4633 158.117C88.2483 161.144 86.1174 164.271 84.2875 167.532C81.6922 172.157 78.7377 177.239 79.6181 182.753C79.8335 184.1 80.7609 186.378 81.978 187.067C85.6921 192.395 90.4805 194.468 96.7767 195.689C97.407 195.812 98.978 195.973 99.4498 196.24C97.6013 196.471 90.4051 195.086 88.4259 194.068C82.3137 190.925 78.5179 187.544 78.1621 180.279C78.0995 178.998 78.4303 176.884 78.054 175.878L77.3047 176.169C81.1083 168.902 85.6549 163.749 89.4933 157.287L89.4028 157.13C88.4768 157.891 86.9714 160.171 86.3107 160.373L86.6151 160.374L86.3058 160.48L86.4595 160.578L86.1414 160.964L86.1796 160.373L85.9309 160.127L85.099 160.827C86.1937 159.312 87.1951 157.598 88.4377 156.254C91.4314 153.49 96.2055 146.02 98.8571 143.429Z" fill="#20148A"/>
<path d="M225.462 165.135C226.289 165.847 226.136 165.438 226.203 166.292C225.417 167.445 222.996 168.409 221.741 169.181C213.689 174.141 205.786 180.295 197.705 185.077C184.885 192.663 171.61 198.707 161.292 209.951C159.042 212.39 156.854 214.887 154.733 217.439C153.833 218.536 152.07 220.935 151.273 221.761C150.339 221.967 150.606 222.328 149.695 222.828L148.992 222.829C148.027 224.625 144.181 229.724 143.836 230.567L142.747 231.348L142.518 231.194C144.43 227.178 148.439 222.819 150.417 218.629C150.885 217.636 151.685 215.952 152.688 215.687C153.117 214.304 152.968 213.224 153.155 211.84C153.605 208.516 154.347 205.185 152.358 202.157C151.664 201.086 150.668 200.245 149.497 199.739C147.571 198.895 136.113 197.507 133.129 197.236C131.911 197.126 128.916 197.502 127.531 197.221L127.601 196.915C129.532 196.033 144.08 197.218 147.778 196.56C152.695 196.174 157.239 195.888 162.029 194.562C159.223 194.211 157.522 195.353 155.539 195.223C151.086 194.932 147.283 195.088 142.861 195.665L144.074 195.713C142.253 196.094 139.444 195.893 137.587 195.79L137.759 195.713C135.544 195.494 133.283 195.505 131.054 195.474L131.355 195.6C130.11 195.467 129.714 195.504 128.624 194.965C129.271 194.359 130.075 194.302 131.018 194.055L130.776 193.962L131.213 193.637C137.128 192.832 142.516 192.424 148.622 191.44C151.736 190.975 154.833 190.404 157.908 189.728C170.927 187.378 185.217 182.881 197.339 177.608C204.225 174.612 218.987 166.211 225.462 165.135Z" fill="url(#paint6_linear_0_1)"/>
<path d="M162.029 194.562C164.257 194.104 167.853 192.368 170.086 191.489C173.411 190.181 176.73 188.845 180.014 187.433C183.644 185.871 187.659 183.686 191.293 182.295C182.023 188.71 170.308 193.568 162.79 201.833C160.665 204.169 158.421 209.159 156.586 211.943C154.15 215.637 151.54 219.209 148.992 222.829C148.027 224.626 144.181 229.724 143.836 230.567L142.747 231.348L142.518 231.194C144.43 227.178 148.439 222.819 150.417 218.629C150.885 217.636 151.685 215.952 152.688 215.687C153.117 214.304 152.968 213.224 153.155 211.84C153.605 208.516 154.347 205.185 152.358 202.157C151.664 201.087 150.668 200.245 149.497 199.739C147.571 198.895 136.113 197.507 133.129 197.236C131.911 197.126 128.916 197.502 127.531 197.221L127.601 196.915C129.532 196.033 144.08 197.218 147.778 196.561C152.695 196.174 157.239 195.888 162.029 194.562Z" fill="#020123"/>
<path d="M131.654 165.893C132.702 165.355 132.427 165.668 132.989 164.735L132.997 164.54C133.746 163.609 134.778 162.197 135.921 161.866L136.115 162.095C135.816 163.698 135.226 165.141 134.245 166.454C133.798 166.675 133.383 166.917 132.971 167.199C133.535 168.139 133.781 168.677 134.218 169.687C133.907 170.429 133.44 171.676 133.015 172.312C131.927 174.895 131.324 176.44 130.652 179.15C129.452 183.987 129.835 189.707 126.259 193.481L126.848 194.009C128.565 193.632 129.646 193.408 131.388 193.23L131.214 193.636L130.777 193.962L131.019 194.055C130.076 194.302 129.272 194.358 128.625 194.965C129.716 195.504 130.111 195.466 131.357 195.599L131.056 195.474C133.284 195.505 135.545 195.494 137.76 195.712L137.588 195.79C139.445 195.893 142.254 196.093 144.075 195.713L142.862 195.665C147.284 195.088 151.088 194.931 155.541 195.223C157.524 195.352 159.224 194.211 162.031 194.561C157.24 195.887 152.697 196.174 147.779 196.56C146.553 196.385 141.319 196.323 139.86 196.314C135.194 196.286 129.566 195.83 125 196.27C119.697 195.9 114.195 195.838 108.962 195.399C105.13 194.576 100.099 194.064 96.7156 192.013C94.4629 190.647 93.9323 188.964 93.4307 186.616L93.4141 184.756C93.9539 183.865 94.6674 183.102 95.6741 182.762C105.643 179.393 113.992 175.757 122.887 169.902C125.684 168.216 128.564 166.207 131.415 164.445C131.481 164.895 131.544 165.464 131.654 165.893Z" fill="#01015C"/>
<path d="M131.654 165.893C132.702 165.355 132.427 165.668 132.989 164.735L132.997 164.54C133.746 163.609 134.778 162.197 135.921 161.866L136.115 162.095C135.816 163.698 135.226 165.141 134.245 166.454C133.798 166.675 133.383 166.917 132.971 167.199L132.903 166.498C132.454 166.682 127.034 171.206 125.353 172.263C119.533 175.923 113.927 178.959 107.883 182.17C105.681 183.339 100.79 184.649 99.5419 186.34C99.1714 187.592 99.4151 190.028 99.5923 191.409C101.398 192.484 102.56 192.879 104.63 193.351C108.401 194.329 115.97 194.578 119.993 194.214C121.214 194.396 125.06 194.148 126.259 193.481L126.848 194.009C128.565 193.632 129.646 193.408 131.388 193.23L131.214 193.636L130.777 193.962L131.019 194.055C130.076 194.302 129.272 194.358 128.625 194.965C129.716 195.504 130.111 195.466 131.357 195.599L131.056 195.474C133.284 195.505 135.545 195.494 137.76 195.712L137.588 195.79C139.445 195.893 142.254 196.093 144.075 195.713L142.862 195.665C147.284 195.088 151.088 194.931 155.541 195.223C157.524 195.352 159.224 194.211 162.031 194.561C157.24 195.887 152.697 196.174 147.779 196.56C146.553 196.385 141.319 196.323 139.86 196.314C135.194 196.286 129.566 195.83 125 196.27C119.697 195.9 114.195 195.838 108.962 195.399C105.13 194.576 100.099 194.064 96.7156 192.013C94.4629 190.647 93.9323 188.964 93.4307 186.616L93.4141 184.756C93.9539 183.865 94.6674 183.102 95.6741 182.762C105.643 179.393 113.992 175.757 122.887 169.902C125.684 168.216 128.564 166.207 131.415 164.445C131.481 164.895 131.544 165.464 131.654 165.893Z" fill="#3C23B8"/>
<path d="M122.887 169.902C125.684 168.217 128.564 166.207 131.415 164.445C131.481 164.895 131.544 165.464 131.654 165.893C123.559 173.63 113.121 179.544 102.45 182.738C99.3662 183.66 96.7136 184.648 93.4141 184.756C93.9539 183.865 94.6674 183.102 95.6741 182.762C105.643 179.393 113.992 175.757 122.887 169.902Z" fill="#20148A"/>
<path d="M126.849 194.01C128.566 193.632 129.647 193.408 131.389 193.23L131.215 193.637L130.778 193.962C129.716 193.905 127.364 194.382 125.867 194.444L125.734 194.271L126.849 194.01Z" fill="#5241BC"/>
<path d="M99.5878 191.409C99.4106 190.028 99.1669 187.592 99.5374 186.34C100.786 184.649 105.676 183.339 107.878 182.17C113.923 178.959 119.528 175.923 125.348 172.263C127.03 171.206 132.449 166.682 132.898 166.499L132.967 167.199C133.53 168.139 133.777 168.677 134.213 169.687C133.903 170.429 133.435 171.676 133.01 172.312L132.948 171.592C133.774 169.765 133.85 169.08 132.361 167.588C131.644 168.012 131.196 168.183 130.763 168.893C130.978 169.27 131.055 169.388 131.294 169.733C131.054 170.926 129.698 171.804 128.694 172.66C129.452 171.718 130.163 171.047 130.414 169.893L130.322 169.63C128.895 170.311 127.087 171.874 125.997 173.023C126.684 172.504 127.139 172.141 127.779 171.565L128.39 171.517C128.051 173.095 123.458 173.972 122.003 176.038C118.591 178.681 116.651 179.998 112.749 182.134C109.005 184.183 104.582 186.097 101.228 188.649C100.232 189.408 99.9426 190.269 99.5878 191.409Z" fill="#20148A"/>
<path d="M122.008 176.039L122.525 176.414C121.523 179.449 104.818 187.761 105.79 191.376C106.368 191.975 106.514 192.238 107.327 192.426C108.066 192.205 108.795 191.772 109.502 191.83L109.366 192.324L110.062 192.518C112.332 189.662 113.979 185.877 116.584 183.189C117.839 181.895 119.699 180.681 121.161 179.524C120.962 180.658 118.197 182.326 117.206 183.196C114.749 185.354 112.043 191.079 110.427 193.13L110.304 193.02L110.148 193.749C108.84 193.722 108.375 193.504 107.195 193.313C106.974 193.277 104.989 193.346 104.632 193.351C102.561 192.879 101.4 192.485 99.5938 191.409C99.9486 190.27 100.238 189.408 101.234 188.649C104.588 186.097 109.011 184.183 112.755 182.134C116.657 179.998 118.597 178.681 122.008 176.039Z" fill="#010244"/>
<path d="M119.992 194.215C120.119 194.186 120.246 194.158 120.373 194.129C123.99 193.158 125.27 185.04 126.736 182.034C127.078 181.334 128.93 180.189 129.532 179.53C130.028 178.986 130.288 175.833 130.533 175.478C131.456 174.141 132.141 172.996 132.951 171.592L133.014 172.312C131.926 174.895 131.323 176.44 130.651 179.15C129.451 183.987 129.834 189.707 126.258 193.481C125.059 194.148 121.213 194.397 119.992 194.215Z" fill="#000385"/>
<path d="M205.44 5.93682C205.82 5.12245 207.131 2.96808 208.003 2.83301L208.252 3.62731C199.656 16.7561 190.132 29.2212 180.915 41.9149C177.441 46.6989 173.695 51.267 170.207 56.0269L107.83 141.306C106.402 141.246 106.551 141.491 105.684 140.754C102.019 145.158 98.4622 149.653 95.0182 154.232C93.6738 156.036 88.5302 163.649 87.2891 164.685C89.5139 160.313 92.1195 157.325 94.8499 153.42C101.186 144.36 107.894 135.536 114.945 127.033C116.747 124.861 119.844 120.768 121.276 118.428C125.245 111.943 129.529 106.434 134.207 100.457L134.65 100.439C135.811 99.373 139.285 94.3992 140.529 92.7818L158.424 69.0994L192.437 24.0473L199.303 14.8352C200.974 12.6196 204.269 8.32316 205.44 5.93682Z" fill="#09ABFE"/>
<path d="M87.2922 164.685C88.5333 163.649 93.677 156.037 95.0213 154.233C98.4653 149.653 102.022 145.159 105.687 140.754C106.554 141.491 106.405 141.246 107.833 141.306C103.07 147.253 98.7208 153.912 94.7037 160.246C88.3747 170.226 77.2687 180.999 90.3343 191.147C95.1902 194.919 101.739 195.505 107.615 196.231C110.837 196.666 119.08 197.535 122.169 197.49C125.59 197.866 132.798 198.215 135.778 199.002C133.472 199.264 131.861 198.802 129.616 198.935C131.102 199.245 133.134 199.424 134.135 200.324C132.178 199.967 130.077 199.52 128.106 199.451C119.322 198.01 108.594 197.432 99.4544 196.24C98.9826 195.973 97.4116 195.811 96.7813 195.689C90.4851 194.468 85.6967 192.395 81.9826 187.067C77.8692 177.907 83.1929 172.625 87.2922 164.685Z" fill="#08B5FE"/>
<path d="M223.746 159.879C228.461 161.692 230.131 165.16 228.236 169.834C227.892 170.688 227.425 171.486 226.849 172.204C225.011 174.491 222.149 177.144 220.045 179.343C209.549 190.315 198.939 201.214 188.36 212.107C184.284 216.305 180.628 221.137 176.4 225.243C165.14 236.919 154.026 248.609 143.276 260.748L130.116 275.387L96.4206 312.407L68.6518 343.229C64.1032 348.276 58.4276 354.103 54.158 359.245C54.1712 357.668 54.1355 356.537 54.0156 354.964C55.2812 352.737 59.1823 349.474 59.3937 346.654C63.5722 341.56 67.7106 335.589 71.9318 330.446C78.5417 322.393 85.1305 314.278 91.4918 306.028C95.7731 300.474 100.829 295.245 104.781 289.527C103.865 290.017 94.0025 302.099 92.3331 304.075L91.5706 303.206C91.1228 303.923 91.1502 304.544 90.8644 304.798C90.1959 303.482 91.0499 304.392 90.4469 303.055C92.2749 300.276 95.134 297.037 97.2404 294.342C101.721 288.611 106.385 282.95 110.724 277.109C109.073 277.762 107.025 281.524 105.684 283.006C104.661 284.136 104.261 284.583 103.019 285.604L102.479 285.35L102.788 285.758L102.636 285.861L102.301 285.655C102.491 283.724 109.198 276.398 109.728 273.898C111.99 270.535 114.688 267.049 117.052 263.699C118.193 262.97 124.985 252.282 127.074 250.358C127.229 250.583 127.114 250.447 127.488 250.697C132.394 245.071 136.86 239.075 140.846 232.764C141.297 232.049 141.689 231.387 142.52 231.194L142.748 231.348L143.837 230.567C144.183 229.724 148.028 224.625 148.993 222.829L149.696 222.828C150.608 222.327 150.34 221.967 151.274 221.761C152.071 220.935 153.834 218.536 154.735 217.439C156.856 214.887 159.043 212.39 161.294 209.95C171.611 198.707 184.886 192.663 197.706 185.076C205.787 180.295 213.69 174.141 221.743 169.181C222.997 168.409 225.418 167.445 226.204 166.292C226.137 165.438 226.29 165.847 225.464 165.135C226.879 165.425 227.205 166.048 228.262 167.211C228.275 166.748 228.15 165.624 228.107 165.11C227.38 162.798 224.546 162.537 222.429 161.983C222.417 161.343 223.29 160.428 223.746 159.879Z" fill="url(#paint7_linear_0_1)"/>
<path d="M225.462 165.135C226.877 165.425 227.203 166.048 228.261 167.211C226.104 169.61 223.679 171.216 221.025 173.021C213.112 178.379 205.611 184.426 197.689 189.755C186.284 197.426 175.247 204.861 164.99 214.085C159.237 219.257 155.496 224.332 150.745 230.388C145.396 237.12 140.161 243.943 135.041 250.851C125.145 263.891 115.057 276.785 104.779 289.527C103.864 290.017 94.0008 302.099 92.3315 304.075L91.569 303.206C91.1212 303.923 91.1486 304.544 90.8628 304.798C90.1942 303.482 91.0483 304.392 90.4453 303.055C92.2732 300.276 95.1323 297.037 97.2387 294.342C101.72 288.611 106.384 282.95 110.723 277.109C109.072 277.762 107.023 281.524 105.682 283.006C104.659 284.137 104.259 284.583 103.018 285.604L102.477 285.35L102.786 285.758L102.634 285.861L102.299 285.655C102.49 283.724 109.196 276.399 109.726 273.898C111.988 270.535 114.686 267.049 117.051 263.699C118.192 262.97 124.983 252.282 127.072 250.358C127.228 250.583 127.113 250.447 127.486 250.697C132.392 245.071 136.858 239.076 140.845 232.764C141.295 232.049 141.687 231.387 142.518 231.194L142.747 231.348L143.835 230.567C144.181 229.724 148.026 224.625 148.992 222.829L149.695 222.828C150.606 222.328 150.339 221.967 151.272 221.761C152.07 220.935 153.833 218.536 154.733 217.439C156.854 214.887 159.041 212.39 161.292 209.951C171.609 198.707 184.884 192.663 197.705 185.077C205.786 180.295 213.688 174.141 221.741 169.181C222.995 168.409 225.416 167.445 226.202 166.292C226.135 165.438 226.289 165.847 225.462 165.135Z" fill="#5241BC"/>
<path d="M142.516 231.194L142.744 231.348L143.833 230.567C138.899 239.481 130.191 247.674 125.265 256.829C124.454 258.336 122.702 260.292 122.193 261.835C121.529 262.988 117.787 267.664 116.669 269.106C115.539 270.564 111.708 276.126 110.721 277.109C109.069 277.762 107.021 281.524 105.68 283.006C104.657 284.137 104.257 284.583 103.015 285.604L102.475 285.35L102.784 285.758L102.632 285.861L102.297 285.655C102.487 283.725 109.194 276.399 109.724 273.898C111.986 270.536 114.684 267.05 117.049 263.7C118.189 262.97 124.981 252.282 127.07 250.358C127.225 250.584 127.11 250.447 127.484 250.698C132.39 245.071 136.856 239.076 140.842 232.764C141.293 232.049 141.685 231.388 142.516 231.194Z" fill="#000385"/>
<path d="M148.992 222.829L149.695 222.828C150.606 222.327 150.339 221.967 151.272 221.761C150.162 223.929 146.195 229.369 144.548 231.694C139.514 238.942 134.293 246.059 128.892 253.037C127.519 254.846 123.523 260.513 122.195 261.835C122.704 260.292 124.456 258.335 125.267 256.829C130.193 247.674 138.901 239.481 143.835 230.567C144.181 229.724 148.026 224.625 148.992 222.829Z" fill="#0414B0"/>
<path d="M87.5673 200.649C88.6322 200.688 91.8251 200.354 93.0041 200.272C98.0185 199.922 102.48 199.681 107.497 200.484L108.613 200.683L108.639 200.905C107.8 201.227 107.579 201.337 106.663 201.46C96.6511 201.666 96.4901 212.154 94.2271 219.635C93.0114 223.654 91.7644 228.475 90.8644 232.541C90.6354 233.31 90.4308 233.906 90.3251 234.709C89.939 236.133 89.246 238.83 89.1916 240.263L88.8608 241.456L88.6665 240.837C86.1989 239.191 84.4669 239.557 81.5931 239.927C83.5047 241.154 87.005 239.871 88.5079 241.514L88.4898 241.812C87.1454 241.249 77.2511 241.444 75.223 241.442L30.5971 241.586C23.3926 241.601 16.1254 241.726 8.93067 241.497C5.52539 241.389 1.69677 240.132 0.532479 236.63C0.0832051 235.482 0.0792836 235.254 0 234.015L0.805559 233.448L0.834444 235.529C2.78423 236.916 5.23419 236.657 7.13309 235.49C13.742 231.429 20.2594 227.48 27.4189 224.402C31.0581 222.837 35.0385 221.187 38.5769 219.374C48.4844 214.296 58.0204 209.728 68.5725 206.028C72.0018 204.825 75.477 203.756 78.9895 202.823C81.6284 202.14 84.7699 201.535 87.3123 200.732L87.5673 200.649Z" fill="url(#paint8_linear_0_1)"/>
<path d="M0.53125 236.629C2.03568 237.657 2.32933 239.435 4.63051 239.869C10.381 240.952 16.3938 239.833 22.182 239.901C42.0538 240.134 61.7387 238.621 81.5919 239.927C83.5035 241.154 87.0038 239.871 88.5067 241.514L88.4886 241.812C87.1442 241.248 77.2499 241.444 75.2218 241.442L30.5959 241.586C23.3914 241.601 16.1242 241.726 8.92944 241.497C5.52416 241.388 1.69554 240.132 0.53125 236.629Z" fill="#9A8FF0"/>
<path d="M115.059 200.173C119.983 200.77 143.321 204.111 132.249 215.466C131.252 216.489 123.892 218.789 121.555 220.279C110.776 227.151 100.016 233.963 89.5308 241.285L89.0468 241.769L88.8594 241.456L89.1902 240.263C89.2445 238.83 89.9375 236.133 90.3237 234.709C90.4294 233.906 90.634 233.31 90.863 232.541C91.763 228.475 93.01 223.654 94.2257 219.635C96.4887 212.154 96.6497 201.666 106.661 201.46C107.578 201.337 107.798 201.227 108.637 200.905L108.612 200.683L107.496 200.484C109.975 200.517 112.55 200.271 115.059 200.173Z" fill="#0414B0"/>
<path d="M115.059 200.173C119.983 200.77 143.321 204.111 132.249 215.466C131.252 216.489 123.892 218.789 121.555 220.279C110.776 227.151 100.016 233.963 89.5308 241.285L89.0468 241.769L88.8594 241.456L89.1902 240.263C89.9762 240.047 89.6488 240.26 90.1465 239.519L92.2064 237.189C94.2795 235.689 97.5512 232.343 99.8832 230.426L100.094 230.906C104.582 227.363 115.011 220.169 119.925 217.454C121.142 216.564 125.238 214.555 125.346 213.325L125.294 212.892C121.862 212.628 109.719 221.156 106.08 223.101C105.306 223.515 103.744 225.896 102.452 226.31C101.528 227.203 97.0139 231.465 96.1427 231.552L95.9704 231.459C98.0612 228.108 106.653 218.788 109.422 216.209C111.04 213.873 117.829 206.165 120.254 204.43C120.725 204.092 120.758 204.338 121.27 203.557C119.327 202.586 113.771 201.669 111.537 201.544L106.661 201.46C107.578 201.337 107.798 201.227 108.637 200.905L108.612 200.683L107.496 200.484C109.975 200.517 112.55 200.271 115.059 200.173Z" fill="#20148A"/>
<path d="M109.428 216.208C111.114 214.839 112.663 213.38 114.24 211.915C116.65 209.675 124.861 201.627 126.222 208.646C126.501 210.086 122.423 210.58 121.533 211.183C118.456 213.267 115.927 215.985 112.943 218.178C110.736 219.738 106.906 220.987 104.69 222.766C104.123 223.222 103.055 225.537 102.458 226.309C101.534 227.202 97.02 231.465 96.1488 231.551L95.9766 231.458C98.0673 228.107 106.659 218.788 109.428 216.208Z" fill="url(#paint9_linear_0_1)"/>
<path d="M125.3 212.893L126.49 211.925C127.748 210.902 130.135 208.338 128.164 206.816C126.802 205.764 124.138 203.925 122.523 203.493C123.424 203.187 127.51 204.756 128.302 205.73L128.321 205.317C126.304 203.182 123.149 202.826 120.414 202.064L120.625 201.854C124.322 202.034 127.978 203.494 131.069 205.48C133.801 209.734 131.032 210.962 127.789 213.576C124.615 216.135 120.727 217.634 117.521 220.153C117.152 220.437 116.575 220.515 116.133 220.515L116.186 220.255C117.318 219.555 119.347 218.504 119.931 217.454C121.148 216.565 125.245 214.556 125.353 213.325L125.3 212.893Z" fill="#3C23B8"/>
<path d="M99.8851 230.426L100.096 230.905C98.4115 232.436 91.8545 238.55 90.1484 239.519L92.2084 237.189C94.2815 235.689 97.5531 232.343 99.8851 230.426Z" fill="#010244"/>
<path d="M106.666 201.46L111.542 201.544C111.557 202.047 111.621 201.805 111.311 202.258C111.204 203.187 111.149 203.68 111.161 204.609C108.688 207.744 107.513 209.997 105.431 213.308C104.341 214.708 102.787 215.89 101.699 217.264C100.086 219.3 98.8102 221.776 97.2407 223.827C95.1475 226.562 93.3362 229.902 91.3346 232.624L90.8672 232.541C91.7672 228.475 93.0142 223.654 94.2299 219.635C96.4929 212.154 96.6539 201.666 106.666 201.46Z" fill="#000385"/>
<path d="M125.346 213.325C125.238 214.555 121.141 216.564 119.924 217.454C115.011 220.169 104.582 227.363 100.094 230.905L99.8828 230.426C103.843 226.916 120.846 215.147 125.346 213.325Z" fill="#020123"/>
<path d="M90.3288 234.708L90.6758 235.328L90.478 235.176L90.711 235.922L90.8769 235.933L90.7947 235.595L91.1485 235.367L91.6986 235.505L91.6497 235.715C91.4838 236.399 91.4852 236.549 91.0521 237.123C92.166 237.385 91.5792 236.286 92.2115 237.189L90.1516 239.519C89.6539 240.26 89.9813 240.047 89.1953 240.263C89.2496 238.83 89.9426 236.133 90.3288 234.708Z" fill="#5241BC"/>
<path d="M81.5951 239.927C84.4688 239.557 86.2008 239.19 88.6684 240.836L88.8627 241.455L89.0502 241.769C89.1583 242.02 89.5665 242.913 89.6218 243.119C91.9944 248.712 95.9645 252.492 93.6266 258.451C85.4893 279.197 72.6673 297.495 62.4231 316.972L62.1975 317.318C60.9872 319.196 59.3301 322.434 58.2044 324.45L50.6441 337.891C49.9692 339.091 47.0803 344.278 46.3486 345.167C46.0207 342.303 50.4107 338.048 49.0819 335.091L48.7477 334.94C45.0394 338.455 43.5277 343.885 41.6875 345.658C43.2879 341.461 45.5832 337.726 47.3631 333.705C50.1234 327.469 52.9375 321.319 55.778 315.123C67.1199 290.883 78.0263 266.442 88.4918 241.812L88.5099 241.514C87.0069 239.871 83.5067 241.154 81.5951 239.927Z" fill="url(#paint10_linear_0_1)"/>
<path d="M89.6257 243.119C95.4027 246.676 100.925 250.83 104.786 256.215C105.338 256.985 107.293 256.042 108.343 256.054C100.862 266.39 93.4367 278.724 86.2268 289.38C78.368 300.996 70.306 313.089 62.7373 324.91L51.1287 343.297C50.2384 344.727 45.0928 353.124 44.4091 353.73C43.8507 354.076 43.7249 354.148 43.1191 354.396L42.7344 354.179C42.8308 353.726 45.6013 347.991 46.0124 347.2C47.881 343.6 51.1546 340.047 53.1093 336.533C55.5318 332.177 57.5345 327.527 60.0309 323.189C60.8409 321.716 63.099 319.193 63.5341 317.717L63.5967 317.726C63.0784 317.847 63.077 317.847 62.5455 317.83L62.4271 316.972C72.6713 297.495 85.4932 279.197 93.6305 258.452C95.9684 252.492 91.9984 248.712 89.6257 243.119Z" fill="url(#paint11_linear_0_1)"/>
<path d="M77.649 199.043C83.8429 197.268 108.705 198.747 115.062 200.173C112.552 200.271 109.978 200.517 107.499 200.484C102.482 199.68 98.02 199.921 93.0056 200.272C91.8266 200.354 88.6337 200.688 87.5688 200.649L87.3138 200.731C84.7713 201.535 81.6299 202.14 78.991 202.823C75.4785 203.755 72.0033 204.824 68.574 206.027C58.0219 209.728 48.4859 214.295 38.5784 219.373C35.04 221.187 31.0596 222.836 27.4204 224.401C20.2609 227.48 13.7435 231.429 7.13458 235.49C5.23569 236.657 2.78573 236.915 0.835938 235.529L2.01001 235.463C3.39356 234.701 3.76795 233.14 4.79424 232.613C8.16134 230.883 11.1692 229.033 14.3415 226.988C29.1563 217.438 43.5674 207.737 60.7283 202.785C63.3065 202.041 65.939 201.728 68.5588 201.191C71.6827 200.438 74.4596 199.697 77.649 199.043Z" fill="#3C23B8"/>
<path d="M82.772 200.075L84.0998 200.335C84.2833 200.766 84.2902 200.565 84.1654 200.933C76.2448 201.967 66.3858 206.021 58.7877 208.546C56.952 209.157 49.7455 212.406 48.5234 212.427C49.6921 211.354 58.5655 207.991 60.4865 206.932C62.4681 205.838 66.1733 204.822 68.29 203.735C72.9306 201.353 77.7698 201.169 82.5743 200.12L82.772 200.075Z" fill="#0414B0"/>
<path d="M41.6855 345.658C43.5257 343.885 45.0375 338.455 48.7457 334.94L49.0799 335.091C50.4087 338.048 46.0187 342.303 46.3466 345.167C47.0783 344.278 49.9672 339.091 50.6421 337.891L58.2025 324.45C59.3281 322.434 60.9852 319.197 62.1955 317.318L62.4211 316.972L62.5396 317.83C63.0711 317.847 63.0725 317.847 63.5908 317.725L63.5282 317.717C63.0931 319.193 60.835 321.715 60.025 323.189C57.5285 327.527 55.5259 332.177 53.1033 336.533C51.1487 340.047 47.875 343.6 46.0065 347.2C45.5954 347.991 42.8249 353.726 42.7284 354.179L43.1131 354.396C43.719 354.148 43.8448 354.076 44.4032 353.729L29.7793 377.866C27.5412 381.492 19.6819 394.017 18.4168 397.975C19.3618 396.638 20.4184 395.2 21.2949 393.831C23.7053 392.658 27.853 385.202 30.0225 383.063C30.5966 382.497 32.0956 380.372 32.5601 379.668C33.9529 378.073 36.1592 374.909 37.4208 373.16C41.294 371.035 53.3534 351.307 59.3907 346.654C59.1793 349.474 55.2783 352.737 54.0127 354.964C54.1326 356.537 54.1683 357.668 54.1551 359.246C45.8058 368.12 37.6039 377.132 29.5527 386.278C26.9867 389.211 24.6807 392.198 21.9419 394.974C20.7928 396.139 20.2922 397.559 18.6898 398.781C18.1295 398.477 18.3722 398.69 18.0938 397.97C18.3556 395.671 21.6547 389.446 22.796 386.927L41.6855 345.658Z" fill="#7B70E3"/>
<path d="M109.72 273.897C109.19 276.398 102.484 283.724 102.294 285.655L102.628 285.861L102.781 285.758L102.472 285.35L103.012 285.604C104.254 284.583 104.653 284.136 105.676 283.006C107.017 281.524 109.066 277.762 110.717 277.109C106.378 282.95 101.714 288.611 97.2331 294.342C95.1267 297.037 92.2676 300.275 90.4397 303.055C91.0426 304.392 90.1886 303.482 90.8571 304.798C91.143 304.544 91.1156 303.922 91.5634 303.206L92.3259 304.075C93.9952 302.098 103.858 290.017 104.774 289.527C100.822 295.245 95.7659 300.474 91.4846 306.027C85.1233 314.278 78.5344 322.393 71.9245 330.446C67.7034 335.588 63.565 341.56 59.3864 346.653C53.3491 351.307 41.2897 371.035 37.4166 373.16C36.1549 374.909 33.9486 378.073 32.5558 379.668L32.5 379.61C32.5313 378.247 41.8755 365.989 43.2625 364.116L59.9889 341.393L89.0938 301.614C91.4268 298.478 94.0006 295.499 96.2734 292.312C98.1728 291.001 106.94 276.963 109.72 273.897Z" fill="#0414B0"/>
<path d="M90.445 303.055C91.048 304.392 90.1939 303.482 90.8625 304.798C91.1483 304.544 91.1209 303.923 91.5687 303.206L92.3312 304.075C94.0005 302.099 103.864 290.017 104.779 289.527C100.827 295.245 95.7712 300.474 91.4899 306.028C85.1286 314.279 78.5397 322.393 71.9298 330.446C67.7087 335.589 63.5703 341.56 59.3918 346.654C53.3545 351.307 41.295 371.035 37.4219 373.16C38.2441 371.574 40.882 368.263 41.9988 366.657C46.1754 360.649 50.8281 355.086 55.2896 349.294L90.445 303.055Z" fill="#594ED3"/>
<path d="M93.3585 239.914C94.0706 240.163 94.7372 241.028 95.3842 240.889C101.584 239.548 107.956 239.956 114.148 239.257C116.636 238.976 118.933 236.974 122.274 236.742C121.501 238.093 120.971 238.723 120.786 240.241C119.56 241.949 109.192 255.497 108.335 256.054C107.286 256.042 105.331 256.985 104.779 256.215C100.917 250.83 95.3954 246.676 89.6185 243.119C89.5632 242.914 89.155 242.02 89.0469 241.769L89.5309 241.285C90.7094 241.43 92.319 240.48 93.3585 239.914Z" fill="#0414B0"/>
<path d="M134.136 200.324C133.135 199.424 131.103 199.245 129.617 198.935C131.862 198.802 133.474 199.264 135.779 199.002L136.405 199.01C166.844 199.37 146.406 222.195 137.799 234.813C136.53 236.672 134.653 238.341 133.333 240.192C131.202 243.376 129.515 247.425 127.074 250.358C124.985 252.281 118.194 262.97 117.053 263.699C116.873 263.753 116.692 263.806 116.511 263.86C113.431 267.769 109.85 273.153 106.843 276.911C106.741 276.56 106.913 276.133 107.112 275.888C109.049 273.499 110.384 270.795 112.062 268.219C113.146 266.555 115.32 264.178 116.09 262.524L115.87 261.951C117.773 258.565 119.041 256.927 121.396 253.843C122.919 251.11 124.711 248.77 126.493 246.206C129.596 241.713 132.723 237.236 135.873 232.776C138.872 228.486 141.88 223.264 144.932 219.313C146.597 216.266 147.564 210.966 145.635 207.916C142.26 202.58 133.666 201.175 128.107 199.451C130.079 199.52 132.18 199.967 134.136 200.324Z" fill="#3C23B8"/>
<path d="M134.136 200.324C133.136 199.424 131.104 199.245 129.617 198.935C131.862 198.802 133.474 199.264 135.779 199.002L136.405 199.01C140.299 199.841 147.789 201.144 150.409 204.372C151.124 205.252 150.963 210.062 149.786 211.034C149.053 210.837 148.695 210.35 148.387 209.67C145.628 203.575 142.456 202.912 136.454 200.988C136.059 200.862 134.488 200.496 134.136 200.324Z" fill="#08D0FF"/>
<path d="M121.391 253.843C122.914 251.11 124.706 248.77 126.488 246.206C129.591 241.713 132.718 237.235 135.868 232.776C138.867 228.485 141.875 223.264 144.927 219.313C143.264 224.614 125.581 251.644 121.732 253.672C121.619 253.731 121.504 253.786 121.391 253.843Z" fill="#20148A"/>
<path d="M93.3594 239.914C93.8077 239.36 101.83 234.339 102.752 233.771C107.628 230.767 128.81 220.25 133.161 223.002C131.628 223.43 126.334 231.469 124.92 233.177C124.122 234.14 123.193 235.731 122.274 236.742C118.934 236.974 116.637 238.976 114.149 239.257C107.957 239.956 101.585 239.548 95.385 240.889C94.738 241.028 94.0715 240.163 93.3594 239.914Z" fill="#01015C"/>
<path d="M115.869 261.951L116.088 262.524C115.318 264.178 113.145 266.556 112.06 268.219C110.382 270.795 109.048 273.499 107.11 275.888C106.911 276.133 106.739 276.56 106.841 276.911C109.848 273.153 113.429 267.769 116.51 263.86C116.69 263.806 116.871 263.753 117.051 263.699C114.687 267.049 111.989 270.535 109.727 273.898C106.947 276.963 98.179 291.001 96.2796 292.312C94.0068 295.499 91.433 298.478 89.1 301.615L59.9951 341.393L43.2687 364.116C41.8818 365.989 32.5375 378.248 32.5062 379.611L32.562 379.668C32.0976 380.372 30.5985 382.497 30.0244 383.063C27.8549 385.202 23.7072 392.658 21.2969 393.831C22.0672 391.059 36.5927 371.319 38.9854 367.977L72.9414 320.899C78.2901 313.568 84.8393 303.333 90.5639 296.655C94.412 290.398 99.4363 284.511 103.685 278.495C104.909 276.816 105.909 274.71 107.22 273.124C110.266 269.44 113.081 265.846 115.869 261.951Z" fill="#20148A"/>
<path d="M31.5423 209.412C32.1795 209.678 32.1408 209.648 32.8363 209.583C35.6009 207.705 41.2393 204.703 44.3348 203.073C45.0396 202.702 45.5892 203.011 46.1941 203.313C40.539 207.094 3.15824 231.115 1.9871 234.393C1.85936 234.75 1.94207 235.106 2.00765 235.463L0.833573 235.529L0.804688 233.448C2.10993 229.224 14.8707 220.531 18.9959 217.271C23.2273 217.137 28.6332 211.049 31.5423 209.412Z" fill="#3C23B8"/>
<path d="M122.277 236.742C123.195 235.731 124.124 234.14 124.922 233.177C126.336 231.469 131.63 223.43 133.163 223.002C132.34 225.423 122.84 237.733 120.789 240.241C120.975 238.723 121.504 238.093 122.277 236.742Z" fill="#000385"/>
<defs>
<linearGradient id="paint0_linear_0_1" x1="156.229" y1="86.8225" x2="167.38" y2="92.2578" gradientUnits="userSpaceOnUse">
<stop stop-color="#6A56D0"/>
<stop offset="1" stop-color="#817BE8"/>
</linearGradient>
<linearGradient id="paint1_linear_0_1" x1="82.915" y1="156.516" x2="74.6758" y2="149.141" gradientUnits="userSpaceOnUse">
<stop stop-color="#675BDB"/>
<stop offset="1" stop-color="#8681EB"/>
</linearGradient>
<linearGradient id="paint2_linear_0_1" x1="96.8059" y1="155.334" x2="84.3126" y2="143.247" gradientUnits="userSpaceOnUse">
<stop stop-color="#4832A6"/>
<stop offset="1" stop-color="#684DD3"/>
</linearGradient>
<linearGradient id="paint3_linear_0_1" x1="179.372" y1="187.833" x2="175.891" y2="157.429" gradientUnits="userSpaceOnUse">
<stop stop-color="#5E5EE0"/>
<stop offset="1" stop-color="#7C7AEB"/>
</linearGradient>
<linearGradient id="paint4_linear_0_1" x1="143.61" y1="150.558" x2="112.159" y2="115.372" gradientUnits="userSpaceOnUse">
<stop stop-color="#01020F"/>
<stop offset="1" stop-color="#010B57"/>
</linearGradient>
<linearGradient id="paint5_linear_0_1" x1="105.802" y1="178.653" x2="134.622" y2="136.14" gradientUnits="userSpaceOnUse">
<stop stop-color="#001363"/>
<stop offset="1" stop-color="#031D9B"/>
</linearGradient>
<linearGradient id="paint6_linear_0_1" x1="188.405" y1="200.346" x2="170.974" y2="170.218" gradientUnits="userSpaceOnUse">
<stop stop-color="#08218D"/>
<stop offset="1" stop-color="#003AC3"/>
</linearGradient>
<linearGradient id="paint7_linear_0_1" x1="129.881" y1="252.847" x2="141.242" y2="263.054" gradientUnits="userSpaceOnUse">
<stop stop-color="#6D5CDC"/>
<stop offset="1" stop-color="#8782EC"/>
</linearGradient>
<linearGradient id="paint8_linear_0_1" x1="59.5766" y1="196.111" x2="55.2114" y2="243.249" gradientUnits="userSpaceOnUse">
<stop stop-color="#6149D6"/>
<stop offset="1" stop-color="#817CF5"/>
</linearGradient>
<linearGradient id="paint9_linear_0_1" x1="107.753" y1="213.469" x2="112.594" y2="223.357" gradientUnits="userSpaceOnUse">
<stop stop-color="#020261"/>
<stop offset="1" stop-color="#02019A"/>
</linearGradient>
<linearGradient id="paint10_linear_0_1" x1="76.3492" y1="294.316" x2="68.0534" y2="290.422" gradientUnits="userSpaceOnUse">
<stop stop-color="#6B5DDA"/>
<stop offset="1" stop-color="#847DEB"/>
</linearGradient>
<linearGradient id="paint11_linear_0_1" x1="85.5449" y1="292.801" x2="68.5522" y2="282.626" gradientUnits="userSpaceOnUse">
<stop stop-color="#5037AC"/>
<stop offset="1" stop-color="#735DDF"/>
</linearGradient>
</defs>
</svg>
