<svg width="960" height="243" viewBox="0 0 960 243" fill="none" xmlns="http://www.w3.org/2000/svg">
<path d="M311.1 212.536H290.933V22.2263H311.1V212.536ZM356.784 212.536H336.332V70.5139H354.795V94.0896H356.215C360.76 81.0235 374.394 69.3777 395.13 69.3777C424.102 69.3777 435.18 90.113 435.18 114.257V122.21H414.729V117.381C414.729 95.5098 407.912 86.9885 387.744 86.9885C365.873 86.9885 356.784 96.93 356.784 119.654V212.536ZM473.549 53.4712H453.382V22.2263H473.549V53.4712ZM473.549 212.536H453.382V70.5139H473.549V212.536ZM555.686 215.377C517.34 215.377 496.32 199.186 496.32 166.521V165.953H516.204V169.361C516.204 188.676 524.157 198.05 555.97 198.05C582.102 198.05 588.919 190.665 588.919 176.462C588.919 162.26 580.114 157.147 558.81 153.171L535.519 149.194C512.795 144.934 496.32 134.424 496.32 109.712C496.32 85.0002 516.772 69.3777 550.005 69.3777C583.238 69.3777 605.678 85.8523 605.678 117.381V118.801H586.078V116.529C586.078 99.7705 579.545 86.9885 549.437 86.9885C523.873 86.9885 515.919 95.2258 515.919 109.428C515.919 123.63 523.021 128.459 544.04 132.436L567.9 136.98C592.327 141.525 608.518 152.319 608.518 175.61C608.518 200.606 588.067 215.377 555.686 215.377ZM716.834 215.377C663.717 215.377 632.188 177.315 632.188 117.381C632.188 57.4479 665.706 19.3859 720.81 19.3859C766.541 19.3859 798.638 46.0861 798.638 88.4087V90.9651H777.051V88.4087C777.051 56.3117 759.156 38.985 719.106 38.985C673.943 38.985 653.776 64.549 653.776 117.381C653.776 170.213 674.227 195.777 720.526 195.777C759.724 195.777 779.039 179.871 779.039 145.786V136.128H713.141V118.233H798.922V212.536H780.459V181.007H779.323C770.234 202.595 746.658 215.377 716.834 215.377ZM892.87 215.377C851.684 215.377 824.699 184.984 824.699 142.377C824.699 99.7705 851.684 69.3777 892.87 69.3777C934.056 69.3777 959.905 99.7705 959.905 142.377C959.905 184.984 933.772 215.377 892.87 215.377ZM896.184 197.198C929.985 197.198 943.335 177.315 943.335 142.377C943.335 107.44 929.985 87.8406 896.184 87.8406C862.383 87.8406 848.18 107.44 848.18 142.377C848.18 177.315 861.815 197.198 896.184 197.198Z" fill="white"/>
<path d="M193.245 221.555L157.881 225.792L153.218 186.996C162.095 169.29 159.609 147.561 146.662 132.341L145.052 118.896L184.084 149.573C184.676 151.632 185.102 153.763 185.363 155.94L193.245 221.555Z" fill="#DDF79F"/>
<path d="M151.111 169.409C150.733 172.841 149.952 176.226 148.744 179.492C147.963 181.599 147.04 183.635 145.904 185.599C144.862 187.469 143.655 189.292 142.306 191.02L101.475 243L73.4727 220.986L97.6164 190.262C116.387 184.037 130.021 166.9 131.631 146.969L139.986 136.341L140.341 135.891C141.714 137.406 142.969 139.016 144.081 140.673C146.046 143.561 147.608 146.661 148.768 149.881C151.04 156.13 151.845 162.828 151.111 169.409Z" fill="#DDF79F"/>
<path d="M124.648 145.005C124.554 147.04 124.317 149.052 123.914 151.017C123.275 154.473 122.21 157.716 120.743 160.817C117.95 166.876 113.76 172.202 108.552 176.344C105.878 178.498 102.919 180.345 99.7471 181.788C97.7114 182.735 95.5811 183.54 93.3797 184.132C91.3441 184.7 89.2137 185.126 87.0597 185.386L21.4455 193.269L17.1848 157.881L55.9569 153.242C62.987 156.769 70.6562 158.497 78.3017 158.497C89.9002 158.497 101.475 154.497 110.659 146.685L124.08 145.076L124.648 145.005Z" fill="#DDF79F"/>
<path d="M107.085 140.365C105.57 141.738 103.984 142.993 102.351 144.105C99.4629 146.046 96.3857 147.609 93.1666 148.768C86.8703 151.088 80.0769 151.893 73.4255 151.135C70.0406 150.757 66.7031 149.976 63.4839 148.768C61.3773 148.011 59.3416 147.064 57.3533 145.928C55.507 144.886 53.7081 143.679 51.9801 142.33L0 101.499L21.9898 73.4966L52.7376 97.664C58.9866 116.411 76.0766 129.998 95.9597 131.631L106.635 140.01L107.085 140.365Z" fill="#DDF79F"/>
<path d="M97.9717 124.648C95.9123 124.554 93.8767 124.317 91.8884 123.891C88.4562 123.252 85.1897 122.163 82.0888 120.719C76.1002 117.902 70.8454 113.76 66.7031 108.623C64.5491 105.949 62.7028 102.966 61.2352 99.7943C60.2884 97.7587 59.5073 95.652 58.8919 93.4507C58.3001 91.3913 57.8741 89.2373 57.6137 87.0597L49.7314 21.4454L85.095 17.2084L89.758 56.0041C80.9053 73.7096 83.367 95.439 96.3147 110.659L97.9243 124.127L97.9953 124.648H97.9717Z" fill="#DDF79F"/>
<path d="M169.48 22.0134L145.312 52.7613C126.566 58.9866 112.955 76.1002 111.345 95.9833L102.966 106.659L102.611 107.108C101.238 105.594 99.9837 104.008 98.8712 102.351C96.9302 99.4392 95.3443 96.3384 94.1844 93.1192C91.9121 86.8703 91.1073 80.1715 91.8411 73.5912C92.2198 70.159 93.0009 66.7504 94.2081 63.4839C94.9892 61.3536 95.936 59.3416 97.0486 57.377C98.0901 55.507 99.2972 53.7081 100.646 51.9801L141.478 0L169.48 22.0134Z" fill="#DDF79F"/>
<path d="M225.768 85.095L186.972 89.758C169.267 80.8817 147.537 83.3671 132.317 96.3147L118.873 97.9243L118.328 97.9953C118.423 95.936 118.683 93.9004 119.062 91.9357C119.725 88.4799 120.837 85.166 122.305 82.0415C125.074 76.0766 129.216 70.8218 134.353 66.7031C137.051 64.5254 140.01 62.6792 143.206 61.2116C145.241 60.2648 147.372 59.4837 149.573 58.8682C151.632 58.3001 153.739 57.8741 155.917 57.6137L221.531 49.7315L225.768 85.095Z" fill="#DDF79F"/>
<path d="M242.976 141.502L220.963 169.504L190.215 145.336L184.653 140.957H184.629L176.273 134.377L160.887 122.281L152.579 115.772L146.993 111.369L136.318 102.99L135.868 102.635C137.383 101.262 138.992 100.007 140.649 98.8949C143.561 96.9302 146.685 95.368 149.904 94.2081C156.13 91.9358 162.828 91.131 169.385 91.8648C172.817 92.2435 176.202 93.0246 179.469 94.2318C181.575 95.0129 183.611 95.9361 185.576 97.0722C187.446 98.1137 189.268 99.3209 190.996 100.67L242.976 141.502Z" fill="#DDF79F"/>
</svg>
