<svg width="785" height="199" viewBox="0 0 785 199" fill="none" xmlns="http://www.w3.org/2000/svg">
<path d="M254.414 173.81H237.922V18.1764H254.414V173.81ZM291.774 173.81H275.049V57.6655H290.148V76.9455H291.31C295.026 66.2602 306.176 56.7363 323.133 56.7363C346.826 56.7363 355.886 73.6934 355.886 93.4379V99.942H339.161V95.9931C339.161 78.1069 333.586 71.1382 317.094 71.1382C299.207 71.1382 291.774 79.2683 291.774 97.8514V173.81ZM387.264 43.7282H370.772V18.1764H387.264V43.7282ZM387.264 173.81H370.772V57.6655H387.264V173.81ZM454.434 176.133C423.075 176.133 405.886 162.892 405.886 136.179V135.714H422.146V138.502C422.146 154.298 428.65 161.963 454.666 161.963C476.037 161.963 481.612 155.924 481.612 144.309C481.612 132.695 474.411 128.514 456.989 125.261L437.942 122.009C419.359 118.525 405.886 109.93 405.886 89.7213C405.886 69.5122 422.611 56.7363 449.788 56.7363C476.966 56.7363 495.317 70.2091 495.317 95.9931V97.1546H479.289V95.2963C479.289 81.5912 473.946 71.1382 449.324 71.1382C428.418 71.1382 421.914 77.8746 421.914 89.489C421.914 101.103 427.721 105.052 444.91 108.304L464.423 112.021C484.399 115.738 497.64 124.565 497.64 143.612C497.64 164.054 480.915 176.133 454.434 176.133ZM586.219 176.133C542.781 176.133 516.997 145.006 516.997 95.9931C516.997 46.9802 544.407 15.8535 589.471 15.8535C626.87 15.8535 653.118 37.6887 653.118 72.2997V74.3903H635.464V72.2997C635.464 46.0511 620.83 31.8815 588.078 31.8815C551.144 31.8815 534.651 52.7874 534.651 95.9931C534.651 139.199 551.376 160.105 589.239 160.105C621.295 160.105 637.09 147.097 637.09 119.222V111.324H583.2V96.69H653.351V173.81H638.252V148.026H637.323C629.89 165.68 610.61 176.133 586.219 176.133ZM730.18 176.133C696.498 176.133 674.431 151.278 674.431 116.435C674.431 81.5912 696.498 56.7363 730.18 56.7363C763.862 56.7363 785 81.5912 785 116.435C785 151.278 763.63 176.133 730.18 176.133ZM732.89 161.266C760.532 161.266 771.45 145.006 771.45 116.435C771.45 87.863 760.532 71.8351 732.89 71.8351C705.248 71.8351 693.633 87.863 693.633 116.435C693.633 145.006 704.783 161.266 732.89 161.266Z" fill="#10413B"/>
<path d="M158.034 181.185L129.114 184.65L125.3 152.923C132.559 138.444 130.527 120.674 119.938 108.227L118.622 97.2321L150.542 122.319C151.026 124.003 151.375 125.746 151.588 127.526L158.034 181.185Z" fill="#10413B"/>
<path d="M123.577 138.541C123.267 141.347 122.629 144.116 121.641 146.787C121.003 148.51 120.248 150.174 119.319 151.781C118.467 153.31 117.48 154.801 116.376 156.214L82.9847 198.723L60.085 180.72L79.8295 155.594C95.1799 150.503 106.33 136.489 107.646 120.19L114.479 111.498L114.77 111.131C115.892 112.369 116.918 113.686 117.828 115.041C119.435 117.402 120.712 119.938 121.661 122.571C123.519 127.681 124.177 133.159 123.577 138.541Z" fill="#10413B"/>
<path d="M101.936 118.583C101.859 120.248 101.665 121.893 101.336 123.5C100.813 126.326 99.9424 128.978 98.7423 131.514C96.4581 136.47 93.0318 140.825 88.7732 144.212C86.5858 145.974 84.1661 147.484 81.5723 148.665C79.9075 149.439 78.1654 150.097 76.3651 150.581C74.7004 151.046 72.9582 151.394 71.1967 151.607L17.538 158.053L14.0537 129.114L45.7611 125.32C51.5102 128.204 57.782 129.617 64.0345 129.617C73.5196 129.617 82.9853 126.346 90.496 119.958L101.472 118.641L101.936 118.583Z" fill="#10413B"/>
<path d="M87.5728 114.789C86.3339 115.912 85.037 116.938 83.7013 117.848C81.3397 119.435 78.8233 120.713 76.1907 121.661C71.0416 123.558 65.486 124.216 60.0466 123.597C57.2785 123.287 54.5491 122.648 51.9165 121.661C50.1937 121.042 48.529 120.267 46.9029 119.338C45.3931 118.487 43.9219 117.499 42.5088 116.396L0 83.0045L17.983 60.1047L43.1283 79.8686C48.2386 95.1997 62.2146 106.311 78.4748 107.646L87.205 114.499L87.5728 114.789Z" fill="#10413B"/>
<path d="M80.1203 101.936C78.4362 101.859 76.7714 101.665 75.1454 101.317C72.3386 100.794 69.6673 99.9035 67.1315 98.7227C62.234 96.4191 57.9367 93.0316 54.5492 88.831C52.7876 86.6437 51.2778 84.2046 50.0776 81.6107C49.3033 79.946 48.6645 78.2232 48.1612 76.423C47.6773 74.7389 47.3289 72.9773 47.1159 71.1965L40.6699 17.5378L69.5899 14.0728L73.4033 45.7996C66.1636 60.2789 68.1768 78.049 78.7652 90.4958L80.0816 101.51L80.1396 101.936H80.1203Z" fill="#10413B"/>
<path d="M138.599 18.0024L118.835 43.1476C103.504 48.2386 92.3733 62.234 91.057 78.4942L84.2045 87.2244L83.9142 87.5922C82.7914 86.3533 81.7655 85.0563 80.8557 83.7013C79.2684 81.3204 77.9714 78.7845 77.0229 76.1519C75.1646 71.0416 74.5065 65.5635 75.1066 60.1821C75.4163 57.3753 76.0551 54.5878 77.0423 51.9165C77.6811 50.1743 78.4554 48.529 79.3652 46.9223C80.2169 45.3931 81.2041 43.9219 82.3075 42.5088L115.699 -9.53674e-06L138.599 18.0024Z" fill="#10413B"/>
<path d="M184.631 69.5898L152.904 73.4032C138.425 66.1442 120.655 68.1767 108.208 78.7652L97.2128 80.0815L96.7676 80.1396C96.845 78.4555 97.0579 76.7907 97.3677 75.1841C97.9097 72.3579 98.8195 69.6479 100.02 67.0927C102.284 62.2146 105.672 57.9173 109.873 54.5491C112.079 52.7682 114.499 51.2584 117.112 50.0582C118.777 49.2839 120.519 48.6451 122.319 48.1418C124.003 47.6772 125.726 47.3288 127.507 47.1159L181.166 40.6699L184.631 69.5898Z" fill="#10413B"/>
<path d="M198.703 115.718L180.701 138.618L155.556 118.854L151.007 115.273H150.988L144.154 109.892L131.572 100L124.778 94.677L120.209 91.0765L111.479 84.224L111.111 83.9337C112.35 82.8109 113.666 81.785 115.022 80.8752C117.402 79.2685 119.958 77.9909 122.59 77.0424C127.681 75.1841 133.159 74.526 138.521 75.126C141.328 75.4358 144.096 76.0746 146.768 77.0618C148.49 77.7006 150.155 78.4555 151.762 79.3847C153.291 80.2364 154.782 81.2236 156.195 82.327L198.703 115.718Z" fill="#10413B"/>
</svg>
