<?xml version="1.0" encoding="UTF-8"?>
<svg xmlns="http://www.w3.org/2000/svg" viewBox="0 0 860 380">
  <rect width="860" height="380" fill="#ffffff"/>
  
  <text x="430" y="28" text-anchor="middle" font-family="Arial, sans-serif" font-size="18" font-weight="bold" fill="#1f2937">&#x67B6;&#x6784;&#x56FE;&#x6807;&#x9898;</text>
  
  <rect x="30" y="45" width="800" height="65" rx="4" fill="#1f2937"/>
  <text x="50" y="66" font-family="Arial, sans-serif" font-size="12" font-weight="bold" fill="white">&#x5C42;&#x7EA7; A</text>
  <g font-family="Arial, sans-serif" font-size="11" fill="white">
    <rect x="40" y="75" width="188" height="28" rx="2" fill="none" stroke="rgba(255,255,255,0.5)" stroke-width="1"/>
    <text x="134" y="93" text-anchor="middle">&#x6A21;&#x5757; 1</text>
    <rect x="238" y="75" width="188" height="28" rx="2" fill="none" stroke="rgba(255,255,255,0.5)" stroke-width="1"/>
    <text x="332" y="93" text-anchor="middle">&#x6A21;&#x5757; 2</text>
    <rect x="436" y="75" width="188" height="28" rx="2" fill="none" stroke="rgba(255,255,255,0.5)" stroke-width="1"/>
    <text x="530" y="93" text-anchor="middle">&#x6A21;&#x5757; 3</text>
    <rect x="634" y="75" width="188" height="28" rx="2" fill="none" stroke="rgba(255,255,255,0.5)" stroke-width="1"/>
    <text x="728" y="93" text-anchor="middle">&#x6A21;&#x5757; 4</text>
  </g>
  
  <rect x="30" y="120" width="800" height="65" rx="4" fill="#374151"/>
  <text x="50" y="141" font-family="Arial, sans-serif" font-size="12" font-weight="bold" fill="white">&#x5C42;&#x7EA7; B</text>
  <g font-family="Arial, sans-serif" font-size="11" fill="white">
    <rect x="40" y="150" width="188" height="28" rx="2" fill="none" stroke="rgba(255,255,255,0.5)" stroke-width="1"/>
    <text x="134" y="168" text-anchor="middle">&#x6A21;&#x5757; 1</text>
    <rect x="238" y="150" width="188" height="28" rx="2" fill="none" stroke="rgba(255,255,255,0.5)" stroke-width="1"/>
    <text x="332" y="168" text-anchor="middle">&#x6A21;&#x5757; 2</text>
    <rect x="436" y="150" width="188" height="28" rx="2" fill="none" stroke="rgba(255,255,255,0.5)" stroke-width="1"/>
    <text x="530" y="168" text-anchor="middle">&#x6A21;&#x5757; 3</text>
    <rect x="634" y="150" width="188" height="28" rx="2" fill="none" stroke="rgba(255,255,255,0.5)" stroke-width="1"/>
    <text x="728" y="168" text-anchor="middle">&#x6A21;&#x5757; 4</text>
  </g>
  
  <rect x="30" y="195" width="800" height="65" rx="4" fill="#4b5563"/>
  <text x="50" y="216" font-family="Arial, sans-serif" font-size="12" font-weight="bold" fill="white">&#x5C42;&#x7EA7; C</text>
  <g font-family="Arial, sans-serif" font-size="11" fill="white">
    <rect x="40" y="225" width="188" height="28" rx="2" fill="none" stroke="rgba(255,255,255,0.5)" stroke-width="1"/>
    <text x="134" y="243" text-anchor="middle">&#x6A21;&#x5757; 1</text>
    <rect x="238" y="225" width="188" height="28" rx="2" fill="none" stroke="rgba(255,255,255,0.5)" stroke-width="1"/>
    <text x="332" y="243" text-anchor="middle">&#x6A21;&#x5757; 2</text>
    <rect x="436" y="225" width="188" height="28" rx="2" fill="none" stroke="rgba(255,255,255,0.5)" stroke-width="1"/>
    <text x="530" y="243" text-anchor="middle">&#x6A21;&#x5757; 3</text>
    <rect x="634" y="225" width="188" height="28" rx="2" fill="none" stroke="rgba(255,255,255,0.5)" stroke-width="1"/>
    <text x="728" y="243" text-anchor="middle">&#x6A21;&#x5757; 4</text>
  </g>
  
  <rect x="30" y="270" width="800" height="65" rx="4" fill="#f3f4f6" stroke="#d1d5db" stroke-width="1"/>
  <text x="50" y="291" font-family="Arial, sans-serif" font-size="12" font-weight="bold" fill="#1f2937">&#x5C42;&#x7EA7; D</text>
  <g font-family="Arial, sans-serif" font-size="11" fill="#1f2937">
    <rect x="40" y="300" width="188" height="28" rx="2" fill="white" stroke="#9ca3af" stroke-width="1"/>
    <text x="134" y="318" text-anchor="middle">&#x6A21;&#x5757; 1</text>
    <rect x="238" y="300" width="188" height="28" rx="2" fill="white" stroke="#9ca3af" stroke-width="1"/>
    <text x="332" y="318" text-anchor="middle">&#x6A21;&#x5757; 2</text>
    <rect x="436" y="300" width="188" height="28" rx="2" fill="white" stroke="#9ca3af" stroke-width="1"/>
    <text x="530" y="318" text-anchor="middle">&#x6A21;&#x5757; 3</text>
    <rect x="634" y="300" width="188" height="28" rx="2" fill="white" stroke="#9ca3af" stroke-width="1"/>
    <text x="728" y="318" text-anchor="middle">&#x6A21;&#x5757; 4</text>
  </g>
</svg>
