<?xml version="1.0" encoding="UTF-8"?>
<svg xmlns="http://www.w3.org/2000/svg" viewBox="0 0 860 380">
  <defs>
    <linearGradient id="neon1" x1="0%" y1="0%" x2="100%" y2="0%">
      <stop offset="0%" stop-color="#00d4ff"/>
      <stop offset="100%" stop-color="#7b2ff7"/>
    </linearGradient>
  </defs>
  <rect width="860" height="380" fill="#0a0a0f"/>
  
  <text x="430" y="28" text-anchor="middle" font-family="Arial, sans-serif" font-size="18" font-weight="bold" fill="url(#neon1)">&#x67B6;&#x6784;&#x56FE;&#x6807;&#x9898;</text>
  
  <rect x="30" y="45" width="800" height="65" rx="4" fill="#12121a" stroke="#00d4ff" stroke-width="1"/>
  <text x="50" y="66" font-family="Arial, sans-serif" font-size="12" font-weight="bold" fill="#00d4ff">&#x5C42;&#x7EA7; A</text>
  <g font-family="Arial, sans-serif" font-size="11" fill="#00d4ff">
    <rect x="40" y="75" width="188" height="28" rx="2" fill="none" stroke="#00d4ff" stroke-width="0.5"/>
    <text x="134" y="93" text-anchor="middle">&#x6A21;&#x5757; 1</text>
    <rect x="238" y="75" width="188" height="28" rx="2" fill="none" stroke="#00d4ff" stroke-width="0.5"/>
    <text x="332" y="93" text-anchor="middle">&#x6A21;&#x5757; 2</text>
    <rect x="436" y="75" width="188" height="28" rx="2" fill="none" stroke="#00d4ff" stroke-width="0.5"/>
    <text x="530" y="93" text-anchor="middle">&#x6A21;&#x5757; 3</text>
    <rect x="634" y="75" width="188" height="28" rx="2" fill="none" stroke="#00d4ff" stroke-width="0.5"/>
    <text x="728" y="93" text-anchor="middle">&#x6A21;&#x5757; 4</text>
  </g>
  
  <rect x="30" y="120" width="800" height="65" rx="4" fill="#12121a" stroke="#7b2ff7" stroke-width="1"/>
  <text x="50" y="141" font-family="Arial, sans-serif" font-size="12" font-weight="bold" fill="#7b2ff7">&#x5C42;&#x7EA7; B</text>
  <g font-family="Arial, sans-serif" font-size="11" fill="#b388ff">
    <rect x="40" y="150" width="188" height="28" rx="2" fill="none" stroke="#7b2ff7" stroke-width="0.5"/>
    <text x="134" y="168" text-anchor="middle">&#x6A21;&#x5757; 1</text>
    <rect x="238" y="150" width="188" height="28" rx="2" fill="none" stroke="#7b2ff7" stroke-width="0.5"/>
    <text x="332" y="168" text-anchor="middle">&#x6A21;&#x5757; 2</text>
    <rect x="436" y="150" width="188" height="28" rx="2" fill="none" stroke="#7b2ff7" stroke-width="0.5"/>
    <text x="530" y="168" text-anchor="middle">&#x6A21;&#x5757; 3</text>
    <rect x="634" y="150" width="188" height="28" rx="2" fill="none" stroke="#7b2ff7" stroke-width="0.5"/>
    <text x="728" y="168" text-anchor="middle">&#x6A21;&#x5757; 4</text>
  </g>
  
  <rect x="30" y="195" width="800" height="65" rx="4" fill="#12121a" stroke="#f72585" stroke-width="1"/>
  <text x="50" y="216" font-family="Arial, sans-serif" font-size="12" font-weight="bold" fill="#f72585">&#x5C42;&#x7EA7; C</text>
  <g font-family="Arial, sans-serif" font-size="11" fill="#ff6b9d">
    <rect x="40" y="225" width="188" height="28" rx="2" fill="none" stroke="#f72585" stroke-width="0.5"/>
    <text x="134" y="243" text-anchor="middle">&#x6A21;&#x5757; 1</text>
    <rect x="238" y="225" width="188" height="28" rx="2" fill="none" stroke="#f72585" stroke-width="0.5"/>
    <text x="332" y="243" text-anchor="middle">&#x6A21;&#x5757; 2</text>
    <rect x="436" y="225" width="188" height="28" rx="2" fill="none" stroke="#f72585" stroke-width="0.5"/>
    <text x="530" y="243" text-anchor="middle">&#x6A21;&#x5757; 3</text>
    <rect x="634" y="225" width="188" height="28" rx="2" fill="none" stroke="#f72585" stroke-width="0.5"/>
    <text x="728" y="243" text-anchor="middle">&#x6A21;&#x5757; 4</text>
  </g>
  
  <rect x="30" y="270" width="800" height="65" rx="4" fill="#12121a" stroke="#4cc9f0" stroke-width="1"/>
  <text x="50" y="291" font-family="Arial, sans-serif" font-size="12" font-weight="bold" fill="#4cc9f0">&#x5C42;&#x7EA7; D</text>
  <g font-family="Arial, sans-serif" font-size="11" fill="#4cc9f0">
    <rect x="40" y="300" width="188" height="28" rx="2" fill="none" stroke="#4cc9f0" stroke-width="0.5"/>
    <text x="134" y="318" text-anchor="middle">&#x6A21;&#x5757; 1</text>
    <rect x="238" y="300" width="188" height="28" rx="2" fill="none" stroke="#4cc9f0" stroke-width="0.5"/>
    <text x="332" y="318" text-anchor="middle">&#x6A21;&#x5757; 2</text>
    <rect x="436" y="300" width="188" height="28" rx="2" fill="none" stroke="#4cc9f0" stroke-width="0.5"/>
    <text x="530" y="318" text-anchor="middle">&#x6A21;&#x5757; 3</text>
    <rect x="634" y="300" width="188" height="28" rx="2" fill="none" stroke="#4cc9f0" stroke-width="0.5"/>
    <text x="728" y="318" text-anchor="middle">&#x6A21;&#x5757; 4</text>
  </g>
</svg>
