<svg xmlns="http://www.w3.org/2000/svg" viewBox="0 0 512 512" fill="none">
  <!-- Square background with rounded corners -->
  <rect width="512" height="512" rx="64" fill="#1a1a1a"/>
  <!-- Outer diamond -->
  <path d="M256 64L448 256L256 448L64 256Z" stroke="#3A8548" stroke-width="12" fill="none"/>
  <!-- Inner topographic contour -->
  <path d="M256 128L384 256L256 384L128 256Z" stroke="#3A8548" stroke-width="7" fill="none" opacity="0.5"/>
  <!-- Wind flow curves -->
  <path d="M128 212C170 194 214 234 256 194C298 154 342 212 384 194" stroke="#3A8548" stroke-width="9" fill="none" stroke-linecap="round"/>
  <path d="M96 268C138 250 182 290 224 250C266 210 310 268 352 250" stroke="#3A8548" stroke-width="9" fill="none" stroke-linecap="round"/>
  <path d="M128 324C170 306 214 346 256 306C298 266 342 324 384 306" stroke="#3A8548" stroke-width="9" fill="none" stroke-linecap="round" opacity="0.6"/>
</svg>
