<svg width="315" height="233" viewBox="0 0 315 233" fill="none" xmlns="http://www.w3.org/2000/svg">
<g clip-path="url(#clip0_3606_765)">
<path d="M49.1416 39.4966C48.6137 39.9038 48.137 40.1923 47.6377 40.4357C47.6357 40.4378 47.6316 40.4378 47.6296 40.4398C47.4556 40.5258 47.2797 40.6056 47.0955 40.6854C47.0935 40.6854 47.0915 40.6854 47.0874 40.6854C46.7539 40.8286 46.3999 40.9657 46.0091 41.1171C45.4464 39.6848 46.0377 34.4368 47.0853 29.8741C47.8403 26.578 48.8326 23.6399 49.7963 22.756C49.5283 26.0808 49.1682 29.1662 49.0147 32.2823C48.8961 34.6311 48.8981 36.9964 49.1416 39.4946V39.4966Z" fill="#DC2626"/>
<path d="M303.866 87.9875C299.373 87.6356 295.285 89.1231 291.263 91.2325C286.117 93.9313 281.317 97.1047 276.922 100.661C276.038 101.375 275.355 101.931 274.15 102.242C272.331 102.711 270.41 103.4 268.746 104.305C268.016 104.7 267.486 104.863 266.686 105.201L250.367 112.131C250.285 112.165 250.203 112.202 250.123 112.239C248.108 113.16 246.293 114.758 243.715 114.936C245.589 113.266 247.66 112.2 249.602 110.885C254.821 107.355 260.761 105.18 266.71 103.161C266.972 102.265 272.922 101.657 273.43 101.072C268.656 98.3671 261.741 99.8136 257.704 101.907L256.851 101.878C251.801 104.045 247.056 106.852 242.913 111.042C228.329 105.944 223.015 116.485 206.17 120.319C199.476 121.841 189.767 121.54 184.038 117.962C184.043 117.958 184.047 117.954 184.049 117.95C187.378 117.632 190.322 117.939 193.42 117.72L197.577 117.424C208.554 116.646 229.237 104.679 232.493 91.4638C227.492 91.0811 222.743 90.9297 217.9 89.074C228.204 87.7257 232.632 87.9057 242.6 83.564C246.539 81.8495 250.193 80.0203 253.229 76.9676C256.544 73.6367 259.238 69.8863 261.387 65.8965C261.751 65.2193 262.135 64.6648 262.242 63.8505C262.328 63.1999 263.032 61.9068 262.387 61.2521C259.377 60.761 256.284 61.1804 253.125 60.004C258.183 58.1134 263.467 57.3585 268.392 54.7702C277.561 49.9518 285.057 42.4797 290.389 33.6552C291.68 31.5171 292.707 29.0557 292.732 26.6107C292.756 24.0777 289.949 22.0092 287.486 21.8455C277.499 21.1867 267.056 21.7984 257.356 24.6772C229.291 33.0045 205.812 47.0833 184.918 67.4454C175.875 76.2576 166.031 86.7763 161.424 98.4407C157.99 107.126 157.639 116.309 160.722 124.822C160.879 125.211 161.506 125.618 161.544 126.052C161.741 128.206 163.603 129.581 164.337 132.055C162.228 130.492 160.622 128.272 159.484 126.031C158.447 125.45 158.346 123.918 157.461 123.196C156.832 122.684 156.571 121.956 156.589 121.135C154.565 117.156 153.915 112.695 154.224 108.024C154.324 106.533 154.997 105.121 154.353 103.445C151.294 109.303 150.496 116.217 152.094 122.737C152.908 126.062 154.711 128.72 155.818 131.699C158.829 136.397 162.166 140.734 167.026 143.901C167.39 144.139 167.513 144.648 167.715 144.843C175.588 149.909 183.783 153.945 193.111 156.29C208.953 160.274 218.271 160.834 234.406 158.058C242.545 156.658 250.266 154.608 257.692 151.451C257.966 150.727 258.786 150.819 259.379 150.6C273.824 145.268 289.571 132.614 297.767 119.509C297.937 118.684 298.215 117.772 299.054 117.45C302.072 112.626 316.883 89.0024 303.866 87.9875ZM279.801 104.722C278.921 105.778 277.591 106.306 276.535 107.173C276.171 107.472 275.484 108.151 274.974 107.697C274.948 107.169 275.598 106.907 275.821 106.78C276.149 105.559 277.432 105.121 278.209 104.362C283.22 99.4678 292.853 93.1722 300.265 93.6346C292.771 96.81 285.988 100.141 279.801 104.722Z" fill="#DC2626"/>
<path d="M156.589 121.135L157.461 123.196C156.832 122.684 156.571 121.956 156.589 121.135Z" fill="#DC2626"/>
<path d="M160.722 124.822C160.879 125.211 161.506 125.618 161.544 126.052C161.231 126.029 160.982 125.704 160.791 125.076C160.767 124.996 160.744 124.912 160.722 124.822Z" fill="#DC2626"/>
<path d="M159.484 126.031C160.237 127.445 160.922 128.094 161.54 127.973C161.555 127.973 161.567 127.971 161.581 127.965C161.663 127.947 161.745 127.914 161.825 127.865C161.278 127.112 161.186 126.506 161.544 126.052C161.741 128.206 163.603 129.581 164.337 132.055C162.228 130.492 160.622 128.272 159.484 126.031Z" fill="#DC2626"/>
<path d="M167.715 144.843C163.914 142.312 160.601 139.29 157.774 135.775C157.772 135.771 157.767 135.769 157.765 135.764C157.739 135.734 157.714 135.703 157.69 135.672C157.69 135.631 157.69 135.591 157.686 135.55C157.682 135.419 157.663 135.288 157.636 135.159C157.514 134.568 157.174 133.978 156.62 133.395L155.818 131.699C158.829 136.397 162.166 140.734 167.026 143.902C167.39 144.139 167.513 144.648 167.715 144.843Z" fill="#DC2626"/>
<path d="M248.832 112.712C249.256 112.569 249.773 112.37 250.367 112.131C250.285 112.165 250.203 112.202 250.123 112.239C248.108 113.16 246.293 114.758 243.715 114.936C245.589 113.266 247.66 112.2 249.601 110.885C248.797 111.515 248.245 111.987 247.911 112.325C247.713 112.524 247.592 112.675 247.543 112.783C247.529 112.81 247.521 112.832 247.519 112.855C247.506 112.914 247.529 112.955 247.582 112.976C247.74 113.041 248.175 112.939 248.832 112.712Z" fill="#DC2626"/>
<path d="M257.704 101.907L256.851 101.878C257.217 101.727 257.503 101.737 257.704 101.907Z" fill="#DC2626"/>
<path d="M259.379 150.6L257.691 151.451C257.966 150.727 258.786 150.819 259.379 150.6Z" fill="#DC2626"/>
<path d="M251.353 110.725L249.602 110.885C254.821 107.355 260.761 105.18 266.71 103.161L266.672 103.202L265.491 104.442C260.607 106.121 255.764 108.002 251.353 110.725Z" fill="#DC2626"/>
<path d="M266.686 105.201L250.367 112.131C250.291 111.955 250.23 111.779 250.219 111.601C250.176 110.815 262.913 105.825 264.511 105.236C265.45 104.581 266.174 104.569 266.686 105.201Z" fill="#DC2626"/>
<path d="M266.686 105.201L268.746 104.305C268.016 104.7 267.486 104.863 266.686 105.201Z" fill="#DC2626"/>
<path d="M273.81 101.373C271.406 101.862 269.039 102.459 266.71 103.161C266.972 102.265 272.922 101.657 273.43 101.072C268.656 98.367 261.741 99.8136 257.704 101.907C260.394 99.3307 271.302 98.2279 273.689 100.935C273.818 101.08 273.874 101.248 273.81 101.373Z" fill="#DC2626"/>
<path d="M274.15 102.242C272.331 102.711 270.41 103.4 268.746 104.305C268.769 104.047 268.812 103.799 268.926 103.593C269.022 103.419 269.389 103.226 269.892 103.042C271.195 102.561 273.409 102.134 274.15 102.242Z" fill="#DC2626"/>
<path d="M276.922 100.661C276.038 101.375 275.355 101.931 274.15 102.242L274.182 101.941L274.215 101.657C275.103 101.62 276.006 101.289 276.922 100.661Z" fill="#DC2626"/>
<path d="M299.054 117.45C298.414 117.986 298.066 118.75 297.767 119.509C297.937 118.684 298.215 117.772 299.054 117.45Z" fill="#DC2626"/>
<path d="M300.265 93.6346C292.771 96.81 285.988 100.141 279.801 104.722C278.921 105.778 277.591 106.306 276.535 107.173C276.171 107.472 275.484 108.151 274.974 107.697C274.948 107.169 275.598 106.907 275.821 106.78C276.149 105.559 277.432 105.121 278.209 104.362C283.22 99.4678 292.853 93.1722 300.265 93.6346Z" fill="#DC2626"/>
<path d="M110.799 45.8925C109.982 45.7043 109.049 45.4383 108.74 44.5912C100.374 39.6009 90.3466 37.5385 80.4193 36.9616C77.7369 36.8061 75.2203 37.1846 72.497 37.4096C55.1712 38.8357 39.4004 46.5124 29.1519 60.8183C24.8797 66.7825 22.1831 73.0679 20.2209 80.1471C16.1146 94.9768 14.8317 113.356 20.0368 128.041C24.1002 139.503 36.804 146.277 47.9651 149.248C70.3773 155.216 95.6438 152.519 116.204 142.183C121.297 139.623 125.673 136.499 129.735 132.742C136.159 126.801 139.66 119.147 139.705 110.267C139.822 87.431 131.034 59.0751 110.799 45.8925ZM62.449 57.2316C63.8137 52.9083 67.4126 49.8904 71.5006 49.2193C76.2495 48.4378 80.7384 50.5718 83.296 54.5001C86.7026 59.7298 85.8699 66.8152 80.6198 70.5779C76.1778 73.7635 70.5042 73.5692 66.4653 70.449C62.5247 67.4045 60.8797 62.2075 62.449 57.2316ZM118.85 134.207C110.619 141.195 100.581 145.19 89.8883 147.322C76.7303 149.945 63.5436 149.544 50.6454 145.027C45.3257 143.163 40.8408 140.564 36.9636 136.884C26.1381 126.604 29.2214 109.047 31.0158 95.7952C31.2879 93.7839 32.7611 92.7425 34.7887 92.6586C45.6245 92.2187 50.6086 92.3681 59.8219 86.0786C62.4469 84.2883 64.7651 82.3671 67.5088 80.7814C73.1763 77.5078 79.6827 76.9758 85.7042 79.5927L93.964 83.1835C102.443 86.8704 109.898 85.9497 118.917 84.319C121.471 83.8586 122.441 85.428 123.177 87.4249C126.052 95.2141 128.341 102.942 128.804 111.302C129.307 120.403 125.796 128.309 118.85 134.207Z" fill="#DC2626"/>
<path d="M58.3078 227.259C57.7738 229.726 44.2495 229.319 41.1518 228.814C31.3186 227.212 22.0112 222.792 14.8747 215.916C10.9401 212.122 8.36009 207.672 6.39386 202.684C3.67059 195.781 4.15959 188.503 5.4711 181.258C6.76214 174.132 11.5233 167.973 18.7723 166.737C26.1401 165.481 32.8859 169.141 36.405 175.451C34.2158 176.086 32.4705 176.636 30.9667 177.892C33.4854 177.737 35.8035 177.19 38.2853 177.696C49.9211 180.065 56.5134 191.269 53.0659 202.897C51.8874 202.385 51.4434 201.356 50.5227 200.636C42.6864 194.504 37.5324 195.787 30.934 187.768C30.8767 193.755 36.2148 195.175 37.4935 200.294C39.157 206.964 42.6107 212.746 47.736 217.303C51.0649 220.263 54.228 223.044 57.7226 225.765C58.1584 226.105 58.3856 226.901 58.3078 227.259Z" fill="#DC2626"/>
<path d="M117.514 168.609C115.081 171.482 112.239 173.319 108.947 174.981C96.0653 181.479 75.8055 184.315 62.0541 178.07C53.2398 172.691 48.9963 162.995 46.8664 152.951C53.1252 153.958 58.8091 155.441 64.9554 155.766C82.7108 156.701 96.1328 154.447 112.869 147.996C111.805 154.905 113.037 163.359 117.514 168.609Z" fill="#DC2626"/>
<path d="M129.933 187.14C126.502 190.459 122.4 192.401 118.275 194.567C112.407 197.649 106.375 199.752 99.7645 200.597C95.6213 201.127 91.7256 201.624 87.3799 201.203C78.6863 200.356 71.294 196.306 66.0541 189.628C63.7809 186.733 61.3339 183.903 61.162 179.789C77.2111 186.488 94.2995 184.055 109.51 177.544C113.502 175.836 117.121 174.05 120.601 171.371C122.009 172.482 123.253 173.26 124.976 173.808C126.078 178.424 127.519 182.751 129.933 187.14Z" fill="#DC2626"/>
<path d="M143.713 202.199C138.651 208.562 131.971 212.511 124.448 215.075C112.517 219.142 99.4821 219.744 88.7037 213.154C87.5804 212.073 79.2223 205.151 80.5973 203.779C96.6791 206.983 116.755 200.362 129.962 191.087C130.537 190.682 130.815 190.14 131.402 190.32C132.814 190.754 133.109 192.378 134.469 193.166C135.564 195.762 141.172 199.711 143.707 202.179C143.707 202.187 143.711 202.193 143.713 202.199Z" fill="#DC2626"/>
<path d="M153.622 217.939C151.181 221.821 147.533 224.55 143.128 225.915C129.817 230.035 118.277 228.274 105.954 223.026C104.616 221.741 102.954 221.317 101.843 219.952C104.198 219.506 106.422 219.969 108.781 219.754C116.174 219.083 123.228 217.291 130.001 214.44C135.511 212.122 139.879 208.695 143.936 204.652C144.147 204.495 144.325 204.352 144.472 204.223C145.497 203.594 146.4 204.192 147.695 204.611C149.675 205.254 151.232 206.465 152.611 207.815C155.404 210.551 155.685 214.659 153.622 217.939Z" fill="#DC2626"/>
<path d="M167.396 161.745C164.646 163.66 161.741 165.491 158.394 166.263C147.124 168.859 136.593 158.619 133.671 148.546C132.538 144.64 131.621 138.387 133.731 134.754C136.352 130.236 139.973 127.014 141.481 121.827C141.927 120.298 144.816 119.505 146.005 118.791C144.145 131.969 147.478 144.642 156.646 154.279C151.2 156.515 145.782 155.363 141.493 152.282C140.573 150.604 140.382 151.787 138.316 148.961C138.05 149.647 138.375 150.891 139.024 150.997C139.042 151.11 138.977 151.247 139.02 151.353C139.093 151.541 139.157 152.004 139.449 151.848C143.226 159.198 150.956 163.777 159.386 163.144C162.181 162.934 164.515 162.183 167.396 161.745Z" fill="#DC2626"/>
<path d="M192.098 211.447C187.122 215.019 176.626 213.97 170.79 212.161C165.465 210.508 160.877 207.867 157.109 203.758C156.599 203.202 155.828 203.114 155.768 202.355C155.703 201.516 156.286 201.221 156.73 200.642C160.972 195.118 167.443 192.941 174.244 194.353C181.616 195.883 188.01 200.131 191.531 206.887C192.272 208.306 192.495 209.927 192.098 211.447Z" fill="#DC2626"/>
<path d="M15.9263 126.606C10.2486 122.819 7.43324 116.855 5.89462 110.559C3.56828 101.045 4.58925 91.1118 9.88234 82.7599C11.7176 79.8648 14.3304 77.4218 17.6961 75.8648C15.2307 85.1497 13.3954 94.0561 13.469 103.529C13.0169 111.269 14.0849 118.322 15.9263 126.606Z" fill="#DC2626"/>
<path d="M142.901 114.936C142.907 110.6 143.31 107.061 142.815 103.14C140.943 88.3333 139.374 79.6356 132.906 65.8188C150.905 71.2878 156.063 102.185 142.901 114.936Z" fill="#DC2626"/>
<path d="M213.814 200.845C208.707 204.624 202.997 206.831 196.384 208.626C193.945 202.105 190.999 202.623 193.205 199.472C196.759 194.398 201.845 190.946 207.664 188.785C212.047 187.159 217.313 189.638 217.853 194.479C218.162 197.246 215.903 199.351 213.814 200.845Z" fill="#DC2626"/>
<path d="M41.2828 169.019C40.8327 168.63 40.0838 172.141 39.3125 172.307C39.1488 172.18 38.9871 172.047 38.8275 171.908C38.7846 171.818 38.7396 171.713 38.6946 171.588C38.2178 170.263 37.0291 169.78 36.27 169.021C32.1329 164.873 26.9094 162.318 20.8347 161.659C22.537 155.723 26.6905 150.467 32.8368 149.125C36.0593 148.421 39.5784 150.87 40.8695 153.796C43.0321 158.702 42.9442 164.178 41.2828 169.019Z" fill="#DC2626"/>
<path d="M127.03 162.895C127.271 164.464 128.288 165.454 129.141 166.559C130.078 167.773 131.189 168.783 132.515 169.708C129.299 169.972 128.802 168.546 126.688 168.204C119.091 162.617 116.18 154.14 119.057 144.998L127.938 139.202C127.339 147.901 129.722 155.836 134.915 162.545C135.55 163.365 136.556 163.846 136.575 164.843C132.431 165.315 131.386 165.868 127.03 162.895Z" fill="#DC2626"/>
<path d="M206.747 185.661C201.325 187.865 197.293 191.202 193.473 195.173C192.306 195.146 191.148 197.219 189.733 198.258C189.156 197.276 188.372 197.164 187.711 196.824C185.643 195.762 183.828 194.252 181.561 193.338C183.419 188.658 187.378 182.146 192.169 180.881C197.303 179.525 202.893 181.587 206.747 185.661Z" fill="#DC2626"/>
<path d="M168.9 190.749C162.32 191.206 156.217 194.686 152.879 200.564C149.538 199.693 143.646 194.05 145.342 190.49C151.241 185.221 163.161 184.214 168.9 190.749Z" fill="#DC2626"/>
<path d="M73.7165 208.959C73.7042 209.88 73.1436 210.839 72.2126 211.494C67.6398 214.698 63.4024 217.927 59.5088 222.463C58.0746 222.054 56.5012 220.621 56.2065 219.259C56.9595 214.755 59.2285 210.631 62.1359 207.146C63.3615 205.677 65.2459 205.671 66.8745 205.258C69.1231 204.687 70.7599 204.937 72.2699 206.79C72.8244 207.47 73.7287 207.999 73.7165 208.959Z" fill="#DC2626"/>
<path d="M187.443 229.346C182.522 227.86 179.163 224.319 174.218 221.46C171.676 219.991 168.988 218.786 167.302 216.495C167.126 215.308 166.062 215.022 166.22 213.753C167.926 214.86 169.289 214.846 170.578 215.224C174.672 216.425 178.692 216.004 182.629 216.82C186.649 217.655 188.38 226.048 187.443 229.346Z" fill="#DC2626"/>
<path d="M178.279 157.855C176.493 157.767 175.3 156.634 173.78 156.763C164.706 153.051 154.702 143.764 153.407 133.383C153.346 132.884 154.271 133.041 154.549 133.043L163.204 143.206C164.425 144.64 165.751 145.698 166.88 146.936C168.667 148.894 170.428 150.78 172.732 152.509C173.548 153.123 174.608 153.819 175.048 154.645C175.752 155.977 177.203 156.497 178.279 157.855Z" fill="#DC2626"/>
<path d="M82.6658 219.502C79.4556 222.26 76.4029 225.078 73.3932 228.325C72.896 228.863 72.1349 229.11 71.7032 229.17C68.6853 229.587 70.3487 214.813 76.1553 213.424C78.4448 212.877 80.0387 213.004 81.7185 214.506C83.0566 215.701 84.4561 217.966 82.6658 219.502Z" fill="#DC2626"/>
<path d="M98.9318 5.26648L95.1937 14.7417C95.1712 14.7887 95.1486 14.8337 95.1282 14.8808C92.2781 20.7386 90.8786 27.1222 89.7492 33.7104C88.6464 34.1012 85.9783 34.0378 85.8924 32.9043C85.6919 30.1871 87.3083 28.1043 87.5108 25.8291C87.5967 25.6634 87.6745 25.4895 87.742 25.3094C87.7441 25.3053 87.7461 25.2992 87.7481 25.2951C90.1727 19.7483 93.7676 9.00458 98.9318 5.26648Z" fill="#DC2626"/>
<path d="M185.575 181.458C182.461 184.466 180.943 187.953 179.566 192.243L173.894 191.011C173.43 187.418 174.842 181.976 178.586 180.742C180.822 180.008 183.144 180.255 185.575 181.458Z" fill="#DC2626"/>
<path d="M147.787 185.266C145.264 187.069 142.899 188.063 140.699 190.494C138.424 189.233 137.321 187.081 136.204 184.783C139.079 184.581 141.225 184.034 143.654 182.968C145.021 183.762 146.604 184.165 147.787 185.266Z" fill="#DC2626"/>
<path d="M164.916 221.514C163.251 222.856 161.51 223.59 159.245 224.343C159.938 222.67 161.235 221.645 162.404 220.349C163.255 220.675 163.965 220.583 164.916 221.514Z" fill="#DC2626"/>
<path d="M79.8361 55.3677C77.0208 52.0797 72.3497 51.5416 69.0065 53.8884C64.8571 56.7999 64.006 62.0582 66.7907 65.9907C69.5589 69.8966 75.0341 70.6597 78.809 67.6971C82.5492 64.761 83.1835 59.2797 79.8361 55.3677ZM74.8807 65.3339C72.4418 65.9825 70.183 64.8388 69.3339 62.5431C68.4889 60.2536 69.5221 57.469 72.2945 56.7467C74.9973 56.0408 77.2847 57.4853 77.8494 59.7339C78.4551 62.1503 77.1886 64.7221 74.8807 65.3339Z" fill="#DC2626"/>
<path d="M314.373 93.9067C313.816 89.7921 311.177 86.0765 307.291 84.7323C297.354 81.297 284.629 88.7753 276.717 94.3507C275.584 95.1486 274.69 95.4944 273.233 95.3021C261.728 93.786 251.862 97.9374 242.485 104.268C241.125 103.922 240.022 103.498 238.753 102.823C240.879 99.4617 242.084 96.1962 242.845 92.4008C251.95 90.7333 259.93 85.4689 264.744 77.4791C267.519 72.8714 268.971 67.9364 270.624 62.8193C272.621 61.473 274.774 60.6423 276.967 59.4106C286.59 53.9989 294.334 45.4342 297.753 34.8889C299.175 30.5043 299.191 25.293 295.93 21.9089C293.452 19.3391 289.237 18.533 285.667 18.2567C273.738 17.3299 262.015 18.9483 250.506 22.2915C242.201 24.7038 234.348 27.335 226.514 30.981C204.488 41.2296 182.103 61.6101 165.591 79.3185C161.399 83.8136 157.839 88.3128 154.048 93.3768C153.46 80.4029 147.865 68.319 135.758 62.6781C134.164 62.0009 132.663 61.6797 130.864 61.8229C122.083 47.0464 109.307 38.2014 92.413 34.3815C93.7286 27.0935 95.0606 19.9815 97.7736 13.4915L103.413 0C95.3225 3.08951 89.0616 16.0491 86.2975 23.2982C85.076 26.5002 83.8258 29.69 83.0811 33.3912C83.075 33.4178 76.5829 33.3012 75.9752 33.3258C73.6059 33.4158 71.2407 33.6183 68.8898 33.9416C65.7205 34.3754 62.5799 35.0219 59.4965 35.8772C57.9395 36.3089 56.3988 36.7938 54.8745 37.3278C54.1052 37.5979 53.34 37.8802 52.5809 38.1749C51.9384 38.4245 51.3471 38.8991 51.1855 37.915C51.1139 37.4751 51.0484 37.0332 50.9891 36.5892C50.1379 30.1012 50.8786 23.38 51.8055 16.937C47.7052 21.3769 45.5057 27.4577 44.3211 33.2951C43.8955 35.3902 43.5497 37.5672 43.5497 39.7073C43.5497 40.538 43.5906 41.4117 43.652 42.3508C32.3416 49.1273 23.8485 59.3676 18.9442 71.7605C16.6403 71.9426 14.8603 72.851 13.0434 74.1625C2.18511 82.0111 -0.544294 96.7098 1.68997 109.442C2.9892 116.843 6.20556 123.439 11.7503 128.542C13.2296 129.905 14.8419 130.856 17.0577 131.007C19.8731 136.957 24.0961 141.808 29.9088 145.436C23.7769 148.2 17.2787 156.352 15.9078 162.97C-2.55964 167.869 -2.80311 194.977 4.37436 209.053C9.69405 219.488 18.7559 226.651 29.9252 229.81C37.3155 231.901 44.5666 232.971 52.2801 232.566C55.5906 232.392 61.5753 232.951 62.9175 228.869C63.4883 227.132 63.1671 225.493 62.0008 223.862C63.5845 222.528 64.9308 221.321 66.7722 220.108C66.7579 222.51 65.9763 224.66 66.7988 227.007C67.4535 228.881 68.7261 230.858 70.408 231.946C74.1931 234.395 76.7855 226.913 84.9184 223.247C91.1486 220.439 91.9854 222.101 98.2872 225.374C107.703 230.264 117.731 232.603 128.372 232.898C139.054 233.192 147.063 233.072 157.203 229.368C161.237 227.895 164.965 226.316 168.603 223.703C175.801 227.177 183.03 230.16 190.886 232.135C193.945 226.852 191.427 221.376 188.722 216.366C192.227 216.259 194.039 213.579 196.411 212.331C201.305 209.753 212.362 208.399 218.913 201.818C220.521 200.2 221.982 198.052 222.078 195.625C222.277 190.684 218.713 186.479 214.101 185.258L210.172 184.221C206.811 177.522 194.111 174.111 188.045 178.35C184.648 177.158 181.129 176.656 177.577 177.276C172.263 178.205 171.167 183.852 171.249 188.912C163.981 181.937 158.995 184.096 152.791 182.639C148.501 181.632 144.861 179.425 142.866 174.911L155.296 171.5C164.2 169.057 173.634 169.203 181.968 164.472C199.083 169.46 214.365 170.805 231.887 168.171C262.295 163.601 290.841 148.976 306.8 121.98C311.377 114.238 315.586 102.881 314.373 93.9067ZM142.901 114.936C142.907 110.6 143.31 107.061 142.815 103.14C140.943 88.3333 139.374 79.6356 132.906 65.8188C150.905 71.2878 156.063 102.185 142.901 114.936ZM87.5107 25.8291C87.5967 25.6634 87.6744 25.4895 87.742 25.3094C87.744 25.3053 87.746 25.2992 87.7481 25.2951C90.1726 19.7483 93.7675 9.00458 98.9317 5.26648L95.1936 14.7417C95.1711 14.7887 95.1486 14.8337 95.1281 14.8808C92.278 20.7386 90.8785 27.1222 89.7491 33.7104C88.6463 34.1012 85.9783 34.0378 85.8923 32.9043C85.6918 30.1871 87.3082 28.1043 87.5107 25.8291ZM47.0853 29.8761C47.8403 26.58 48.8326 23.6419 49.7963 22.758C49.5282 26.0828 49.1681 29.1682 49.0147 32.2843C48.896 34.6332 48.898 36.9984 49.1415 39.4966C48.6136 39.9037 48.1369 40.1922 47.6377 40.4357C47.6356 40.4378 47.6316 40.4378 47.6295 40.4398C47.4556 40.5257 47.2796 40.6055 47.0955 40.6853C47.0934 40.6853 47.0914 40.6853 47.0873 40.6853C46.7538 40.8286 46.3998 40.9656 46.0091 41.117C45.4464 39.6848 46.0377 34.4367 47.0853 29.8741V29.8761ZM5.89457 110.559C3.56823 101.045 4.5892 91.1118 9.88228 82.7599C11.7176 79.8648 14.3304 77.4218 17.6961 75.8648C15.2306 85.1497 13.3953 94.0561 13.469 103.529C13.0168 111.269 14.0848 118.322 15.9263 126.606C10.2485 122.819 7.43318 116.855 5.89457 110.559ZM20.0367 128.041C14.8316 113.356 16.1145 94.9768 20.2209 80.1471C22.183 73.0679 24.8797 66.7825 29.1518 60.8183C39.4004 46.5124 55.1712 38.8357 72.497 37.4096C75.2202 37.1846 77.7369 36.8061 80.4192 36.9616C90.3465 37.5385 100.374 39.6009 108.74 44.5912C109.049 45.4383 109.982 45.7042 110.799 45.8925C131.034 59.0751 139.822 87.431 139.705 110.267C139.66 119.147 136.159 126.801 129.735 132.742C125.673 136.499 121.297 139.623 116.204 142.183C95.6437 152.519 70.3773 155.216 47.9651 149.248C36.804 146.277 24.1002 139.502 20.0367 128.041ZM129.141 166.559C130.078 167.773 131.189 168.783 132.515 169.708C129.299 169.972 128.802 168.546 126.688 168.204C119.091 162.617 116.18 154.14 119.056 144.998L127.938 139.202C127.339 147.901 129.722 155.836 134.915 162.545C135.55 163.365 136.556 163.846 136.575 164.843C132.431 165.315 131.386 165.868 127.03 162.895C127.271 164.464 128.288 165.454 129.141 166.559ZM64.4765 196.364C64.3517 196.268 64.231 196.167 64.1164 196.063C63.4351 196.069 62.7456 195.369 62.1134 195.24C61.209 195.056 60.7609 194.496 60.0592 193.98C58.4469 192.798 56.4561 191.558 55.5333 189.575L51.2448 180.37C53.6858 182.614 55.5006 184.787 57.2397 187.017C57.8801 187.13 58.0909 187.744 58.4285 188.182C58.5246 188.251 58.9216 188.198 59.1712 188.3C62.5451 192.173 66.4039 195.118 70.4428 198.377C68.1737 198.271 66.0029 197.567 64.4786 196.366L64.4765 196.364ZM66.1031 201.763C60.1001 204.806 55.4044 209.597 53.5425 215.991C49.8617 212.849 47.6868 208.605 46.629 203.834C49.4382 205.014 51.6152 206.803 54.1625 208.351C56.6934 205.096 57.6285 201.424 58.2709 197.561C61.1272 198.758 63.5415 199.948 66.1031 201.763ZM117.514 168.609C115.081 171.482 112.239 173.319 108.947 174.981C96.0652 181.479 75.8054 184.315 62.054 178.07C53.2397 172.691 48.9963 162.995 46.8663 152.951C53.1251 153.958 58.809 155.441 64.9553 155.766C82.7108 156.701 96.1327 154.447 112.869 147.996C111.805 154.905 113.037 163.359 117.514 168.609ZM66.054 189.628C63.7809 186.733 61.3338 183.903 61.162 179.789C77.211 186.488 94.2995 184.055 109.51 177.544C113.501 175.836 117.121 174.05 120.601 171.371C122.009 172.482 123.253 173.26 124.976 173.808C126.078 178.424 127.519 182.752 129.933 187.14C126.502 190.459 122.4 192.401 118.275 194.567C112.407 197.649 106.375 199.752 99.7644 200.597C95.6212 201.127 91.7256 201.624 87.3798 201.203C78.6862 200.356 71.2939 196.306 66.054 189.628ZM32.8367 149.125C36.0592 148.421 39.5784 150.87 40.8694 153.796C43.0321 158.702 42.9441 164.178 41.2827 169.019C40.8326 168.63 40.0837 172.141 39.3124 172.307C39.1487 172.18 38.9871 172.047 38.8275 171.908C38.7845 171.818 38.7395 171.713 38.6945 171.588C38.2178 170.263 37.029 169.78 36.2699 169.021C32.1329 164.873 26.9094 162.318 20.8347 161.659C22.537 155.723 26.6904 150.467 32.8367 149.125ZM58.3077 227.259C57.7737 229.726 44.2495 229.319 41.1518 228.814C31.3185 227.212 22.0112 222.792 14.8746 215.916C10.9401 212.122 8.36003 207.672 6.3938 202.684C3.67053 195.781 4.15953 188.503 5.47104 181.258C6.76208 174.132 11.5232 167.973 18.7723 166.737C26.14 165.481 32.8858 169.141 36.405 175.451C34.2157 176.086 32.4705 176.636 30.9666 177.892C33.4853 177.737 35.8034 177.19 38.2853 177.696C49.9211 180.065 56.5134 191.269 53.0658 202.897C51.8873 202.385 51.4433 201.356 50.5226 200.636C42.6863 194.504 37.5323 195.787 30.9339 187.768C30.8766 193.755 36.2147 195.175 37.4935 200.294C39.1569 206.964 42.6106 212.746 47.7359 217.303C51.0648 220.263 54.228 223.044 57.7226 225.765C58.1584 226.105 58.3855 226.901 58.3077 227.259ZM59.5088 222.463C58.0745 222.054 56.5011 220.621 56.2065 219.259C56.9594 214.756 59.2285 210.631 62.1359 207.146C63.3614 205.677 65.2458 205.671 66.8745 205.258C69.1231 204.687 70.7599 204.937 72.2699 206.79C72.8243 207.47 73.7287 208 73.7164 208.959C73.7041 209.88 73.1435 210.839 72.2126 211.494C67.6397 214.698 63.4024 217.927 59.5088 222.463ZM82.6657 219.502C79.4555 222.26 76.4028 225.078 73.3931 228.325C72.8959 228.863 72.1348 229.11 71.7031 229.17C68.6852 229.587 70.3486 214.813 76.1553 213.424C78.4448 212.877 80.0386 213.004 81.7184 214.506C83.0565 215.701 84.456 217.966 82.6657 219.502ZM88.7036 213.153C87.5803 212.073 79.2223 205.151 80.5972 203.779C96.679 206.983 116.755 200.362 129.962 191.087C130.537 190.682 130.815 190.14 131.402 190.32C132.814 190.754 133.109 192.378 134.469 193.166C135.564 195.762 141.172 199.711 143.707 202.179C143.707 202.187 143.711 202.193 143.713 202.199C138.651 208.562 131.971 212.511 124.448 215.075C112.517 219.142 99.4821 219.744 88.7036 213.153ZM153.622 217.939C151.181 221.82 147.533 224.55 143.128 225.915C129.817 230.035 118.277 228.274 105.954 223.026C104.616 221.741 102.954 221.317 101.843 219.952C104.198 219.506 106.422 219.969 108.781 219.754C116.174 219.083 123.228 217.291 130.001 214.44C135.511 212.122 139.879 208.695 143.936 204.652C144.147 204.495 144.325 204.351 144.472 204.223C145.497 203.594 146.4 204.192 147.695 204.611C149.675 205.254 151.232 206.465 152.611 207.815C155.404 210.551 155.685 214.659 153.622 217.939ZM159.245 224.343C159.938 222.67 161.235 221.645 162.404 220.349C163.255 220.675 163.965 220.583 164.916 221.514C163.251 222.856 161.51 223.59 159.245 224.343ZM187.443 229.346C182.522 227.86 179.163 224.319 174.217 221.46C171.676 219.991 168.988 218.786 167.302 216.495C167.126 215.308 166.062 215.022 166.22 213.753C167.926 214.86 169.289 214.846 170.578 215.224C174.672 216.425 178.692 216.004 182.629 216.82C186.649 217.655 188.38 226.048 187.443 229.346ZM217.853 194.479C218.162 197.246 215.903 199.351 213.814 200.845C208.707 204.624 202.997 206.831 196.384 208.626C193.945 202.105 190.999 202.623 193.205 199.472C196.759 194.398 201.845 190.946 207.664 188.785C212.047 187.159 217.313 189.638 217.853 194.479ZM192.169 180.881C197.303 179.525 202.893 181.587 206.747 185.661C201.325 187.865 197.293 191.202 193.473 195.173C192.306 195.146 191.148 197.219 189.733 198.258C189.156 197.276 188.372 197.164 187.711 196.824C185.642 195.762 183.828 194.252 181.561 193.338C183.418 188.658 187.378 182.146 192.169 180.881ZM178.586 180.742C180.822 180.008 183.144 180.255 185.575 181.458C182.461 184.466 180.943 187.953 179.566 192.243L173.894 191.011C173.43 187.419 174.842 181.976 178.586 180.742ZM174.244 194.353C181.616 195.883 188.01 200.13 191.531 206.886C192.272 208.306 192.495 209.927 192.098 211.447C187.122 215.019 176.626 213.97 170.79 212.161C165.465 210.508 160.877 207.867 157.109 203.758C156.599 203.202 155.828 203.114 155.768 202.355C155.703 201.516 156.286 201.221 156.73 200.642C160.971 195.118 167.443 192.941 174.244 194.353ZM168.9 190.749C162.32 191.206 156.216 194.686 152.879 200.564C149.538 199.693 143.646 194.05 145.342 190.49C151.241 185.221 163.161 184.214 168.9 190.749ZM143.654 182.968C145.021 183.762 146.604 184.165 147.787 185.266C145.264 187.069 142.899 188.063 140.699 190.494C138.424 189.233 137.321 187.081 136.204 184.783C139.079 184.581 141.225 184.034 143.654 182.968ZM158.393 166.263C147.124 168.859 136.593 158.619 133.671 148.546C132.538 144.64 131.621 138.387 133.731 134.754C136.352 130.236 139.973 127.014 141.481 121.827C141.927 120.298 144.816 119.505 146.005 118.791C144.145 131.969 147.478 144.642 156.646 154.279C151.2 156.515 145.782 155.363 141.493 152.282C140.573 150.604 140.382 151.787 138.316 148.961C138.05 149.647 138.375 150.891 139.024 150.997C139.042 151.11 138.977 151.247 139.02 151.353C139.093 151.541 139.157 152.004 139.449 151.848C143.226 159.198 150.956 163.777 159.386 163.144C162.181 162.934 164.515 162.183 167.396 161.745C164.646 163.66 161.741 165.491 158.393 166.263ZM173.78 156.763C164.705 153.051 154.702 143.764 153.407 133.383C153.346 132.884 154.271 133.041 154.549 133.043L163.204 143.206C164.425 144.64 165.751 145.698 166.88 146.936C168.667 148.894 170.428 150.78 172.732 152.509C173.548 153.123 174.608 153.819 175.048 154.645C175.752 155.977 177.203 156.497 178.279 157.855C176.493 157.767 175.3 156.634 173.78 156.763ZM299.054 117.45C298.215 117.772 297.937 118.684 297.767 119.509C289.571 132.614 273.824 145.268 259.379 150.6C258.786 150.819 257.966 150.727 257.691 151.451C250.266 154.608 242.545 156.658 234.406 158.058C218.271 160.834 208.953 160.274 193.111 156.29C183.783 153.945 175.588 149.909 167.715 144.843C167.513 144.648 167.39 144.139 167.026 143.901C162.166 140.734 158.829 136.397 155.818 131.699C154.711 128.72 152.908 126.062 152.094 122.737C150.496 116.217 151.294 109.303 154.353 103.445C154.997 105.121 154.324 106.533 154.224 108.024C153.933 112.339 154.59 116.712 156.276 120.702C157.135 122.735 158.263 124.603 159.566 126.379C160.843 128.12 161.851 129.935 163.511 131.386C163.779 131.619 164.055 131.844 164.339 132.055C159.486 123.766 156.591 109.72 161.426 98.4407C166.367 86.9134 175.877 76.2576 184.92 67.4454C205.814 47.0833 229.293 33.0045 257.358 24.6772C267.058 21.7984 277.501 21.1867 287.488 21.8455C289.951 22.0092 292.758 24.0777 292.734 26.6107C292.709 29.0557 291.682 31.5171 290.391 33.6552C285.059 42.4797 277.563 49.9518 268.394 54.7702C263.469 57.3584 258.185 58.1134 253.127 60.004C256.286 61.1804 259.379 60.761 262.389 61.252C263.034 61.9068 262.33 63.1999 262.244 63.8505C262.137 64.6648 261.753 65.2193 261.389 65.8965C259.24 69.8863 256.546 73.6367 253.231 76.9676C250.195 80.0203 246.541 81.8494 242.602 83.564C232.634 87.9057 228.206 87.7256 217.902 89.074C222.745 90.9297 227.494 91.0811 232.495 91.4637C229.239 104.679 208.556 116.646 197.579 117.424L193.422 117.72C190.324 117.939 187.38 117.632 184.051 117.95C184.049 117.954 184.045 117.958 184.04 117.962C189.769 121.54 199.478 121.841 206.172 120.319C223.017 116.485 228.331 105.943 242.915 111.042C247.058 106.852 251.803 104.045 256.853 101.878L257.706 101.907C261.743 99.8136 268.658 98.367 273.432 101.072C272.924 101.657 266.974 102.265 266.712 103.161C266.694 103.167 266.678 103.173 266.661 103.179C266.604 103.198 266.549 103.218 266.491 103.237C266.379 103.275 266.266 103.312 266.154 103.351C266.111 103.365 266.068 103.382 266.025 103.396C265.378 103.617 264.732 103.84 264.085 104.067C264.083 104.069 264.079 104.069 264.077 104.071C263.942 104.118 263.807 104.165 263.672 104.215C263.662 104.219 263.652 104.223 263.639 104.227C263.439 104.298 263.236 104.37 263.036 104.444C262.962 104.47 262.89 104.495 262.817 104.522C262.772 104.538 262.727 104.554 262.682 104.571C262.631 104.589 262.577 104.609 262.526 104.628C262.367 104.687 262.207 104.745 262.047 104.804C261.97 104.832 261.892 104.861 261.814 104.89C261.745 104.916 261.673 104.941 261.603 104.97C261.563 104.984 261.522 105 261.479 105.017C260.848 105.254 260.22 105.497 259.594 105.749C259.537 105.772 259.48 105.794 259.422 105.817C259.328 105.856 259.232 105.894 259.138 105.933C259.019 105.982 258.901 106.031 258.78 106.081C258.661 106.13 258.545 106.179 258.426 106.228C258.295 106.283 258.166 106.338 258.035 106.394C257.755 106.512 257.475 106.637 257.194 106.76C257.065 106.817 256.936 106.872 256.808 106.93C256.54 107.05 256.274 107.173 256.008 107.298C255.971 107.316 255.932 107.333 255.895 107.351C255.785 107.404 255.672 107.458 255.562 107.511C255.49 107.543 255.416 107.578 255.345 107.613C255.136 107.713 254.931 107.816 254.725 107.918C254.581 107.987 254.442 108.063 254.301 108.135C254.08 108.247 253.861 108.358 253.642 108.472C253.507 108.544 253.374 108.616 253.239 108.689C253.104 108.761 252.971 108.835 252.838 108.91C252.834 108.912 252.83 108.914 252.828 108.916C252.683 108.996 252.542 109.076 252.398 109.158C252.378 109.17 252.355 109.18 252.335 109.193C252.212 109.262 252.087 109.334 251.965 109.405C251.909 109.436 251.856 109.471 251.801 109.502C251.69 109.567 251.58 109.632 251.469 109.698C251.461 109.702 251.453 109.706 251.445 109.712C251.326 109.782 251.208 109.856 251.091 109.927C250.958 110.007 250.827 110.089 250.696 110.173C250.682 110.181 250.667 110.191 250.653 110.199C250.608 110.228 250.563 110.257 250.518 110.285C250.461 110.322 250.399 110.361 250.342 110.398C250.217 110.478 250.095 110.557 249.972 110.639C249.849 110.721 249.726 110.803 249.603 110.885C247.662 112.2 245.591 113.266 243.717 114.936C246.295 114.758 248.11 113.16 250.125 112.239C250.205 112.202 250.287 112.165 250.369 112.131L266.688 105.201C267.488 104.863 268.018 104.7 268.748 104.305C270.412 103.4 272.333 102.711 274.152 102.242C275.357 101.931 276.04 101.375 276.924 100.661C281.319 97.1046 286.119 93.9312 291.265 91.2325C295.287 89.1231 299.375 87.6356 303.868 87.9875C316.885 89.0024 302.074 112.626 299.056 117.45H299.054Z" fill="#010202"/>
<path d="M66.4653 70.449C70.5042 73.5692 76.1778 73.7635 80.6198 70.5779C85.8699 66.8152 86.7026 59.7298 83.296 54.5001C80.7384 50.5718 76.2495 48.4378 71.5006 49.2193C67.4126 49.8904 63.8137 52.9083 62.449 57.2316C60.8797 62.2075 62.5247 67.4045 66.4653 70.449ZM69.0065 53.8884C72.3497 51.5416 77.0208 52.0797 79.8362 55.3677C83.1835 59.2797 82.5492 64.761 78.809 67.697C75.0341 70.6597 69.5589 69.8965 66.7907 65.9907C64.006 62.0582 64.8572 56.7999 69.0065 53.8884Z" fill="#606060"/>
<path d="M89.8883 147.322C100.581 145.19 110.619 141.195 118.85 134.207C125.796 128.309 129.307 120.403 128.804 111.302C128.341 102.942 126.052 95.2141 123.177 87.4249C122.441 85.428 121.471 83.8587 118.917 84.319C109.898 85.9497 102.443 86.8704 93.964 83.1835L85.7042 79.5927C79.6827 76.9758 73.1763 77.5078 67.5088 80.7814C64.7651 82.3671 62.4469 84.2883 59.8219 86.0786C50.6086 92.3681 45.6245 92.2187 34.7887 92.6586C32.7611 92.7425 31.2879 93.784 31.0158 95.7952C29.2214 109.047 26.1381 126.604 36.9636 136.884C40.8408 140.564 45.3257 143.163 50.6454 145.027C63.5436 149.544 76.7303 149.945 89.8883 147.322Z" fill="#606060"/>
<path d="M74.8807 65.3338C77.1886 64.7221 78.4551 62.1502 77.8495 59.7339C77.2848 57.4853 74.9973 56.0408 72.2945 56.7467C69.5221 57.4689 68.4889 60.2535 69.3339 62.5431C70.183 64.8387 72.4418 65.9824 74.8807 65.3338Z" fill="#606060"/>
<path d="M118.85 134.207C110.619 141.195 100.581 145.19 89.8883 147.322C76.7303 149.945 63.5436 149.544 50.6454 145.027C45.3257 143.163 40.8408 140.564 36.9636 136.884C26.138 126.604 29.2214 109.047 31.0158 95.7952C31.2879 93.784 32.7611 92.7425 34.7887 92.6586C45.6244 92.2187 50.6086 92.3681 59.8219 86.0786C62.4469 84.2883 64.7651 82.3671 67.5088 80.7814C73.1763 77.5078 79.6827 76.9758 85.7042 79.5927L93.964 83.1835C102.443 86.8704 109.898 85.9497 118.917 84.319C121.471 83.8587 122.441 85.428 123.177 87.4249C126.052 95.2141 128.341 102.942 128.804 111.302C129.307 120.403 125.796 128.309 118.85 134.207Z" fill="#FEFEFE"/>
<path d="M83.296 54.5001C80.7384 50.5718 76.2494 48.4378 71.5006 49.2193C67.4126 49.8904 63.8137 52.9083 62.449 57.2316C60.8797 62.2075 62.5247 67.4045 66.4653 70.449C70.5042 73.5692 76.1778 73.7635 80.6198 70.5779C85.8699 66.8152 86.7026 59.7298 83.296 54.5001ZM78.809 67.697C75.0341 70.6597 69.5589 69.8965 66.7906 65.9907C64.006 62.0582 64.8571 56.7999 69.0065 53.8884C72.3497 51.5416 77.0208 52.0797 79.8361 55.3677C83.1834 59.2797 82.5492 64.761 78.809 67.697Z" fill="#F9FCFB"/>
<path d="M74.8807 65.3338C72.4418 65.9824 70.183 64.8387 69.3339 62.5431C68.4888 60.2535 69.5221 57.4689 72.2945 56.7467C74.9973 56.0408 77.2847 57.4853 77.8494 59.7339C78.4551 62.1502 77.1886 64.7221 74.8807 65.3338Z" fill="#FAFBFA"/>
<path d="M118.85 134.207C110.619 141.195 100.581 145.19 89.8883 147.322C76.7303 149.945 63.5436 149.544 50.6454 145.027C45.3257 143.163 40.8408 140.564 36.9636 136.884C26.138 126.604 29.2214 109.047 31.0158 95.7952C31.2879 93.784 32.7611 92.7425 34.7887 92.6586C45.6244 92.2187 50.6086 92.3681 59.8219 86.0786C62.4469 84.2883 64.7651 82.3671 67.5088 80.7814C73.1763 77.5078 79.6827 76.9758 85.7042 79.5927L93.964 83.1835C102.443 86.8704 109.898 85.9497 118.917 84.319C121.471 83.8587 122.441 85.428 123.177 87.4249C126.052 95.2141 128.341 102.942 128.804 111.302C129.307 120.403 125.796 128.309 118.85 134.207Z" fill="#FEFEFE"/>
<path d="M83.296 54.5002C80.7384 50.5718 76.2494 48.4378 71.5006 49.2194C67.4126 49.8905 63.8137 52.9084 62.449 57.2317C60.8797 62.2076 62.5247 67.4045 66.4653 70.449C70.5042 73.5692 76.1778 73.7636 80.6198 70.5779C85.8699 66.8153 86.7026 59.7299 83.296 54.5002ZM78.809 67.6971C75.0341 70.6598 69.5589 69.8966 66.7906 65.9907C64.006 62.0582 64.8571 56.7999 69.0065 53.8884C72.3497 51.5416 77.0208 52.0797 79.8361 55.3677C83.1834 59.2797 82.5492 64.761 78.809 67.6971Z" fill="#F9FCFB"/>
<path d="M74.8807 65.3339C72.4418 65.9825 70.183 64.8388 69.3339 62.5431C68.4888 60.2536 69.5221 57.469 72.2945 56.7467C74.9973 56.0408 77.2847 57.4853 77.8494 59.7339C78.4551 62.1503 77.1886 64.7221 74.8807 65.3339Z" fill="#FAFBFA"/>
<path d="M278.209 104.362C277.432 105.121 276.149 105.559 275.821 106.78C275.598 106.907 274.948 107.169 274.974 107.697C275.484 108.151 276.171 107.472 276.535 107.173C277.591 106.306 278.921 105.778 279.801 104.722C285.988 100.141 292.771 96.81 300.265 93.6346C292.853 93.1722 283.22 99.4678 278.209 104.362Z" fill="#010202"/>
<path d="M54.717 120.485C50.6556 121.933 46.5779 120.253 44.583 117.141C42.3467 113.653 43.0751 109.381 45.8168 106.686C48.7876 103.766 53.4219 103.392 56.7221 106.036C59.1139 107.953 60.2638 110.811 59.9098 113.817C59.5907 116.544 57.7881 119.388 54.717 120.483V120.485Z" fill="#010202"/>
<path d="M104.697 98.8765C109.485 98.1952 113.256 101.876 113.87 106.034C114.557 110.688 111.149 114.799 106.827 115.417C102.189 116.077 98.1277 112.845 97.4054 108.519C96.6361 103.922 99.6622 99.5926 104.697 98.8765Z" fill="#020302"/>
<path d="M77.6285 138.441C72.7487 137.254 69.7083 132.97 69.2622 127.91L91.0504 125.649C91.7972 129.508 90.5635 133.223 87.9916 135.783C85.4013 138.361 81.6305 139.21 77.6264 138.441H77.6285Z" fill="#020302"/>
<path d="M70.1789 198.428C70.1871 198.475 70.1912 198.52 70.1912 198.567C63.4536 197.583 57.2684 193.332 53.9395 187.392C53.3216 186.289 52.7978 185.133 52.3436 183.953C51.9365 182.895 51.3554 181.647 51.2408 180.519C51.7216 180.489 52.6198 181.685 52.9697 182.046C53.5058 182.594 54.0255 183.157 54.5329 183.732C55.0403 184.306 55.4945 184.845 55.961 185.413C56.184 185.685 56.9247 186.962 57.2377 187.017C57.8781 187.13 58.0889 187.744 58.4265 188.182C58.5226 188.251 58.9196 188.198 59.1692 188.3C59.6009 188.476 60.1533 189.393 60.4868 189.743C60.9308 190.207 61.385 190.663 61.8474 191.11C62.7948 192.024 63.7768 192.902 64.7774 193.757C65.7779 194.612 66.8111 195.455 67.8423 196.288C68.4377 196.769 70.0254 197.575 70.1789 198.43V198.428Z" fill="#DC2626"/>
</g>
<defs>
<clipPath id="clip0_3606_765">
<rect width="314.583" height="233" fill="white"/>
</clipPath>
</defs>
</svg>
