<svg xmlns="http://www.w3.org/2000/svg" viewBox="0 0 128 128" width="128" height="128">
  <defs>
    <!-- Background gradient -->
    <radialGradient id="bg" cx="50%" cy="50%" r="55%">
      <stop offset="0%" stop-color="#1a2332"/>
      <stop offset="100%" stop-color="#0d1117"/>
    </radialGradient>
    <!-- Gold-Teal gradient for viewfinder frame -->
    <linearGradient id="frame" x1="0%" y1="0%" x2="100%" y2="100%">
      <stop offset="0%" stop-color="#C9A84C"/>
      <stop offset="50%" stop-color="#7ECEC1"/>
      <stop offset="100%" stop-color="#4ECDC4"/>
    </linearGradient>
    <!-- Inner lens glow -->
    <radialGradient id="lens" cx="50%" cy="50%" r="50%">
      <stop offset="0%" stop-color="#4ECDC4" stop-opacity="0.6"/>
      <stop offset="60%" stop-color="#1a3a4a" stop-opacity="0.3"/>
      <stop offset="100%" stop-color="#0d1117" stop-opacity="0"/>
    </radialGradient>
    <!-- Sparkle glow -->
    <radialGradient id="sparkle" cx="50%" cy="50%" r="50%">
      <stop offset="0%" stop-color="#C9A84C" stop-opacity="1"/>
      <stop offset="100%" stop-color="#C9A84C" stop-opacity="0"/>
    </radialGradient>
  </defs>

  <!-- Background circle -->
  <rect width="128" height="128" rx="24" fill="url(#bg)"/>

  <!-- Viewfinder frame (rounded rect outline) -->
  <rect x="24" y="30" width="80" height="60" rx="6"
        fill="none" stroke="url(#frame)" stroke-width="2.5" opacity="0.9"/>

  <!-- Corner brackets (director's viewfinder marks) -->
  <!-- Top-left -->
  <path d="M28 42 L28 35 L35 35" fill="none" stroke="#C9A84C" stroke-width="2" stroke-linecap="round"/>
  <!-- Top-right -->
  <path d="M100 42 L100 35 L93 35" fill="none" stroke="#C9A84C" stroke-width="2" stroke-linecap="round"/>
  <!-- Bottom-left -->
  <path d="M28 78 L28 85 L35 85" fill="none" stroke="#4ECDC4" stroke-width="2" stroke-linecap="round"/>
  <!-- Bottom-right -->
  <path d="M100 78 L100 85 L93 85" fill="none" stroke="#4ECDC4" stroke-width="2" stroke-linecap="round"/>

  <!-- Center crosshair (focus point) -->
  <line x1="60" y1="60" x2="68" y2="60" stroke="#7ECEC1" stroke-width="1" opacity="0.6"/>
  <line x1="64" y1="56" x2="64" y2="64" stroke="#7ECEC1" stroke-width="1" opacity="0.6"/>

  <!-- Lens glow in center -->
  <circle cx="64" cy="60" r="14" fill="url(#lens)"/>

  <!-- Aperture blades hint (3 arcs) -->
  <path d="M56 53 A12 12 0 0 1 64 48" fill="none" stroke="#4ECDC4" stroke-width="1" opacity="0.4"/>
  <path d="M72 53 A12 12 0 0 1 76 60" fill="none" stroke="#4ECDC4" stroke-width="1" opacity="0.3"/>
  <path d="M68 70 A12 12 0 0 1 56 67" fill="none" stroke="#7ECEC1" stroke-width="1" opacity="0.35"/>

  <!-- AI Sparkles (gold particles) -->
  <circle cx="96" cy="24" r="3" fill="url(#sparkle)"/>
  <circle cx="106" cy="30" r="1.8" fill="#C9A84C" opacity="0.7"/>
  <circle cx="100" cy="18" r="1.2" fill="#C9A84C" opacity="0.5"/>

  <!-- Small 4-point star sparkle -->
  <path d="M96 21 L96.6 23.4 L99 24 L96.6 24.6 L96 27 L95.4 24.6 L93 24 L95.4 23.4 Z"
        fill="#C9A84C" opacity="0.8"/>

  <!-- Timeline bar at bottom -->
  <line x1="30" y1="100" x2="98" y2="100" stroke="#4ECDC4" stroke-width="1.5" opacity="0.4" stroke-linecap="round"/>
  <!-- Timeline ticks -->
  <circle cx="30" cy="100" r="2" fill="#C9A84C" opacity="0.7"/>
  <circle cx="52" cy="100" r="2" fill="#7ECEC1" opacity="0.6"/>
  <circle cx="75" cy="100" r="2" fill="#7ECEC1" opacity="0.6"/>
  <circle cx="98" cy="100" r="2" fill="#4ECDC4" opacity="0.7"/>

  <!-- Timeline labels (subtle) -->
  <text x="30" y="112" font-family="monospace" font-size="6" fill="#4ECDC4" opacity="0.5" text-anchor="middle">0s</text>
  <text x="52" y="112" font-family="monospace" font-size="6" fill="#4ECDC4" opacity="0.4" text-anchor="middle">5s</text>
  <text x="75" y="112" font-family="monospace" font-size="6" fill="#4ECDC4" opacity="0.4" text-anchor="middle">10s</text>
  <text x="98" y="112" font-family="monospace" font-size="6" fill="#4ECDC4" opacity="0.5" text-anchor="middle">15s</text>
</svg>
