<?xml version="1.0" standalone="no"?>
<!DOCTYPE svg PUBLIC "-//W3C//DTD SVG 20010904//EN"
 "http://www.w3.org/TR/2001/REC-SVG-20010904/DTD/svg10.dtd">
<svg version="1.0" xmlns="http://www.w3.org/2000/svg"
 width="512.000000pt" height="512.000000pt" viewBox="0 0 512.000000 512.000000"
 preserveAspectRatio="xMidYMid meet">
<metadata>
Created by potrace 1.16, written by Peter Selinger 2001-2019
</metadata>
<g transform="translate(0.000000,512.000000) scale(0.100000,-0.100000)"
fill="#000000" stroke="none">
<path d="M1966 4593 c-52 -19 -61 -29 -47 -51 6 -11 16 -11 47 -3 179 50 341
-76 368 -284 l6 -50 -53 -29 c-123 -70 -241 -239 -254 -369 l-6 -57 150 0
c133 0 152 -2 166 -18 21 -23 22 -46 2 -66 -12 -12 -43 -15 -153 -15 -75 1
-143 0 -149 0 -8 -1 -13 -17 -13 -46 l0 -44 156 -3 c134 -3 158 -5 167 -20 8
-12 8 -24 -1 -42 l-12 -26 -155 0 -155 0 0 -45 0 -45 153 0 c161 0 177 -4 177
-45 0 -41 -16 -45 -177 -45 l-153 0 0 -45 0 -45 153 0 c161 0 177 -4 177 -45
0 -41 -16 -45 -177 -45 l-153 0 0 -40 0 -40 83 -1 c268 -4 973 4 980 11 5 4 7
20 5 36 l-3 29 -158 5 c-125 4 -160 8 -167 20 -13 20 -12 33 3 53 10 14 36 17
167 19 l155 3 0 40 0 40 -155 3 c-131 2 -157 5 -167 19 -17 22 -16 38 3 57 13
13 42 16 165 16 l149 0 6 24 c3 14 3 34 -1 45 -6 20 -13 21 -155 21 -147 0
-150 0 -165 24 -13 19 -14 29 -5 45 10 20 19 21 165 21 l155 0 0 45 0 45 -145
0 c-132 0 -147 2 -165 20 -11 11 -20 25 -20 30 0 6 9 19 20 30 18 18 33 20
170 20 171 0 161 -7 135 95 -34 128 -117 243 -232 317 l-65 43 5 50 c13 122
81 226 180 274 42 20 58 23 120 18 40 -3 81 -7 92 -9 14 -2 21 3 23 19 3 19
-5 24 -49 37 -66 20 -102 20 -165 1 -68 -20 -140 -69 -180 -124 -39 -54 -74
-149 -74 -204 l0 -39 -52 9 c-67 10 -201 10 -253 0 l-41 -8 -11 63 c-15 88
-49 154 -110 216 -88 89 -205 121 -307 85z"/>
<path d="M1787 2982 c-13 -14 -17 -39 -17 -110 0 -87 1 -92 25 -108 l25 -16 0
-347 c0 -365 5 -410 50 -515 58 -137 181 -267 319 -340 72 -38 197 -76 248
-76 l33 0 0 -273 0 -274 -132 -7 c-198 -9 -394 -35 -468 -59 -56 -19 -65 -25
-65 -46 0 -30 41 -45 170 -66 251 -40 825 -45 1095 -11 142 18 260 50 260 70
0 35 -79 66 -220 85 -99 14 -317 31 -396 31 l-64 0 0 274 0 273 55 7 c290 34
541 271 594 560 7 35 11 196 11 390 0 320 1 332 20 344 18 11 20 23 20 112 0
114 -4 120 -85 120 -81 0 -85 -6 -85 -120 0 -89 2 -101 20 -112 19 -12 20 -23
20 -333 -1 -358 -9 -433 -58 -536 -67 -140 -194 -253 -342 -305 -100 -34 -323
-45 -440 -20 -221 46 -400 216 -455 431 -12 47 -15 128 -15 407 0 320 1 348
18 357 14 8 17 24 17 104 0 117 -6 127 -85 127 -42 0 -61 -5 -73 -18z"/>
<path d="M2030 2600 c0 -318 1 -345 21 -403 40 -121 116 -218 223 -286 166
-104 344 -115 523 -31 81 37 190 140 231 218 59 112 62 133 62 504 l0 338
-530 0 -530 0 0 -340z"/>
<path d="M1802 712 c3 -36 5 -38 70 -59 132 -44 282 -57 673 -58 362 0 492 8
655 41 108 23 130 36 130 80 0 31 -3 35 -17 29 -142 -59 -595 -94 -958 -75
-240 12 -409 32 -496 60 l-60 18 3 -36z"/>
</g>
</svg>
