<?xml version="1.0" encoding="UTF-8"?>
<!--Generator: Apple Native CoreSVG 341-->
<!DOCTYPE svg
PUBLIC "-//W3C//DTD SVG 1.1//EN"
       "http://www.w3.org/Graphics/SVG/1.1/DTD/svg11.dtd">
<svg version="1.1" xmlns="http://www.w3.org/2000/svg" xmlns:xlink="http://www.w3.org/1999/xlink" viewBox="0 0 3300 2200">
 <!--glyph: "", point size: 100.0, font version: "20.0d10e1", template writer version: "138.0.0"-->
 <style>.monochrome-0 {-sfsymbols-motion-group:0;-sfsymbols-layer-tags:431127cc4f84f2f3}

.multicolor-0:tintColor {-sfsymbols-motion-group:0;-sfsymbols-layer-tags:431127cc4f84f2f3}

.hierarchical-0:primary {-sfsymbols-motion-group:0;-sfsymbols-layer-tags:431127cc4f84f2f3}

.SFSymbolsPreviewWireframe {fill:none;opacity:1.0;stroke:black;stroke-width:0.5}
</style>
 <g id="Notes">
  <rect height="2200" id="artboard" style="fill:white;opacity:1" width="3300" x="0" y="0"/>
  <line style="fill:none;stroke:black;opacity:1;stroke-width:0.5;" x1="263" x2="3036" y1="292" y2="292"/>
  <text style="stroke:none;fill:black;font-family:sans-serif;font-size:13;font-weight:bold;" transform="matrix(1 0 0 1 263 322)">Weight/Scale Variations</text>
  <text style="stroke:none;fill:black;font-family:sans-serif;font-size:13;text-anchor:middle;" transform="matrix(1 0 0 1 559.711 322)">Ultralight</text>
  <text style="stroke:none;fill:black;font-family:sans-serif;font-size:13;text-anchor:middle;" transform="matrix(1 0 0 1 856.422 322)">Thin</text>
  <text style="stroke:none;fill:black;font-family:sans-serif;font-size:13;text-anchor:middle;" transform="matrix(1 0 0 1 1153.13 322)">Light</text>
  <text style="stroke:none;fill:black;font-family:sans-serif;font-size:13;text-anchor:middle;" transform="matrix(1 0 0 1 1449.84 322)">Regular</text>
  <text style="stroke:none;fill:black;font-family:sans-serif;font-size:13;text-anchor:middle;" transform="matrix(1 0 0 1 1746.56 322)">Medium</text>
  <text style="stroke:none;fill:black;font-family:sans-serif;font-size:13;text-anchor:middle;" transform="matrix(1 0 0 1 2043.27 322)">Semibold</text>
  <text style="stroke:none;fill:black;font-family:sans-serif;font-size:13;text-anchor:middle;" transform="matrix(1 0 0 1 2339.98 322)">Bold</text>
  <text style="stroke:none;fill:black;font-family:sans-serif;font-size:13;text-anchor:middle;" transform="matrix(1 0 0 1 2636.69 322)">Heavy</text>
  <text style="stroke:none;fill:black;font-family:sans-serif;font-size:13;text-anchor:middle;" transform="matrix(1 0 0 1 2933.4 322)">Black</text>
  <line style="fill:none;stroke:black;opacity:1;stroke-width:0.5;" x1="263" x2="3036" y1="1903" y2="1903"/>
  <g transform="matrix(0.2 0 0 0.2 263 1933)">
   <path d="m46.2402 4.15039c21.7773 0 39.4531-17.627 39.4531-39.4043s-17.6758-39.4043-39.4531-39.4043c-21.7285 0-39.4043 17.627-39.4043 39.4043s17.6758 39.4043 39.4043 39.4043Zm0-7.42188c-17.6758 0-31.9336-14.3066-31.9336-31.9824s14.2578-31.9824 31.9336-31.9824 31.9824 14.3066 31.9824 31.9824-14.3066 31.9824-31.9824 31.9824Zm-17.9688-31.9824c0 2.14844 1.51367 3.61328 3.75977 3.61328h10.498v10.5957c0 2.19727 1.46484 3.71094 3.61328 3.71094 2.24609 0 3.71094-1.51367 3.71094-3.71094v-10.5957h10.5957c2.19727 0 3.71094-1.46484 3.71094-3.61328 0-2.19727-1.51367-3.71094-3.71094-3.71094h-10.5957v-10.5469c0-2.24609-1.46484-3.75977-3.71094-3.75977-2.14844 0-3.61328 1.51367-3.61328 3.75977v10.5469h-10.498c-2.24609 0-3.75977 1.51367-3.75977 3.71094Z"/>
  </g>
  <g transform="matrix(0.2 0 0 0.2 281.506 1933)">
   <path d="m58.5449 14.5508c27.4902 0 49.8047-22.3145 49.8047-49.8047s-22.3145-49.8047-49.8047-49.8047-49.8047 22.3145-49.8047 49.8047 22.3145 49.8047 49.8047 49.8047Zm0-8.30078c-22.9492 0-41.5039-18.5547-41.5039-41.5039s18.5547-41.5039 41.5039-41.5039 41.5039 18.5547 41.5039 41.5039-18.5547 41.5039-41.5039 41.5039Zm-22.6562-41.5039c0 2.39258 1.66016 4.00391 4.15039 4.00391h14.3555v14.4043c0 2.44141 1.66016 4.15039 4.05273 4.15039 2.44141 0 4.15039-1.66016 4.15039-4.15039v-14.4043h14.4043c2.44141 0 4.15039-1.61133 4.15039-4.00391 0-2.44141-1.70898-4.15039-4.15039-4.15039h-14.4043v-14.3555c0-2.49023-1.70898-4.19922-4.15039-4.19922-2.39258 0-4.05273 1.70898-4.05273 4.19922v14.3555h-14.3555c-2.49023 0-4.15039 1.70898-4.15039 4.15039Z"/>
  </g>
  <g transform="matrix(0.2 0 0 0.2 304.924 1933)">
   <path d="m74.8535 28.3203c35.1074 0 63.623-28.4668 63.623-63.5742s-28.5156-63.623-63.623-63.623-63.5742 28.5156-63.5742 63.623 28.4668 63.5742 63.5742 63.5742Zm0-9.08203c-30.127 0-54.4922-24.3652-54.4922-54.4922s24.3652-54.4922 54.4922-54.4922 54.4922 24.3652 54.4922 54.4922-24.3652 54.4922-54.4922 54.4922Zm-28.8574-54.4922c0 2.58789 1.85547 4.39453 4.58984 4.39453h19.7266v19.7754c0 2.68555 1.85547 4.58984 4.44336 4.58984 2.68555 0 4.54102-1.85547 4.54102-4.58984v-19.7754h19.7754c2.68555 0 4.58984-1.80664 4.58984-4.39453 0-2.73438-1.85547-4.58984-4.58984-4.58984h-19.7754v-19.7266c0-2.73438-1.85547-4.63867-4.54102-4.63867-2.58789 0-4.44336 1.9043-4.44336 4.63867v19.7266h-19.7266c-2.73438 0-4.58984 1.85547-4.58984 4.58984Z"/>
  </g>
  <text style="stroke:none;fill:black;font-family:sans-serif;font-size:13;font-weight:bold;" transform="matrix(1 0 0 1 263 1953)">Design Variations</text>
  <text style="stroke:none;fill:black;font-family:sans-serif;font-size:13;" transform="matrix(1 0 0 1 263 1971)">Symbols are supported in up to nine weights and three scales.</text>
  <text style="stroke:none;fill:black;font-family:sans-serif;font-size:13;" transform="matrix(1 0 0 1 263 1989)">For optimal layout with text and other symbols, vertically align</text>
  <text style="stroke:none;fill:black;font-family:sans-serif;font-size:13;" transform="matrix(1 0 0 1 263 2007)">symbols with the adjacent text.</text>
  <line style="fill:none;stroke:#00AEEF;stroke-width:0.5;opacity:1.0;" x1="776" x2="776" y1="1919" y2="1933"/>
  <g transform="matrix(0.2 0 0 0.2 776 1933)">
   <path d="m16.5527 0.78125c2.58789 0 3.85742-0.976562 4.78516-3.71094l6.29883-17.2363h28.8086l6.29883 17.2363c0.927734 2.73438 2.19727 3.71094 4.73633 3.71094 2.58789 0 4.24805-1.5625 4.24805-4.00391 0-0.830078-0.146484-1.61133-0.537109-2.63672l-22.9004-60.9863c-1.12305-2.97852-3.125-4.49219-6.25-4.49219-3.02734 0-5.07812 1.46484-6.15234 4.44336l-22.9004 61.084c-0.390625 1.02539-0.537109 1.80664-0.537109 2.63672 0 2.44141 1.5625 3.95508 4.10156 3.95508Zm13.4766-28.3691 11.8652-32.8613h0.244141l11.8652 32.8613Z"/>
  </g>
  <line style="fill:none;stroke:#00AEEF;stroke-width:0.5;opacity:1.0;" x1="792.836" x2="792.836" y1="1919" y2="1933"/>
  <text style="stroke:none;fill:black;font-family:sans-serif;font-size:13;font-weight:bold;" transform="matrix(1 0 0 1 776 1953)">Margins</text>
  <text style="stroke:none;fill:black;font-family:sans-serif;font-size:13;" transform="matrix(1 0 0 1 776 1971)">Leading and trailing margins on the left and right side of each symbol</text>
  <text style="stroke:none;fill:black;font-family:sans-serif;font-size:13;" transform="matrix(1 0 0 1 776 1989)">can be adjusted by modifying the x-location of the margin guidelines.</text>
  <text style="stroke:none;fill:black;font-family:sans-serif;font-size:13;" transform="matrix(1 0 0 1 776 2007)">Modifications are automatically applied proportionally to all</text>
  <text style="stroke:none;fill:black;font-family:sans-serif;font-size:13;" transform="matrix(1 0 0 1 776 2025)">scales and weights.</text>
  <g transform="matrix(0.2 0 0 0.2 1289 1933)">
   <path d="m14.209 9.32617 8.49609 8.54492c4.29688 4.3457 9.22852 4.05273 13.8672-1.07422l53.4668-58.9355-4.83398-4.88281-53.0762 58.3984c-1.75781 2.00195-3.41797 2.49023-5.76172 0.146484l-5.85938-5.81055c-2.34375-2.29492-1.80664-4.00391 0.195312-5.81055l57.373-54.0039-4.88281-4.83398-57.959 54.4434c-4.93164 4.58984-5.32227 9.47266-1.02539 13.8184Zm32.0801-90.9668c-2.09961 2.05078-2.24609 4.93164-1.07422 6.88477 1.17188 1.80664 3.4668 2.97852 6.68945 2.14844 7.32422-1.70898 14.9414-2.00195 22.0703 2.68555l-2.92969 7.27539c-1.70898 4.15039-0.830078 7.08008 1.85547 9.81445l11.4746 11.5723c2.44141 2.44141 4.49219 2.53906 7.32422 2.05078l5.32227-0.976562 3.32031 3.36914-0.195312 2.7832c-0.195312 2.49023 0.439453 4.39453 2.88086 6.78711l3.80859 3.71094c2.39258 2.39258 5.46875 2.53906 7.8125 0.195312l14.5508-14.5996c2.34375-2.34375 2.24609-5.32227-0.146484-7.71484l-3.85742-3.80859c-2.39258-2.39258-4.24805-3.17383-6.64062-2.97852l-2.88086 0.244141-3.22266-3.17383 1.2207-5.61523c0.634766-2.83203-0.146484-5.0293-3.07617-7.95898l-10.9863-10.9375c-16.6992-16.6016-38.8672-16.2109-53.3203-1.75781Zm7.4707 1.85547c12.1582-8.88672 28.6133-7.37305 39.7461 3.75977l12.1582 12.0605c1.17188 1.17188 1.36719 2.09961 1.02539 3.80859l-1.61133 7.42188 7.51953 7.42188 4.93164-0.292969c1.26953-0.0488281 1.66016 0.0488281 2.63672 1.02539l2.88086 2.88086-12.207 12.207-2.88086-2.88086c-0.976562-0.976562-1.12305-1.36719-1.07422-2.68555l0.341797-4.88281-7.4707-7.42188-7.61719 1.26953c-1.61133 0.341797-2.34375 0.195312-3.56445-0.976562l-10.0098-10.0098c-1.26953-1.17188-1.41602-2.00195-0.634766-3.85742l4.39453-10.4492c-7.8125-7.27539-17.9688-10.4004-28.125-7.42188-0.78125 0.195312-1.07422-0.439453-0.439453-0.976562Z"/>
  </g>
  <text style="stroke:none;fill:black;font-family:sans-serif;font-size:13;font-weight:bold;" transform="matrix(1 0 0 1 1289 1953)">Exporting</text>
  <text style="stroke:none;fill:black;font-family:sans-serif;font-size:13;" transform="matrix(1 0 0 1 1289 1971)">Symbols should be outlined when exporting to ensure the</text>
  <text style="stroke:none;fill:black;font-family:sans-serif;font-size:13;" transform="matrix(1 0 0 1 1289 1989)">design is preserved when submitting to Xcode.</text>
  <text id="template-version" style="stroke:none;fill:black;font-family:sans-serif;font-size:13;text-anchor:end;" transform="matrix(1 0 0 1 3036 1933)">Template v.6.0</text>
  <text style="stroke:none;fill:black;font-family:sans-serif;font-size:13;text-anchor:end;" transform="matrix(1 0 0 1 3036 1951)">Requires Xcode 16 or greater</text>
  <text id="descriptive-name" style="stroke:none;fill:black;font-family:sans-serif;font-size:13;text-anchor:end;" transform="matrix(1 0 0 1 3036 1969)">Generated from openai.symbol</text>
  <text style="stroke:none;fill:black;font-family:sans-serif;font-size:13;text-anchor:end;" transform="matrix(1 0 0 1 3036 1987)">Typeset at 100.0 points</text>
  <text style="stroke:none;fill:black;font-family:sans-serif;font-size:13;" transform="matrix(1 0 0 1 263 726)">Small</text>
  <text style="stroke:none;fill:black;font-family:sans-serif;font-size:13;" transform="matrix(1 0 0 1 263 1156)">Medium</text>
  <text style="stroke:none;fill:black;font-family:sans-serif;font-size:13;" transform="matrix(1 0 0 1 263 1586)">Large</text>
 </g>
 <g id="Guides">
  <g id="H-reference" style="fill:#27AAE1;stroke:none;" transform="matrix(1 0 0 1 339 696)">
   <path d="M0.993654 0L3.63775 0L29.3281-67.1323L30.0303-67.1323L30.0303-70.459L28.1226-70.459ZM11.6885-24.4799L46.9815-24.4799L46.2315-26.7285L12.4385-26.7285ZM55.1196 0L57.7637 0L30.6382-70.459L29.4326-70.459L29.4326-67.1323Z"/>
  </g>
  <line id="Baseline-S" style="fill:none;stroke:#27AAE1;opacity:1;stroke-width:0.5;" x1="263" x2="3036" y1="696" y2="696"/>
  <line id="Capline-S" style="fill:none;stroke:#27AAE1;opacity:1;stroke-width:0.5;" x1="263" x2="3036" y1="625.541" y2="625.541"/>
  <g id="H-reference" style="fill:#27AAE1;stroke:none;" transform="matrix(1 0 0 1 339 1126)">
   <path d="M0.993654 0L3.63775 0L29.3281-67.1323L30.0303-67.1323L30.0303-70.459L28.1226-70.459ZM11.6885-24.4799L46.9815-24.4799L46.2315-26.7285L12.4385-26.7285ZM55.1196 0L57.7637 0L30.6382-70.459L29.4326-70.459L29.4326-67.1323Z"/>
  </g>
  <line id="Baseline-M" style="fill:none;stroke:#27AAE1;opacity:1;stroke-width:0.5;" x1="263" x2="3036" y1="1126" y2="1126"/>
  <line id="Capline-M" style="fill:none;stroke:#27AAE1;opacity:1;stroke-width:0.5;" x1="263" x2="3036" y1="1055.54" y2="1055.54"/>
  <g id="H-reference" style="fill:#27AAE1;stroke:none;" transform="matrix(1 0 0 1 339 1556)">
   <path d="M0.993654 0L3.63775 0L29.3281-67.1323L30.0303-67.1323L30.0303-70.459L28.1226-70.459ZM11.6885-24.4799L46.9815-24.4799L46.2315-26.7285L12.4385-26.7285ZM55.1196 0L57.7637 0L30.6382-70.459L29.4326-70.459L29.4326-67.1323Z"/>
  </g>
  <line id="Baseline-L" style="fill:none;stroke:#27AAE1;opacity:1;stroke-width:0.5;" x1="263" x2="3036" y1="1556" y2="1556"/>
  <line id="Capline-L" style="fill:none;stroke:#27AAE1;opacity:1;stroke-width:0.5;" x1="263" x2="3036" y1="1485.54" y2="1485.54"/>
  <line id="right-margin-Black-S" style="fill:none;stroke:#00AEEF;stroke-width:0.5;opacity:1.0;" x1="2982.23" x2="2982.23" y1="600.785" y2="720.121"/>
  <line id="left-margin-Black-S" style="fill:none;stroke:#00AEEF;stroke-width:0.5;opacity:1.0;" x1="2884.57" x2="2884.57" y1="600.785" y2="720.121"/>
  <line id="right-margin-Regular-S" style="fill:none;stroke:#00AEEF;stroke-width:0.5;opacity:1.0;" x1="1496.11" x2="1496.11" y1="600.785" y2="720.121"/>
  <line id="left-margin-Regular-S" style="fill:none;stroke:#00AEEF;stroke-width:0.5;opacity:1.0;" x1="1403.58" x2="1403.58" y1="600.785" y2="720.121"/>
  <line id="right-margin-Ultralight-S" style="fill:none;stroke:#00AEEF;stroke-width:0.5;opacity:1.0;" x1="603.773" x2="603.773" y1="600.785" y2="720.121"/>
  <line id="left-margin-Ultralight-S" style="fill:none;stroke:#00AEEF;stroke-width:0.5;opacity:1.0;" x1="515.649" x2="515.649" y1="600.785" y2="720.121"/>
 </g>
 <g id="Symbols">
  <g id="Black-S" transform="matrix(1 0 0 1 2884.57 696)">
   <path class="monochrome-0 multicolor-0:tintColor hierarchical-0:primary SFSymbolsPreviewWireframe" d="M85.8653-43.4928C87.8277-49.3826 87.1519-55.8347 84.0138-61.1921C79.2943-69.4092 69.8068-73.6367 60.5409-71.6473C56.4188-76.291 50.4966-78.9318 44.2878-78.894C34.8165-78.9156 26.4128-72.8177 23.499-63.8059C17.4145-62.5598 12.1626-58.7512 9.08931-53.3534C4.33473-45.1579 5.41863-34.827 11.7707-27.7992C9.8083-21.9094 10.4841-15.4573 13.6222-10.0999C18.3417-1.88283 27.8292 2.34466 37.0951 0.355257C41.2145 4.99901 47.1394 7.63984 53.3482 7.5993C62.8249 7.62362 71.2313 1.52025 74.1451-7.49966C80.2296-8.74574 85.4815-12.5543 88.5548-17.9522C93.304-26.1477 92.2174-36.4704 85.868-43.4982L85.8653-43.4928ZM53.3536 1.94732C49.5613 1.95273 45.8879 0.625557 42.9768-1.80444C43.1093-1.87472 43.339-2.00176 43.4877-2.09366L60.7112-12.0407C61.5924-12.5408 62.133-13.4787 62.1276-14.4923L62.1276-38.7734L69.4068-34.5702C69.4851-34.5324 69.5365-34.4567 69.5473-34.3702L69.5473-14.2626C69.5365-5.32104 62.2952 1.9284 53.3536 1.94732ZM18.5282-12.9273C16.628-16.2087 15.9441-20.0551 16.5955-23.7879C16.7226-23.7123 16.9469-23.5744 17.1064-23.4825L34.3299-13.5355C35.203-13.0246 36.2842-13.0246 37.16-13.5355L58.1866-25.6773L58.1866-17.271C58.192-17.1845 58.1515-17.1007 58.0839-17.0467L40.6739-6.9942C32.919-2.52884 23.0152-5.18319 18.5309-12.9273L18.5282-12.9273ZM13.9953-50.5233C15.8874-53.8102 18.8742-56.3239 22.4313-57.6295C22.4313-57.4808 22.4232-57.2186 22.4232-57.0348L22.4232-37.1381C22.4178-36.1271 22.9584-35.1892 23.8369-34.6891L44.8635-22.55L37.5843-18.3468C37.5114-18.2981 37.4194-18.29 37.3384-18.3252L19.9256-28.3857C12.1869-32.8673 9.5326-42.7684 13.9925-50.5206L13.9953-50.5233ZM73.8018-36.6056L52.7752-48.7474L60.0544-52.9479C60.1274-52.9966 60.2193-53.0047 60.3003-52.9695L77.7131-42.9171C85.4653-38.4382 88.1223-28.5209 83.6435-20.7687C81.7486-17.4872 78.7645-14.9735 75.2101-13.6652L75.2101-34.1566C75.2182-35.1676 74.6803-36.1028 73.8045-36.6056L73.8018-36.6056ZM81.0459-47.5095C80.9188-47.5879 80.6945-47.723 80.535-47.8149L63.3115-57.7619C62.4384-58.2728 61.3572-58.2728 60.4814-57.7619L39.4548-45.6201L39.4548-54.0264C39.4494-54.1129 39.4899-54.1967 39.5575-54.2507L56.9675-64.2951C64.7225-68.7686 74.6371-66.1061 79.1078-58.3485C80.9972-55.0725 81.6811-51.2369 81.0405-47.5095L81.0459-47.5095ZM35.4976-32.5267L28.2157-36.7299C28.1373-36.7677 28.086-36.8434 28.0752-36.9299L28.0752-57.0375C28.0806-65.9899 35.3435-73.2447 44.2959-73.2393C48.0828-73.2393 51.7481-71.9094 54.6592-69.4876C54.5267-69.4173 54.2997-69.2902 54.1483-69.1983L36.9248-59.2513C36.0436-58.7512 35.503-57.816 35.5084-56.8024L35.4976-32.5321L35.4976-32.5267ZM39.4521-41.052L48.818-46.4607L58.1839-41.0547L58.1839-30.24L48.818-24.834L39.4521-30.24L39.4521-41.052Z"/>
  </g>
  <g id="Regular-S" transform="matrix(1 0 0 1 1403.58 696)">
   <path class="monochrome-0 multicolor-0:tintColor hierarchical-0:primary SFSymbolsPreviewWireframe" d="M80.2024-42.3337C81.9892-47.6966 81.3739-53.5715 78.5165-58.4496C74.2192-65.9316 65.5804-69.781 57.1434-67.9695C53.3901-72.1979 47.9976-74.6025 42.3442-74.568C33.7202-74.5877 26.0683-69.0352 23.4151-60.8296C17.875-59.695 13.0929-56.2271 10.2945-51.3121C5.96523-43.8498 6.95217-34.4431 12.736-28.0439C10.9492-22.681 11.5645-16.8061 14.4219-11.928C18.7192-4.44595 27.358-0.596634 35.795-2.40808C39.5458 1.82026 44.9408 4.22486 50.5942 4.18794C59.2231 4.21009 66.8775-1.3473 69.5306-9.56032C75.0708-10.6949 79.8529-14.1628 82.6513-19.0778C86.9756-26.5401 85.9862-35.9395 80.2049-42.3386L80.2024-42.3337ZM50.5991-0.95843C47.146-0.953508 43.8013-2.16196 41.1505-4.37458C41.2711-4.43857 41.4803-4.55424 41.6157-4.63792L57.2985-13.6951C58.1008-14.1505 58.5931-15.0045 58.5881-15.9274L58.5881-38.0364L65.2162-34.2092C65.2875-34.1748 65.3343-34.1059 65.3441-34.0271L65.3441-15.7182C65.3343-7.5766 58.7407-0.975659 50.5991-0.95843ZM18.889-14.5024C17.1588-17.4903 16.5361-20.9926 17.1292-24.3915C17.2449-24.3226 17.4492-24.1971 17.5944-24.1134L33.2772-15.0562C34.0721-14.591 35.0566-14.591 35.854-15.0562L54.9997-26.1119L54.9997-18.4576C55.0046-18.3788 54.9677-18.3025 54.9062-18.2533L39.0536-9.10008C31.9924-5.03418 22.9746-7.45108 18.8915-14.5024L18.889-14.5024ZM14.7616-48.7352C16.4844-51.7281 19.204-54.017 22.443-55.2057C22.443-55.0704 22.4356-54.8316 22.4356-54.6643L22.4356-36.5474C22.4307-35.6269 22.9229-34.7729 23.7228-34.3175L42.8685-23.2643L36.2405-19.4371C36.174-19.3928 36.0903-19.3854 36.0165-19.4174L20.1614-28.578C13.115-32.6587 10.6981-41.6741 14.7591-48.7328L14.7616-48.7352ZM69.2181-36.0625L50.0724-47.1182L56.7004-50.9429C56.7669-50.9872 56.8505-50.9946 56.9244-50.9626L72.7794-41.8094C79.8381-37.7312 82.2575-28.7011 78.1793-21.6424C76.454-18.6545 73.7368-16.3655 70.5004-15.1743L70.5004-33.8327C70.5077-34.7532 70.018-35.6047 69.2205-36.0625L69.2181-36.0625ZM75.8141-45.991C75.6984-46.0624 75.4941-46.1854 75.3489-46.2691L59.6662-55.3263C58.8712-55.7915 57.8867-55.7915 57.0893-55.3263L37.9436-44.2706L37.9436-51.925C37.9387-52.0037 37.9756-52.08 38.0371-52.1292L53.8897-61.2751C60.9509-65.3483 69.9786-62.9241 74.0494-55.8604C75.7698-52.8774 76.3925-49.385 75.8092-45.991L75.8141-45.991ZM34.3404-32.3486L27.7099-36.1757C27.6386-36.2102 27.5918-36.2791 27.582-36.3579L27.582-54.6667C27.5869-62.8182 34.2001-69.4241 42.3516-69.4192C45.7998-69.4192 49.1371-68.2083 51.7879-66.003C51.6673-65.939 51.4605-65.8234 51.3227-65.7397L35.6399-56.6825C34.8376-56.2271 34.3453-55.3756 34.3503-54.4526L34.3404-32.3535L34.3404-32.3486ZM37.9411-40.1112L46.4692-45.0361L54.9973-40.1137L54.9973-30.2664L46.4692-25.344L37.9411-30.2664L37.9411-40.1112Z"/>
  </g>
  <g id="Ultralight-S" transform="matrix(1 0 0 1 515.649 696)">
   <path class="monochrome-0 multicolor-0:tintColor hierarchical-0:primary SFSymbolsPreviewWireframe" d="M72.8309-41.9387C74.3839-46.5997 73.8491-51.7057 71.3657-55.9453C67.6309-62.448 60.1228-65.7935 52.7901-64.2192C49.528-67.8941 44.8413-69.9839 39.9279-69.954C32.4326-69.9711 25.7823-65.1454 23.4764-58.0138C18.6614-57.0277 14.5052-54.0137 12.0731-49.742C8.31045-43.2564 9.16821-35.0809 14.195-29.5193C12.642-24.8583 13.1768-19.7524 15.6603-15.5128C19.3951-9.01004 26.9032-5.66455 34.2359-7.2389C37.4958-3.56399 42.1846-1.47413 47.098-1.50622C54.5976-1.48697 61.25-6.31696 63.556-13.455C68.371-14.4411 72.5272-17.4551 74.9593-21.7268C78.7176-28.2124 77.8577-36.3815 72.8331-41.943L72.8309-41.9387ZM47.1023-5.97899C44.1012-5.97472 41.1942-7.02499 38.8905-8.94801C38.9953-9.00362 39.1771-9.10416 39.2947-9.17689L52.9248-17.0486C53.6222-17.4444 54.05-18.1866 54.0457-18.9888L54.0457-38.2039L59.8062-34.8777C59.8682-34.8477 59.9089-34.7879 59.9174-34.7194L59.9174-18.8069C59.9089-11.7309 54.1783-5.99397 47.1023-5.97899ZM19.5427-17.7502C18.0389-20.3471 17.4977-23.3909 18.0132-26.345C18.1138-26.2851 18.2913-26.176 18.4175-26.1033L32.0476-18.2315C32.7385-17.8272 33.5941-17.8272 34.2872-18.2315L50.9269-27.8402L50.9269-21.1877C50.9312-21.1193 50.8991-21.0529 50.8457-21.0102L37.068-13.055C30.931-9.52128 23.0935-11.6218 19.5448-17.7502L19.5427-17.7502ZM15.9555-47.5024C17.4528-50.1035 19.8165-52.0928 22.6315-53.126C22.6315-53.0084 22.625-52.8009 22.625-52.6554L22.625-36.9098C22.6208-36.1098 23.0486-35.3675 23.7438-34.9718L40.3835-25.3653L34.623-22.0391C34.5653-22.0006 34.4925-21.9941 34.4284-22.0219L20.6485-29.9835C14.5244-33.5301 12.4239-41.3655 15.9533-47.5003L15.9555-47.5024ZM63.2843-36.4884L46.6445-46.0971L52.405-49.4212C52.4628-49.4597 52.5355-49.4661 52.5997-49.4383L66.3795-41.4831C72.5143-37.9387 74.617-30.0905 71.0726-23.9557C69.5731-21.3588 67.2116-19.3695 64.3987-18.3342L64.3987-34.5504C64.4052-35.3504 63.9795-36.0905 63.2864-36.4884L63.2843-36.4884ZM69.017-45.1174C68.9164-45.1794 68.7389-45.2864 68.6127-45.3591L54.9826-53.2308C54.2917-53.6351 53.4361-53.6351 52.743-53.2308L36.1033-43.6222L36.1033-50.2746C36.099-50.3431 36.1311-50.4094 36.1845-50.4522L49.9622-58.4009C56.0992-61.9411 63.9453-59.8341 67.4833-53.695C68.9785-51.1025 69.5197-48.0671 69.0127-45.1174L69.017-45.1174ZM32.9717-33.2606L27.209-36.5868C27.147-36.6167 27.1064-36.6766 27.0978-36.7451L27.0978-52.6576C27.1021-59.7421 32.8497-65.4834 39.9343-65.4791C42.9311-65.4791 45.8317-64.4267 48.1355-62.5101C48.0307-62.4545 47.851-62.3539 47.7312-62.2812L34.1011-54.4095C33.4038-54.0137 32.976-53.2736 32.9802-52.4715L32.9717-33.2648L32.9717-33.2606ZM36.1011-40.0072L43.513-44.2874L50.9248-40.0093L50.9248-31.4509L43.513-27.1728L36.1011-31.4509L36.1011-40.0072Z"/>
  </g>
 </g>
</svg>
