<svg width="1400" height="620" viewBox="0 0 1400 620" fill="none" xmlns="http://www.w3.org/2000/svg">
  <defs>
    <linearGradient id="bg" x1="90" y1="48" x2="1310" y2="572" gradientUnits="userSpaceOnUse">
      <stop stop-color="#F8E3D5"/>
      <stop offset="1" stop-color="#F4D6C4"/>
    </linearGradient>
  </defs>

  <rect x="50" y="30" width="1300" height="560" rx="34" fill="url(#bg)" stroke="#1A1A1A" stroke-width="2"/>

  <rect x="92" y="72" width="66" height="66" rx="18" fill="#FFF7F3"/>
  <path d="M110 90H144L134 100H110V90Z" fill="#161616"/>
  <path d="M110 108H140L130 118H110V108Z" fill="#161616"/>
  <path d="M110 126H136L126 136H110V126Z" fill="#161616"/>
  <path d="M134 90H146L136 100H124L134 90Z" fill="#FF8A52"/>
  <path d="M130 108H142L132 118H120L130 108Z" fill="#FF8A52"/>
  <text x="180" y="116" fill="#1A1A1A" font-family="Arial, Helvetica, sans-serif" font-size="28" font-weight="800">Dageno</text>

  <text x="150" y="120" fill="#1A1A1A" font-family="Arial, Helvetica, sans-serif" font-size="42" font-weight="800">Input</text>
  <text x="610" y="120" fill="#1A1A1A" font-family="Arial, Helvetica, sans-serif" font-size="42" font-weight="800">Process</text>
  <text x="1080" y="120" fill="#1A1A1A" font-family="Arial, Helvetica, sans-serif" font-size="42" font-weight="800">Output</text>

  <rect x="120" y="170" width="270" height="74" rx="22" fill="#FFF8F4" stroke="#1A1A1A" stroke-width="2"/>
  <text x="255" y="217" text-anchor="middle" fill="#1A1A1A" font-family="Arial, Helvetica, sans-serif" font-size="24" font-weight="700">GEO opportunity</text>

  <rect x="120" y="275" width="270" height="74" rx="22" fill="#FFF8F4" stroke="#1A1A1A" stroke-width="2"/>
  <text x="255" y="322" text-anchor="middle" fill="#1A1A1A" font-family="Arial, Helvetica, sans-serif" font-size="24" font-weight="700">Response detail</text>

  <rect x="120" y="380" width="270" height="74" rx="22" fill="#FFF8F4" stroke="#1A1A1A" stroke-width="2"/>
  <text x="255" y="427" text-anchor="middle" fill="#1A1A1A" font-family="Arial, Helvetica, sans-serif" font-size="24" font-weight="700">Citation URLs</text>

  <rect x="510" y="170" width="360" height="74" rx="22" fill="#FFF8F4" stroke="#FF7A3C" stroke-width="2"/>
  <text x="690" y="217" text-anchor="middle" fill="#1A1A1A" font-family="Arial, Helvetica, sans-serif" font-size="24" font-weight="700">Analyze the gap</text>

  <rect x="510" y="275" width="360" height="74" rx="22" fill="#FFF8F4" stroke="#FF7A3C" stroke-width="2"/>
  <text x="690" y="322" text-anchor="middle" fill="#1A1A1A" font-family="Arial, Helvetica, sans-serif" font-size="24" font-weight="700">Expand with fanout</text>

  <rect x="510" y="380" width="360" height="74" rx="22" fill="#FFF8F4" stroke="#FF7A3C" stroke-width="2"/>
  <text x="690" y="427" text-anchor="middle" fill="#1A1A1A" font-family="Arial, Helvetica, sans-serif" font-size="24" font-weight="700">Map to search volume</text>

  <rect x="990" y="170" width="280" height="74" rx="22" fill="#FFF8F4" stroke="#1A1A1A" stroke-width="2"/>
  <text x="1130" y="217" text-anchor="middle" fill="#1A1A1A" font-family="Arial, Helvetica, sans-serif" font-size="24" font-weight="700">Content plan</text>

  <rect x="990" y="275" width="280" height="74" rx="22" fill="#FFF8F4" stroke="#1A1A1A" stroke-width="2"/>
  <text x="1130" y="322" text-anchor="middle" fill="#1A1A1A" font-family="Arial, Helvetica, sans-serif" font-size="24" font-weight="700">First article</text>

  <rect x="990" y="380" width="280" height="74" rx="22" fill="#171717"/>
  <text x="1130" y="427" text-anchor="middle" fill="white" font-family="Arial, Helvetica, sans-serif" font-size="24" font-weight="800">Future landing page</text>

  <circle cx="450" cy="207" r="12" fill="#FF7A3C"/>
  <circle cx="450" cy="312" r="12" fill="#FF7A3C"/>
  <circle cx="450" cy="417" r="12" fill="#FF7A3C"/>
  <path d="M392 207H496" stroke="#FF7A3C" stroke-width="8" stroke-linecap="round"/>
  <path d="M392 312H496" stroke="#FF7A3C" stroke-width="8" stroke-linecap="round"/>
  <path d="M392 417H496" stroke="#FF7A3C" stroke-width="8" stroke-linecap="round"/>

  <circle cx="930" cy="207" r="12" fill="#FF7A3C"/>
  <circle cx="930" cy="312" r="12" fill="#FF7A3C"/>
  <circle cx="930" cy="417" r="12" fill="#FF7A3C"/>
  <path d="M882 207H978" stroke="#FF7A3C" stroke-width="8" stroke-linecap="round"/>
  <path d="M882 312H978" stroke="#FF7A3C" stroke-width="8" stroke-linecap="round"/>
  <path d="M882 417H978" stroke="#FF7A3C" stroke-width="8" stroke-linecap="round"/>

  <text x="700" y="528" text-anchor="middle" fill="#5C4A42" font-family="Arial, Helvetica, sans-serif" font-size="22" font-weight="600">
    From GEO evidence to a writing-ready content plan
  </text>
</svg>
