<?xml version="1.0" encoding="UTF-8"?>
<svg id="_レイヤー_1" data-name="レイヤー_1" xmlns="http://www.w3.org/2000/svg" version="1.1" viewBox="0 0 300 300">
  <!-- Generator: Adobe Illustrator 30.2.1, SVG Export Plug-In . SVG Version: 2.1.1 Build 1)  -->
  <defs>
    <style>
      .st0 {
        fill: #fff;
      }
    </style>
  </defs>
  <g>
    <rect class="st0" x="100" y="110" width="20" height="40" rx="10" ry="10"/>
    <rect class="st0" x="180" y="110" width="20" height="40" rx="10" ry="10"/>
  </g>
  <rect class="st0" x="140" y="154.3" width="20" height="40" rx="10" ry="10" transform="translate(324.3 24.3) rotate(90)"/>
  <path class="st0" d="M237.5,260h-27.5v-20h27.5c23.4,0,42.5-22.4,42.5-50v-80c0-27.6-19.1-50-42.5-50h-52.4c-4,17.2-18.2,30-35.1,30s-31.1-12.8-35.1-30h-52.4c-23.4,0-42.5,22.4-42.5,50v80c0,27.6,19.1,50,42.5,50h27.5v20h-27.5c-34.5,0-62.5-31.4-62.5-70v-80C0,71.4,28,40,62.5,40h61.3c5.5,0,10,4.5,10,10,0,11,7.3,20,16.3,20s16.3-9,16.3-20,4.5-10,10-10h61.3c34.5,0,62.5,31.4,62.5,70v80c0,38.6-28,70-62.5,70Z"/>
</svg>