<?xml version="1.0" encoding="UTF-8"?>
<svg id="_レイヤー_1" data-name="レイヤー_1" xmlns="http://www.w3.org/2000/svg" version="1.1" viewBox="0 0 600 600">
  <!-- Generator: Adobe Illustrator 30.2.1, SVG Export Plug-In . SVG Version: 2.1.1 Build 1)  -->
  <defs>
    <style>
      .st0 {
        fill: #e03131;
      }

      .st1 {
        fill: #fff;
      }
    </style>
  </defs>
  <rect class="st0" width="600" height="600"/>
  <g>
    <g>
      <rect class="st1" x="233.3" y="246.7" width="26.7" height="53.3" rx="13.3" ry="13.3"/>
      <rect class="st1" x="340" y="246.7" width="26.7" height="53.3" rx="13.3" ry="13.3"/>
    </g>
    <rect class="st1" x="286.7" y="305.7" width="26.7" height="53.3" rx="13.3" ry="13.3" transform="translate(632.3 32.3) rotate(90)"/>
    <path class="st1" d="M416.7,446.7h-36.7v-26.7h36.7c31.2,0,56.7-29.9,56.7-66.7v-106.7c0-36.8-25.4-66.7-56.7-66.7h-69.9c-5.4,23-24.3,40-46.8,40s-41.4-17-46.8-40h-69.9c-31.2,0-56.7,29.9-56.7,66.7v106.7c0,36.8,25.4,66.7,56.7,66.7h36.7v26.7h-36.7c-46,0-83.3-41.9-83.3-93.3v-106.7c0-51.5,37.4-93.3,83.3-93.3h81.7c7.4,0,13.3,6,13.3,13.3,0,14.7,9.7,26.7,21.7,26.7s21.7-12,21.7-26.7,6-13.3,13.3-13.3h81.7c46,0,83.3,41.9,83.3,93.3v106.7c0,51.5-37.4,93.3-83.3,93.3Z"/>
  </g>
</svg>