<svg width="225" height="42" viewBox="0 0 225 42" fill="none" xmlns="http://www.w3.org/2000/svg">
<path d="M18 42H9V30H6V18H3V9H0L1.07288e-06 3.69549e-05L6 0L6 8.99996H9V18H12V33H15V24H18V9H21V0H30V8.99996H33V24H36V33H39.0625V18H42V9H45V0H50.25V8.99996H48V18H45V30H42V42H33V36H30V24H27V9H24V24H21V36H18V42Z" fill="black"/>
<path d="M55.5 42H49.5V33H52.5V24H55.5V15H58.5V6H61.5V1.3113e-05H70.5V6H73.5V15H76.5V24H79.5V33H82.5V42H76.5V33H55.5V42ZM58.5 27H73.5V24H70.5V15H67.5101V9.11012H64.4429L64.5 15H61.5V24H58.5V27Z" fill="black"/>
<path d="M115.5 42H87V0H93V36H115.5V42Z" fill="black"/>
<path d="M126 42H120V1.3113e-05H147V3H150V6H153V19.5H150V22.5H147V25.5H150V28.5H153V42H147V31.5H144V28.5H141V25.5H126V42ZM126 19.5H144V16.5H147V9H144V6H126V19.5Z" fill="black"/>
<path d="M181.5 42H163.5V39H160.5V36H157.5V1.3113e-05H163.5V33H166.5V36H178.5V33H181.5V1.3113e-05H187.5V36H184.5V39H181.5V42Z" fill="black"/>
<path d="M219 42H198V39H195V36H192V30H198V33H201V36H216V33H219V27H216V24H201V21H195V18H192V6H195V3H198V1.3113e-05H219V3H222V6H225V12H219V9H216V6H201V9H198V15H201V18H216V21H222V24H225V36H222V39H219V42Z" fill="black"/>
</svg>
