<svg xmlns="http://www.w3.org/2000/svg" viewBox="0 0 1280 640" fill="none">
  <defs>
    <linearGradient id="bg" x1="0%" y1="0%" x2="100%" y2="100%">
      <stop offset="0%" style="stop-color:#0d1117"/>
      <stop offset="100%" style="stop-color:#161b22"/>
    </linearGradient>
    <linearGradient id="accent" x1="0%" y1="0%" x2="100%" y2="0%">
      <stop offset="0%" style="stop-color:#0969da"/>
      <stop offset="100%" style="stop-color:#a371f7"/>
    </linearGradient>
  </defs>
  
  <rect width="1280" height="640" fill="url(#bg)"/>
  
  <!-- Subtle grid pattern -->
  <g opacity="0.03">
    <line x1="0" y1="80" x2="1280" y2="80" stroke="#fff" stroke-width="1"/>
    <line x1="0" y1="160" x2="1280" y2="160" stroke="#fff" stroke-width="1"/>
    <line x1="0" y1="240" x2="1280" y2="240" stroke="#fff" stroke-width="1"/>
    <line x1="0" y1="320" x2="1280" y2="320" stroke="#fff" stroke-width="1"/>
    <line x1="0" y1="400" x2="1280" y2="400" stroke="#fff" stroke-width="1"/>
    <line x1="0" y1="480" x2="1280" y2="480" stroke="#fff" stroke-width="1"/>
    <line x1="0" y1="560" x2="1280" y2="560" stroke="#fff" stroke-width="1"/>
  </g>
  
  <!-- Terminal icon (large) -->
  <g transform="translate(540, 120)">
    <rect x="0" y="0" width="200" height="160" rx="20" fill="#161b22" stroke="url(#accent)" stroke-width="3"/>
    <circle cx="28" cy="24" r="7" fill="#ff5f57"/>
    <circle cx="50" cy="24" r="7" fill="#febc2e"/>
    <circle cx="72" cy="24" r="7" fill="#28c840"/>
    
    <!-- Messy → Clean -->
    <rect x="24" y="56" width="50" height="5" rx="2.5" fill="#484f58" opacity="0.5"/>
    <rect x="24" y="68" width="38" height="5" rx="2.5" fill="#484f58" opacity="0.4"/>
    <rect x="24" y="80" width="44" height="5" rx="2.5" fill="#484f58" opacity="0.3"/>
    
    <path d="M88 70 L112 70" stroke="url(#accent)" stroke-width="4" stroke-linecap="round"/>
    <path d="M105 60 L115 70 L105 80" stroke="url(#accent)" stroke-width="4" stroke-linecap="round" stroke-linejoin="round" fill="none"/>
    
    <rect x="126" y="56" width="50" height="5" rx="2.5" fill="#58a6ff"/>
    <rect x="126" y="68" width="38" height="5" rx="2.5" fill="#a371f7"/>
    <rect x="126" y="80" width="44" height="5" rx="2.5" fill="#58a6ff"/>
    
    <text x="24" y="124" font-family="monospace" font-size="22" fill="#484f58">~$</text>
    <text x="110" y="124" font-family="monospace" font-size="22" fill="url(#accent)">&lt;/&gt;</text>
  </g>
  
  <!-- Title -->
  <text x="640" y="350" font-family="-apple-system, BlinkMacSystemFont, 'Segoe UI', Helvetica, Arial, sans-serif" font-size="72" font-weight="800" fill="#f0f6fc" text-anchor="middle">
    Re<tspan fill="url(#accent)">Prompter</tspan>
  </text>
  
  <!-- Tagline -->
  <text x="640" y="400" font-family="-apple-system, BlinkMacSystemFont, 'Segoe UI', Helvetica, Arial, sans-serif" font-size="26" fill="#e6edf3" text-anchor="middle" font-weight="500">
    Your prompt sucks. Let's fix that.
  </text>
  
  <!-- Stats -->
  <g transform="translate(0, 460)">
    <text x="280" y="30" font-family="monospace" font-size="18" fill="#58a6ff" text-anchor="middle" font-weight="700">+462% quality</text>
    <text x="280" y="52" font-family="monospace" font-size="13" fill="#484f58" text-anchor="middle">avg improvement</text>
    
    <text x="520" y="30" font-family="monospace" font-size="18" fill="#a371f7" text-anchor="middle" font-weight="700">6 dimensions</text>
    <text x="520" y="52" font-family="monospace" font-size="13" fill="#484f58" text-anchor="middle">quality scoring</text>
    
    <text x="760" y="30" font-family="monospace" font-size="18" fill="#3fb950" text-anchor="middle" font-weight="700">11 templates</text>
    <text x="760" y="52" font-family="monospace" font-size="13" fill="#484f58" text-anchor="middle">built-in</text>
    
    <text x="1000" y="30" font-family="monospace" font-size="18" fill="#f0883e" text-anchor="middle" font-weight="700">team mode</text>
    <text x="1000" y="52" font-family="monospace" font-size="13" fill="#484f58" text-anchor="middle">multi-agent</text>
  </g>
  
  <!-- Bottom accent line -->
  <rect x="0" y="634" width="1280" height="6" fill="url(#accent)"/>
</svg>