<?xml version="1.0" encoding="UTF-8"?>
<svg id="_图层_2" data-name="图层 2" xmlns="http://www.w3.org/2000/svg" viewBox="0 0 475.66 144.48">
  <defs>
    <style>
      .cls-1 {
        font-family: REEJI-HonghuangLi-MediumGB1.0, REEJI-HonghuangLi-MediumGB1.0;
        font-size: 85.55px;
      }

      .cls-1, .cls-2, .cls-3 {
        fill: #5e2feb;
      }

      .cls-4 {
        letter-spacing: .66em;
      }

      .cls-5 {
        letter-spacing: .69em;
      }

      .cls-6 {
        fill: #5e30eb;
      }

      .cls-7 {
        letter-spacing: .68em;
      }

      .cls-8 {
        letter-spacing: .68em;
      }

      .cls-9 {
        letter-spacing: .68em;
      }

      .cls-3 {
        font-family: AcuminConcept-Medium, 'Acumin Variable Concept';
        font-size: 28.01px;
        font-variation-settings: 'wght' 500, 'wdth' 100, 'slnt' 0;
      }
    </style>
  </defs>
  <g id="_图层_1-2" data-name="图层 1">
    <path class="cls-2" d="M92.06,82.14V35.31c0-1.31,.9-2.37,2-2.37h6.83c1.1,0,2,1.06,2,2.37v46.84c0,1.31-.9,2.37-2,2.37h-6.83c-1.1,0-2-1.06-2-2.37Z"/>
    <path class="cls-2" d="M92.06,25.09v-7.38c0-1.1,.9-2,2-2h6.83c1.1,0,2,.9,2,2v7.38c0,1.1-.9,2-2,2h-6.83c-1.1,0-2-.9-2-2Z"/>
    <path class="cls-6" d="M125.7,90.52c-17.74,48.66-82.65,55.74-112.91,14.46C-12.85,70.1,1.61,19.29,42.34,4.12,48.49,1.81,55.11,.45,61.67,.06c13.13-.59,26.27,2.92,36.88,9.99C63.7-6.61,20.79,11.71,10.9,49.22c-6.48,22.94,2.31,48.94,21.34,63.28,30.58,23.82,75.89,12.43,93.47-21.97h0Z"/>
    <path class="cls-6" d="M121.89,97.88c-18.51,27.31-60.4,29.91-84.04,6.82-24.94-22.95-24.66-64.08,.76-86.53C50.3,7.74,67.04,1.31,82.72,4.24c5.17,1.06,9.97,3.05,14.67,5.14-8.52-2.56-17.32-4.84-26.14-2.92C26.95,14.64,9.56,68.76,41.72,100.66c14,13.89,35.96,19.69,54.87,13.49,9.56-3.16,18.87-8.31,25.3-16.27h0Z"/>
    <text class="cls-1" transform="translate(133.48 90.03)"><tspan x="0" y="0">词元汇智</tspan></text>
    <text class="cls-3" transform="translate(174.02 137.14)"><tspan class="cls-4" x="0" y="0">T</tspan><tspan class="cls-7" x="34.28" y="0">O</tspan><tspan class="cls-5" x="74.45" y="0">K</tspan><tspan class="cls-8" x="111.84" y="0">E</tspan><tspan class="cls-7" x="147.69" y="0">N </tspan><tspan class="cls-9" x="213.7" y="0">A</tspan><tspan class="cls-7" x="251.29" y="0">I</tspan></text>
    <path class="cls-2" d="M76.52,95.91h7.25c1.38,0,2.35-1.37,1.88-2.68l-19.5-54.27c-.29-.79-1.04-1.32-1.88-1.32h-5.91c-.84,0-1.6,.53-1.88,1.32L31.75,107.88c-.47,1.3,.5,2.68,1.88,2.68h7.25c.86,0,1.62-.55,1.9-1.36l18.79-55.06,10.83,32.36-16.7-.13c-.54,0-1.03,.34-1.2,.86l-2.34,6.91c-.28,.81,.33,1.66,1.19,1.66l22.06,.12"/>
  </g>
</svg>